<?xml version="1.0" standalone="no"?>
<!DOCTYPE svg PUBLIC "-//W3C//DTD SVG 20010904//EN"
 "http://www.w3.org/TR/2001/REC-SVG-20010904/DTD/svg10.dtd">
<svg version="1.0" xmlns="http://www.w3.org/2000/svg"
 width="300.000000pt" height="300.000000pt" viewBox="0 0 300.000000 300.000000"
 preserveAspectRatio="xMidYMid meet">
<metadata>
Created by potrace 1.11, written by Peter Selinger 2001-2013
</metadata>
<g transform="translate(0.000000,300.000000) scale(0.100000,-0.100000)"
fill="#000000" stroke="none">
<path d="M1461 2476 c-44 -14 -72 -53 -78 -108 -8 -72 14 -111 83 -143 70 -33
74 -38 74 -91 0 -45 -14 -64 -45 -64 -27 0 -45 18 -45 47 0 20 -5 23 -35 23
-21 0 -35 -5 -36 -12 -9 -94 79 -156 167 -120 44 19 64 59 64 131 0 80 -13
106 -69 131 -70 31 -75 35 -85 63 -13 36 6 77 37 77 29 0 47 -18 47 -47 0 -20
5 -23 35 -23 34 0 35 1 35 41 0 33 -6 47 -31 70 -17 16 -36 29 -43 30 -6 0
-18 2 -26 4 -8 1 -31 -3 -49 -9z"/>
<path d="M2480 2483 c-55 -10 -96 -79 -87 -151 6 -58 27 -82 95 -113 l62 -28
0 -49 c0 -52 -12 -72 -45 -72 -27 0 -45 18 -45 47 0 20 -5 23 -35 23 -33 0
-35 -2 -35 -34 0 -59 56 -110 117 -108 90 4 133 76 112 190 -10 52 -23 66 -86
90 -58 23 -82 57 -67 99 17 50 84 39 84 -13 0 -21 5 -24 39 -24 43 0 43 1 26
77 -9 41 -80 75 -135 66z"/>
<path d="M372 2243 l3 -238 33 -3 c36 -4 34 -12 34 130 1 45 5 68 14 72 19 7
30 -11 59 -107 29 -92 36 -101 79 -95 l25 3 -34 105 c-34 103 -34 105 -15 125
58 62 42 203 -27 234 -13 6 -58 11 -99 11 l-74 0 2 -237z m149 151 c16 -20 15
-89 -1 -109 -7 -8 -27 -15 -45 -15 l-32 0 0 70 0 70 32 0 c18 0 38 -7 46 -16z"/>
<path d="M899 2458 c-1 -32 -1 -397 0 -430 l1 -27 99 0 99 0 4 34 c4 39 8 37
-79 36 l-53 0 0 70 0 69 59 0 58 0 -1 33 c-1 32 -2 32 -55 34 -29 1 -54 3 -56
5 -3 3 -8 91 -6 116 1 8 21 12 65 12 58 0 64 2 68 23 8 44 2 47 -103 47 -96 0
-99 -1 -100 -22z"/>
<path d="M1966 2248 c1 -128 2 -237 3 -241 0 -5 16 -7 34 -5 l32 3 0 235 0
235 -35 3 -35 3 1 -233z"/>
<path d="M1980 1741 c-34 -8 -53 -21 -73 -51 -14 -20 -17 -51 -17 -188 0 -101
4 -172 11 -185 20 -39 51 -57 101 -57 39 0 52 5 77 31 17 17 32 39 32 50 1 10
2 27 3 37 1 13 -8 18 -36 20 -33 3 -37 1 -40 -24 -4 -35 -31 -53 -55 -38 -16
10 -18 30 -19 160 -1 86 3 154 9 162 5 6 20 12 32 12 23 0 35 -17 35 -51 0
-15 7 -19 39 -19 32 0 39 3 36 18 -2 9 -4 27 -4 39 -2 50 -74 96 -131 84z"/>
<path d="M370 1705 c0 -34 1 -35 40 -35 l40 0 0 -205 0 -205 35 0 35 0 0 204
0 205 38 3 c34 3 37 6 39 36 l1 32 -114 0 -114 0 0 -35z"/>
<path d="M956 1718 c-7 -25 -42 -177 -50 -218 -3 -14 -14 -67 -26 -118 -11
-52 -22 -99 -23 -105 -1 -7 12 -12 33 -12 33 0 35 2 44 45 11 54 16 58 64 51
35 -6 38 -9 46 -52 8 -44 10 -46 46 -47 l38 -2 -9 33 c-5 17 -27 118 -50 222
-52 244 -45 225 -79 225 -20 0 -29 -6 -34 -22z m50 -210 c7 -35 13 -66 14 -70
0 -5 -14 -8 -31 -8 -30 0 -31 1 -25 33 4 17 9 51 13 75 3 23 8 40 11 38 2 -3
10 -33 18 -68z"/>
<path d="M1378 1733 c-3 -4 -4 -111 -4 -238 l1 -230 35 0 35 0 0 132 c0 72 2
129 4 127 3 -3 26 -62 52 -132 l46 -127 34 0 34 0 0 235 0 235 -35 0 -35 0 0
-122 c1 -68 -2 -123 -6 -123 -3 0 -16 28 -28 63 -66 184 -65 182 -98 185 -17
2 -33 -1 -35 -5z"/>
<path d="M2410 1501 l0 -240 105 1 105 0 0 33 0 34 -67 3 -68 3 -1 68 -2 67
59 0 59 0 0 33 c0 32 0 32 -47 32 -27 -1 -53 1 -59 3 -7 2 -12 28 -12 68 l0
64 69 0 69 0 0 35 0 35 -105 0 -105 0 0 -239z"/>
<path d="M1864 1005 c-3 -6 -3 -118 -2 -250 l3 -240 383 0 c338 -1 382 1 383
15 4 81 3 464 -2 472 -9 14 -760 17 -765 3z"/>
<path d="M391 758 l0 -238 104 0 103 0 0 35 c0 19 -5 36 -11 36 -7 1 -37 2
-67 3 l-55 1 -2 180 c-1 99 -2 190 -2 202 -1 19 -6 22 -35 21 l-34 -1 -1 -239z"/>
<path d="M955 978 c-3 -13 -27 -120 -54 -238 l-47 -215 34 -3 c19 -2 36 -2 37
0 4 4 13 55 14 81 1 14 10 17 50 17 l49 0 7 -50 7 -50 38 0 38 0 -13 53 c-8
28 -17 68 -20 87 -6 35 -15 73 -56 248 -21 90 -22 92 -50 92 -21 0 -30 -6 -34
-22z m50 -195 c3 -27 9 -58 12 -70 5 -20 1 -23 -27 -23 -35 0 -34 -3 -15 90 2
8 4 23 4 33 2 36 19 15 26 -30z"/>
<path d="M1380 759 l0 -239 70 0 c84 0 121 16 143 62 21 44 17 141 -8 168 -18
19 -18 21 1 41 27 29 26 124 -1 161 -28 38 -52 46 -133 46 l-72 0 0 -239z
m144 155 c31 -30 13 -98 -29 -108 -15 -4 -30 -5 -33 -2 -3 4 -6 33 -7 66 -1
59 0 60 26 60 15 0 35 -7 43 -16z m0 -190 c39 -38 7 -134 -44 -134 -23 0 -22
-4 -24 83 -1 67 -1 67 26 67 14 0 34 -7 42 -16z"/>
</g>
</svg>
