<?xml version="1.0" encoding="utf-8"?>
<!-- Generator: Adobe Illustrator 24.1.3, SVG Export Plug-In . SVG Version: 6.00 Build 0)  -->
<svg version="1.1" id="Layer_1" xmlns="http://www.w3.org/2000/svg" xmlns:xlink="http://www.w3.org/1999/xlink" x="0px" y="0px"
	 viewBox="0 0 1500 1500" style="enable-background:new 0 0 1500 1500;" xml:space="preserve">
<style type="text/css">
	.st0{stroke:#000000;stroke-miterlimit:10;}
	.st1{fill:#FFFFFF;}
	.st2{fill:#C1272D;}
</style>
<rect class="st0" width="1502" height="1500"/>
<g>
	<path class="st1" d="M188.7,498.1V260.3h54.8c40.1,0,60.1,23.3,60.1,69.8c0,14-2.2,25.9-6.5,35.7c-4.3,9.8-12,17.7-22.9,23.7
		l36.7,108.5h-36.1l-31.7-101.5h-20.4v101.5H188.7z M222.8,292.4v74.1h19.4c6,0,10.8-0.8,14.4-2.5c3.6-1.7,6.3-4.1,8.3-7.2
		c1.8-3.1,3-7,3.7-11.5c0.7-4.6,1-9.9,1-15.9c0-6-0.3-11.3-1-15.9c-0.7-4.6-2-8.5-4-11.9c-4.2-6.2-12.2-9.3-24-9.3H222.8z"/>
</g>
<g>
	<path class="st1" d="M450.7,498.1V260.3h101.5v32.1h-67.5v69.8h58.8v32.1h-58.8V464h67.5v34.1H450.7z"/>
</g>
<g>
	<path class="st1" d="M807.6,328.8h-34.1v-7.7c0-7.8-1.8-14.5-5.5-20.2c-3.7-5.7-9.9-8.5-18.5-8.5c-4.7,0-8.5,0.9-11.4,2.7
		c-2.9,1.8-5.2,4-7,6.7c-1.8,2.9-3,6.2-3.7,9.9c-0.7,3.7-1,7.5-1,11.5c0,4.7,0.2,8.6,0.5,11.7c0.3,3.1,1.2,5.9,2.5,8.3
		c1.3,2.5,3.3,4.6,5.8,6.3c2.6,1.8,6.1,3.6,10.5,5.3l26,10.4c7.6,2.9,13.7,6.3,18.4,10.2c4.7,3.9,8.3,8.4,11,13.5
		c2.4,5.3,4.1,11.4,5,18.2c0.9,6.8,1.3,14.5,1.3,23.2c0,10-1,19.3-3,27.9c-2,8.6-5.2,15.9-9.7,21.9c-4.7,6.2-10.8,11.1-18.4,14.7
		c-7.6,3.6-16.8,5.3-27.7,5.3c-8.2,0-15.9-1.5-23-4.3c-7.1-2.9-13.2-6.9-18.4-12c-5.1-5.1-9.2-11.1-12.2-17.9
		c-3-6.8-4.5-14.2-4.5-22.2V431h34.1v10.7c0,6.2,1.8,11.9,5.5,16.9c3.7,5,9.9,7.5,18.5,7.5c5.8,0,10.3-0.8,13.5-2.5
		c3.2-1.7,5.7-4.1,7.5-7.2c1.8-3.1,2.8-6.8,3.2-11.2c0.3-4.3,0.5-9.2,0.5-14.5c0-6.2-0.2-11.4-0.7-15.4c-0.4-4-1.3-7.2-2.7-9.7
		c-1.6-2.4-3.6-4.5-6.2-6c-2.6-1.6-6-3.2-10.2-5l-24.4-10c-14.7-6-24.5-14-29.6-23.9c-5-9.9-7.5-22.3-7.5-37.2
		c0-8.9,1.2-17.4,3.7-25.4c2.4-8,6.1-14.9,11-20.7c4.7-5.8,10.6-10.4,17.9-13.9c7.2-3.4,15.9-5.2,25.9-5.2c8.5,0,16.2,1.6,23.2,4.7
		c7,3.1,13.1,7.2,18.2,12.4c10.2,10.7,15.4,22.9,15.4,36.7V328.8z"/>
</g>
<g>
	<path class="st1" d="M984.8,498.1V260.3h34.1v237.8H984.8z"/>
</g>
<g>
	<path class="st1" d="M1313,328.8h-34.1v-7.7c0-7.8-1.8-14.5-5.5-20.2c-3.7-5.7-9.9-8.5-18.5-8.5c-4.7,0-8.5,0.9-11.4,2.7
		c-2.9,1.8-5.2,4-7,6.7c-1.8,2.9-3,6.2-3.7,9.9c-0.7,3.7-1,7.5-1,11.5c0,4.7,0.2,8.6,0.5,11.7c0.3,3.1,1.2,5.9,2.5,8.3
		c1.3,2.5,3.3,4.6,5.8,6.3c2.6,1.8,6.1,3.6,10.5,5.3l26,10.4c7.6,2.9,13.7,6.3,18.4,10.2c4.7,3.9,8.3,8.4,11,13.5
		c2.4,5.3,4.1,11.4,5,18.2c0.9,6.8,1.3,14.5,1.3,23.2c0,10-1,19.3-3,27.9c-2,8.6-5.2,15.9-9.7,21.9c-4.7,6.2-10.8,11.1-18.4,14.7
		c-7.6,3.6-16.8,5.3-27.7,5.3c-8.2,0-15.9-1.5-23-4.3c-7.1-2.9-13.2-6.9-18.4-12c-5.1-5.1-9.2-11.1-12.2-17.9
		c-3-6.8-4.5-14.2-4.5-22.2V431h34.1v10.7c0,6.2,1.8,11.9,5.5,16.9c3.7,5,9.9,7.5,18.5,7.5c5.8,0,10.3-0.8,13.5-2.5
		c3.2-1.7,5.7-4.1,7.5-7.2c1.8-3.1,2.8-6.8,3.2-11.2c0.3-4.3,0.5-9.2,0.5-14.5c0-6.2-0.2-11.4-0.7-15.4c-0.4-4-1.3-7.2-2.7-9.7
		c-1.6-2.4-3.6-4.5-6.2-6c-2.6-1.6-6-3.2-10.2-5l-24.4-10c-14.7-6-24.5-14-29.6-23.9c-5-9.9-7.5-22.3-7.5-37.2
		c0-8.9,1.2-17.4,3.7-25.4c2.4-8,6.1-14.9,11-20.7c4.7-5.8,10.6-10.4,17.9-13.9c7.2-3.4,15.9-5.2,25.9-5.2c8.5,0,16.2,1.6,23.2,4.7
		c7,3.1,13.1,7.2,18.2,12.4c10.2,10.7,15.4,22.9,15.4,36.7V328.8z"/>
</g>
<g>
	<path class="st1" d="M226.8,868.4V662.7h-39.4v-32.1h112.9v32.1h-39.4v205.7H226.8z"/>
</g>
<g>
	<path class="st1" d="M429.2,868.4l53.1-237.8h28.4l53.1,237.8h-34.1l-10-51.1h-46.4l-10,51.1H429.2z M513.3,785.3l-16.7-86.2H496
		l-16.7,86.2H513.3z"/>
</g>
<g>
	<path class="st1" d="M689.7,868.4V630.7h32.7l51.4,143.3h0.7V630.7h34.1v237.8h-32.1l-52.1-142.9h-0.7v142.9H689.7z"/>
</g>
<g>
	<path class="st2" d="M198,1238.8v-237.8h34.1v203.7h67.5v34.1H198z"/>
</g>
<g>
	<path class="st2" d="M429.2,1238.8l53.1-237.8h28.4l53.1,237.8h-34.1l-10-51.1h-46.4l-10,51.1H429.2z M513.3,1155.7l-16.7-86.2H496
		l-16.7,86.2H513.3z"/>
</g>
<g>
	<path class="st2" d="M694.1,1238.8v-237.8h49.8c10.9,0,20.2,1.7,27.9,5c7.7,3.3,14,7.8,18.9,13.4c4.9,5.6,8.4,12,10.5,19.2
		c2.1,7.2,3.2,14.8,3.2,22.5v8.7c0,6.5-0.5,11.9-1.5,16.4c-1,4.5-2.5,8.3-4.5,11.7c-3.8,6.2-9.6,11.6-17.4,16
		c8,3.8,13.9,9.3,17.7,16.7c3.8,7.3,5.7,17.4,5.7,30.1v13.4c0,20.9-5.1,37-15.2,48.1c-10.1,11.1-26.3,16.7-48.6,16.7H694.1z
		 M728.1,1033.1v65.4h15.4c11.4,0,19-2.8,22.9-8.5c3.9-5.7,5.8-14,5.8-24.9c0-10.7-2.2-18.7-6.5-24c-4.3-5.3-12.2-8-23.5-8H728.1z
		 M728.1,1128.6v76.1h14.7c6.9,0,12.3-1,16.2-3c3.9-2,6.8-4.8,8.8-8.3c2-3.6,3.2-7.8,3.7-12.7c0.4-4.9,0.7-10.2,0.7-16
		c0-6-0.3-11.2-1-15.7c-0.7-4.5-2-8.2-4-11.4c-2.2-3.1-5.2-5.4-9-6.8c-3.8-1.4-8.8-2.2-15-2.2H728.1z"/>
</g>
<g>
	<path class="st1" d="M1058.1,800.7v14.7c0,7.3-1.4,14.3-4.2,20.9c-2.8,6.6-6.6,12.4-11.5,17.5c-4.9,5.1-10.6,9.2-17.2,12.2
		c-6.6,3-13.6,4.5-21.2,4.5c-6.5,0-13-0.9-19.7-2.7c-6.7-1.8-12.7-4.9-18-9.3c-5.3-4.5-9.7-10.2-13.2-17.2c-3.5-7-5.2-16-5.2-26.9
		V683.5c0-7.8,1.3-15,4-21.7c2.7-6.7,6.5-12.5,11.4-17.4c4.9-4.9,10.7-8.7,17.5-11.5c6.8-2.8,14.3-4.2,22.5-4.2
		c16,0,29.1,5.2,39.1,15.7c4.9,5.1,8.7,11.2,11.5,18.2c2.8,7,4.2,14.6,4.2,22.9v13.4h-34.1v-11.4c0-6.7-1.9-12.5-5.7-17.4
		c-3.8-4.9-8.9-7.3-15.4-7.3c-8.5,0-14.1,2.6-16.9,7.8c-2.8,5.2-4.2,11.9-4.2,19.9V812c0,6.9,1.5,12.7,4.5,17.4c3,4.7,8.4,7,16.2,7
		c2.2,0,4.6-0.4,7.2-1.2c2.6-0.8,5-2.1,7.2-3.8c2-1.8,3.7-4.2,5-7.3c1.3-3.1,2-7,2-11.7v-11.7H1058.1z"/>
</g>
<g>
	<path class="st1" d="M1208.8,868.4V630.7h101.5v32.1h-67.5v69.8h58.8v32.1h-58.8v69.8h67.5v34.1H1208.8z"/>
</g>
<rect x="933.8" y="993.8" class="st2" width="383" height="248"/>
<path class="st1" d="M988.3,1059.6v3c0,1.5-0.3,3-0.9,4.3c-0.6,1.4-1.4,2.6-2.4,3.6c-1,1.1-2.2,1.9-3.6,2.5
	c-1.4,0.6-2.8,0.9-4.4,0.9c-1.3,0-2.7-0.2-4.1-0.6s-2.6-1-3.7-1.9s-2-2.1-2.7-3.6c-0.7-1.5-1.1-3.3-1.1-5.6v-27.2
	c0-1.6,0.3-3.1,0.8-4.5c0.6-1.4,1.3-2.6,2.4-3.6c1-1,2.2-1.8,3.6-2.4c1.4-0.6,3-0.9,4.7-0.9c3.3,0,6,1.1,8.1,3.3
	c1,1.1,1.8,2.3,2.4,3.8c0.6,1.5,0.9,3,0.9,4.7v2.8h-7.1v-2.4c0-1.4-0.4-2.6-1.2-3.6c-0.8-1-1.8-1.5-3.2-1.5c-1.8,0-2.9,0.5-3.5,1.6
	c-0.6,1.1-0.9,2.5-0.9,4.1v25.2c0,1.4,0.3,2.6,0.9,3.6c0.6,1,1.7,1.5,3.4,1.5c0.5,0,1-0.1,1.5-0.2c0.5-0.2,1-0.4,1.5-0.8
	c0.4-0.4,0.8-0.9,1-1.5c0.3-0.6,0.4-1.5,0.4-2.4v-2.4H988.3z"/>
<path class="st1" d="M993.6,1036c0-2,0.3-3.7,1-5.3c0.7-1.5,1.6-2.8,2.8-3.8c1.1-1,2.4-1.7,3.8-2.2c1.4-0.5,2.8-0.8,4.3-0.8
	s2.9,0.3,4.3,0.8c1.4,0.5,2.7,1.2,3.8,2.2c1.1,1,2,2.3,2.7,3.8c0.7,1.5,1,3.3,1,5.3v26c0,2.1-0.3,3.9-1,5.3
	c-0.7,1.5-1.6,2.7-2.7,3.7c-1.2,1-2.4,1.8-3.8,2.3c-1.4,0.5-2.8,0.8-4.3,0.8s-2.9-0.3-4.3-0.8s-2.7-1.3-3.8-2.3
	c-1.2-1-2.1-2.2-2.8-3.7c-0.7-1.5-1-3.3-1-5.3V1036z M1000.7,1062c0,1.7,0.5,3,1.4,3.8c0.9,0.8,2.1,1.2,3.4,1.2s2.4-0.4,3.4-1.2
	c0.9-0.8,1.4-2.1,1.4-3.8v-26c0-1.7-0.5-3-1.4-3.8c-0.9-0.8-2.1-1.2-3.4-1.2s-2.4,0.4-3.4,1.2c-0.9,0.8-1.4,2.1-1.4,3.8V1062z"/>
<path class="st1" d="M1023.5,1073.6v-49.3h7.1v42.3h14v7.1H1023.5z"/>
<path class="st1" d="M1049.1,1073.6v-49.3h7.1v42.3h14v7.1H1049.1z"/>
<path class="st1" d="M1074.8,1073.6v-49.3h21.1v6.7h-14v14.5h12.2v6.7h-12.2v14.5h14v7.1H1074.8z"/>
<path class="st1" d="M1122.9,1059.6v3c0,1.5-0.3,3-0.9,4.3c-0.6,1.4-1.4,2.6-2.4,3.6c-1,1.1-2.2,1.9-3.6,2.5
	c-1.4,0.6-2.8,0.9-4.4,0.9c-1.3,0-2.7-0.2-4.1-0.6s-2.6-1-3.7-1.9s-2-2.1-2.7-3.6c-0.7-1.5-1.1-3.3-1.1-5.6v-27.2
	c0-1.6,0.3-3.1,0.8-4.5c0.6-1.4,1.3-2.6,2.4-3.6c1-1,2.2-1.8,3.6-2.4c1.4-0.6,3-0.9,4.7-0.9c3.3,0,6,1.1,8.1,3.3
	c1,1.1,1.8,2.3,2.4,3.8c0.6,1.5,0.9,3,0.9,4.7v2.8h-7.1v-2.4c0-1.4-0.4-2.6-1.2-3.6c-0.8-1-1.8-1.5-3.2-1.5c-1.8,0-2.9,0.5-3.5,1.6
	c-0.6,1.1-0.9,2.5-0.9,4.1v25.2c0,1.4,0.3,2.6,0.9,3.6c0.6,1,1.7,1.5,3.4,1.5c0.5,0,1-0.1,1.5-0.2c0.5-0.2,1-0.4,1.5-0.8
	c0.4-0.4,0.8-0.9,1-1.5c0.3-0.6,0.4-1.5,0.4-2.4v-2.4H1122.9z"/>
<path class="st1" d="M1133.2,1073.6V1031h-8.2v-6.7h23.4v6.7h-8.2v42.7H1133.2z"/>
<path class="st1" d="M1151.8,1073.6v-49.3h7.1v49.3H1151.8z"/>
<path class="st1" d="M1189.7,1024.3l-10.1,49.3h-6.2l-10-49.3h7.5l5.6,34.4h0.1l5.7-34.4H1189.7z"/>
<path class="st1" d="M1193.9,1073.6v-49.3h21.1v6.7h-14v14.5h12.2v6.7H1201v14.5h14v7.1H1193.9z"/>
<path class="st1" d="M962.6,1142.9l11-49.3h5.9l11,49.3h-7.1l-2.1-10.6h-9.6l-2.1,10.6H962.6z M980.1,1125.7l-3.5-17.9h-0.1
	l-3.5,17.9H980.1z"/>
<path class="st1" d="M993.6,1105.2c0-2,0.3-3.7,1-5.3c0.7-1.5,1.6-2.8,2.8-3.8c1.1-1,2.4-1.7,3.8-2.2c1.4-0.5,2.8-0.8,4.3-0.8
	s2.9,0.3,4.3,0.8c1.4,0.5,2.7,1.2,3.8,2.2c1.1,1,2,2.3,2.7,3.8c0.7,1.5,1,3.3,1,5.3v2.5h-7.1v-2.5c0-1.7-0.5-3-1.4-3.8
	c-0.9-0.8-2.1-1.2-3.4-1.2s-2.4,0.4-3.4,1.2c-0.9,0.8-1.4,2.1-1.4,3.8v26c0,1.7,0.5,3,1.4,3.8c0.9,0.8,2.1,1.2,3.4,1.2
	s2.4-0.4,3.4-1.2c0.9-0.8,1.4-2.1,1.4-3.8v-9.3h-5.6v-6.2h12.7v15.5c0,2.1-0.3,3.9-1,5.3c-0.7,1.5-1.6,2.7-2.7,3.7
	c-1.2,1-2.4,1.8-3.8,2.3c-1.4,0.5-2.8,0.8-4.3,0.8s-2.9-0.3-4.3-0.8s-2.7-1.3-3.8-2.3c-1.2-1-2.1-2.2-2.8-3.7c-0.7-1.5-1-3.3-1-5.3
	V1105.2z"/>
<path class="st1" d="M1020.3,1142.9l11-49.3h5.9l11,49.3h-7.1l-2.1-10.6h-9.6l-2.1,10.6H1020.3z M1037.8,1125.7l-3.5-17.9h-0.1
	l-3.5,17.9H1037.8z"/>
<path class="st1" d="M1051.9,1142.9v-49.3h7.1v49.3H1051.9z"/>
<path class="st1" d="M1065.6,1142.9v-49.3h6.8l10.7,29.7h0.1v-29.7h7.1v49.3h-6.7l-10.8-29.7h-0.1v29.7H1065.6z"/>
<path class="st1" d="M1119.6,1107.8h-7.1v-1.6c0-1.6-0.4-3-1.1-4.2s-2-1.8-3.8-1.8c-1,0-1.8,0.2-2.4,0.6c-0.6,0.4-1.1,0.8-1.5,1.4
	c-0.4,0.6-0.6,1.3-0.8,2s-0.2,1.6-0.2,2.4c0,1,0,1.8,0.1,2.4c0.1,0.6,0.2,1.2,0.5,1.7c0.3,0.5,0.7,0.9,1.2,1.3
	c0.5,0.4,1.3,0.7,2.2,1.1l5.4,2.1c1.6,0.6,2.8,1.3,3.8,2.1c1,0.8,1.7,1.7,2.3,2.8c0.5,1.1,0.9,2.4,1,3.8c0.2,1.4,0.3,3,0.3,4.8
	c0,2.1-0.2,4-0.6,5.8c-0.4,1.8-1.1,3.3-2,4.5c-1,1.3-2.2,2.3-3.8,3c-1.6,0.7-3.5,1.1-5.8,1.1c-1.7,0-3.3-0.3-4.8-0.9
	c-1.5-0.6-2.7-1.4-3.8-2.5s-1.9-2.3-2.5-3.7c-0.6-1.4-0.9-2.9-0.9-4.6v-2.6h7.1v2.2c0,1.3,0.4,2.5,1.1,3.5c0.8,1,2,1.6,3.8,1.6
	c1.2,0,2.1-0.2,2.8-0.5c0.7-0.3,1.2-0.8,1.6-1.5c0.4-0.6,0.6-1.4,0.7-2.3s0.1-1.9,0.1-3c0-1.3,0-2.4-0.1-3.2c-0.1-0.8-0.3-1.5-0.6-2
	c-0.3-0.5-0.8-0.9-1.3-1.2c-0.5-0.3-1.2-0.7-2.1-1l-5.1-2.1c-3-1.2-5.1-2.9-6.1-5c-1-2.1-1.6-4.6-1.6-7.7c0-1.8,0.3-3.6,0.8-5.3
	c0.5-1.7,1.3-3.1,2.3-4.3c1-1.2,2.2-2.2,3.7-2.9c1.5-0.7,3.3-1.1,5.4-1.1c1.8,0,3.4,0.3,4.8,1c1.5,0.6,2.7,1.5,3.8,2.6
	c2.1,2.2,3.2,4.8,3.2,7.6V1107.8z"/>
<path class="st1" d="M1129.5,1142.9v-42.7h-8.2v-6.7h23.4v6.7h-8.2v42.7H1129.5z"/>
<path class="st1" d="M1183.6,1107.8h-7.1v-1.6c0-1.6-0.4-3-1.1-4.2s-2-1.8-3.8-1.8c-1,0-1.8,0.2-2.4,0.6c-0.6,0.4-1.1,0.8-1.5,1.4
	c-0.4,0.6-0.6,1.3-0.8,2s-0.2,1.6-0.2,2.4c0,1,0,1.8,0.1,2.4c0.1,0.6,0.2,1.2,0.5,1.7c0.3,0.5,0.7,0.9,1.2,1.3
	c0.5,0.4,1.3,0.7,2.2,1.1l5.4,2.1c1.6,0.6,2.8,1.3,3.8,2.1c1,0.8,1.7,1.7,2.3,2.8c0.5,1.1,0.9,2.4,1,3.8c0.2,1.4,0.3,3,0.3,4.8
	c0,2.1-0.2,4-0.6,5.8c-0.4,1.8-1.1,3.3-2,4.5c-1,1.3-2.2,2.3-3.8,3c-1.6,0.7-3.5,1.1-5.8,1.1c-1.7,0-3.3-0.3-4.8-0.9
	c-1.5-0.6-2.7-1.4-3.8-2.5s-1.9-2.3-2.5-3.7c-0.6-1.4-0.9-2.9-0.9-4.6v-2.6h7.1v2.2c0,1.3,0.4,2.5,1.1,3.5c0.8,1,2,1.6,3.8,1.6
	c1.2,0,2.1-0.2,2.8-0.5c0.7-0.3,1.2-0.8,1.6-1.5c0.4-0.6,0.6-1.4,0.7-2.3s0.1-1.9,0.1-3c0-1.3,0-2.4-0.1-3.2c-0.1-0.8-0.3-1.5-0.6-2
	c-0.3-0.5-0.8-0.9-1.3-1.2c-0.5-0.3-1.2-0.7-2.1-1l-5.1-2.1c-3-1.2-5.1-2.9-6.1-5c-1-2.1-1.6-4.6-1.6-7.7c0-1.8,0.3-3.6,0.8-5.3
	c0.5-1.7,1.3-3.1,2.3-4.3c1-1.2,2.2-2.2,3.7-2.9c1.5-0.7,3.3-1.1,5.4-1.1c1.8,0,3.4,0.3,4.8,1c1.5,0.6,2.7,1.5,3.8,2.6
	c2.1,2.2,3.2,4.8,3.2,7.6V1107.8z"/>
<path class="st1" d="M1193.5,1142.9v-42.7h-8.2v-6.7h23.4v6.7h-8.2v42.7H1193.5z"/>
<path class="st1" d="M1204.9,1142.9l11-49.3h5.9l11,49.3h-7.1l-2.1-10.6h-9.6l-2.1,10.6H1204.9z M1222.3,1125.7l-3.5-17.9h-0.1
	l-3.5,17.9H1222.3z"/>
<path class="st1" d="M1237.1,1142.9v-42.7h-8.2v-6.7h23.4v6.7h-8.2v42.7H1237.1z"/>
<path class="st1" d="M1255.4,1142.9v-49.3h21.1v6.7h-14v14.5h12.2v6.7h-12.2v14.5h14v7.1H1255.4z"/>
<path class="st1" d="M989.8,1162.9l-10.1,49.3h-6.2l-10-49.3h7.5l5.6,34.4h0.1l5.7-34.4H989.8z"/>
<path class="st1" d="M994.2,1212.2v-49.3h7.1v49.3H994.2z"/>
<path class="st1" d="M1007.7,1174.5c0-2,0.3-3.7,1-5.3c0.7-1.5,1.6-2.8,2.8-3.8c1.1-1,2.4-1.7,3.8-2.2c1.4-0.5,2.8-0.8,4.3-0.8
	s2.9,0.3,4.3,0.8c1.4,0.5,2.7,1.2,3.8,2.2c1.1,1,2,2.3,2.7,3.8c0.7,1.5,1,3.3,1,5.3v26c0,2.1-0.3,3.9-1,5.3
	c-0.7,1.5-1.6,2.7-2.7,3.7c-1.2,1-2.4,1.8-3.8,2.3c-1.4,0.5-2.8,0.8-4.3,0.8s-2.9-0.3-4.3-0.8s-2.7-1.3-3.8-2.3
	c-1.2-1-2.1-2.2-2.8-3.7c-0.7-1.5-1-3.3-1-5.3V1174.5z M1014.8,1200.6c0,1.7,0.5,3,1.4,3.8c0.9,0.8,2.1,1.2,3.4,1.2s2.4-0.4,3.4-1.2
	c0.9-0.8,1.4-2.1,1.4-3.8v-26c0-1.7-0.5-3-1.4-3.8c-0.9-0.8-2.1-1.2-3.4-1.2s-2.4,0.4-3.4,1.2c-0.9,0.8-1.4,2.1-1.4,3.8V1200.6z"/>
<path class="st1" d="M1037.6,1212.2v-49.3h7.1v42.3h14v7.1H1037.6z"/>
<path class="st1" d="M1063.3,1212.2v-49.3h21.1v6.7h-14v14.5h12.2v6.7h-12.2v14.5h14v7.1H1063.3z"/>
<path class="st1" d="M1088.6,1212.2v-49.3h6.8l10.7,29.7h0.1v-29.7h7.1v49.3h-6.7l-10.8-29.7h-0.1v29.7H1088.6z"/>
<path class="st1" d="M1142.1,1198.1v3c0,1.5-0.3,3-0.9,4.3c-0.6,1.4-1.4,2.6-2.4,3.6c-1,1.1-2.2,1.9-3.6,2.5
	c-1.4,0.6-2.8,0.9-4.4,0.9c-1.3,0-2.7-0.2-4.1-0.6s-2.6-1-3.7-1.9s-2-2.1-2.7-3.6c-0.7-1.5-1.1-3.3-1.1-5.6v-27.2
	c0-1.6,0.3-3.1,0.8-4.5c0.6-1.4,1.3-2.6,2.4-3.6c1-1,2.2-1.8,3.6-2.4c1.4-0.6,3-0.9,4.7-0.9c3.3,0,6,1.1,8.1,3.3
	c1,1.1,1.8,2.3,2.4,3.8c0.6,1.5,0.9,3,0.9,4.7v2.8h-7.1v-2.4c0-1.4-0.4-2.6-1.2-3.6c-0.8-1-1.8-1.5-3.2-1.5c-1.8,0-2.9,0.5-3.5,1.6
	c-0.6,1.1-0.9,2.5-0.9,4.1v25.2c0,1.4,0.3,2.6,0.9,3.6c0.6,1,1.7,1.5,3.4,1.5c0.5,0,1-0.1,1.5-0.2c0.5-0.2,1-0.4,1.5-0.8
	c0.4-0.4,0.8-0.9,1-1.5c0.3-0.6,0.4-1.5,0.4-2.4v-2.4H1142.1z"/>
<path class="st1" d="M1147.9,1212.2v-49.3h21.1v6.7h-14v14.5h12.2v6.7h-12.2v14.5h14v7.1H1147.9z"/>
</svg>
