<!DOCTYPE svg PUBLIC "-//W3C//DTD SVG 20010904//EN" "http://www.w3.org/TR/2001/REC-SVG-20010904/DTD/svg10.dtd">
<svg version="1.0" xmlns="http://www.w3.org/2000/svg" width="704px" height="706px" viewBox="0 0 7040 7060" preserveAspectRatio="xMidYMid meet">
<g id="layer101" fill="#575757" stroke="none">
 <path d="M3380 6981 c-50 -4 -85 -12 -104 -25 -27 -19 -30 -19 -77 -3 -45 16 -50 16 -90 1 -44 -18 -154 -23 -219 -9 -30 6 -48 0 -115 -35 -65 -35 -89 -42 -128 -41 -54 2 -133 -30 -185 -74 -28 -24 -38 -26 -75 -21 -27 4 -57 1 -82 -8 -76 -27 -332 -156 -350 -176 -31 -35 -126 -80 -166 -80 -52 0 -65 -7 -91 -47 -17 -28 -42 -45 -114 -79 -70 -33 -109 -59 -165 -112 -45 -44 -86 -74 -110 -81 -28 -8 -46 -24 -70 -59 -17 -26 -48 -61 -68 -78 -20 -17 -58 -64 -86 -104 -36 -53 -61 -78 -90 -91 -78 -36 -120 -66 -153 -110 -19 -24 -49 -60 -67 -79 -32 -35 -87 -136 -139 -252 -14 -32 -29 -58 -35 -58 -19 0 -71 -52 -71 -72 0 -10 -13 -47 -29 -81 -67 -144 -80 -177 -86 -210 -4 -20 -16 -44 -27 -54 -23 -20 -66 -103 -93 -178 -10 -27 -32 -69 -48 -93 -28 -42 -28 -44 -14 -86 13 -37 13 -47 0 -77 -8 -19 -30 -81 -49 -139 -19 -58 -46 -122 -59 -142 -28 -43 -30 -62 -10 -98 20 -34 18 -57 -4 -89 -11 -15 -27 -55 -36 -90 l-16 -63 27 -41 27 -41 -26 -51 c-56 -108 -59 -150 -16 -191 29 -27 30 -32 25 -84 -4 -30 -13 -76 -20 -101 -13 -41 -12 -50 3 -85 18 -39 36 -247 33 -374 -1 -30 5 -82 12 -115 8 -33 17 -76 20 -96 5 -26 17 -45 46 -68 22 -18 40 -39 40 -48 0 -44 55 -255 79 -303 21 -43 26 -63 21 -91 -8 -48 -1 -64 39 -92 25 -17 40 -39 57 -88 69 -194 73 -204 114 -239 23 -21 46 -52 54 -78 9 -23 28 -61 44 -85 16 -23 39 -61 50 -83 12 -23 36 -54 53 -68 18 -15 53 -57 79 -94 26 -37 73 -91 103 -119 36 -35 57 -64 61 -85 9 -45 61 -104 121 -136 33 -18 56 -39 67 -62 22 -44 44 -60 82 -60 42 0 52 -9 61 -50 12 -57 23 -70 58 -70 54 0 75 -10 101 -50 15 -22 43 -47 71 -60 26 -12 61 -37 78 -55 18 -19 51 -38 75 -44 43 -12 61 -26 96 -76 17 -24 22 -26 65 -20 39 5 56 2 99 -20 28 -14 63 -41 78 -60 30 -40 106 -91 149 -100 40 -9 177 -56 190 -66 17 -13 157 -49 190 -49 17 0 46 -13 69 -30 34 -26 48 -30 100 -30 34 0 78 5 99 11 47 13 138 -12 179 -49 24 -22 33 -24 85 -18 38 4 74 1 103 -8 29 -9 53 -10 69 -5 13 5 54 16 91 23 74 16 126 7 217 -35 38 -19 44 -19 78 -5 29 12 59 14 141 9 92 -5 110 -4 152 14 132 58 131 57 178 45 50 -14 66 -8 102 33 19 21 29 26 50 21 73 -17 105 -17 183 0 65 14 91 25 119 50 41 37 107 57 186 55 47 -1 53 1 86 39 20 22 45 40 55 40 24 0 82 36 114 70 17 18 42 31 65 35 45 7 160 52 253 98 44 22 71 43 87 69 15 24 40 44 69 57 25 11 81 51 123 89 45 40 94 75 118 83 44 15 115 73 135 111 7 12 34 45 60 73 27 28 55 68 64 87 12 30 23 39 64 53 46 15 52 21 75 71 14 30 31 54 38 54 42 0 168 194 168 259 0 25 29 61 49 61 36 0 78 70 101 170 8 39 50 119 84 165 13 17 33 50 46 75 12 25 39 63 59 85 49 53 134 299 125 357 -6 33 -3 40 34 75 48 46 68 116 71 246 1 48 8 102 16 120 25 60 36 146 24 192 -10 38 -8 48 14 89 23 43 24 48 12 113 -7 37 -16 82 -20 99 -5 22 -1 42 13 70 23 44 29 116 18 190 -5 32 -3 67 4 93 12 44 8 57 -55 181 -32 63 -40 138 -20 188 l16 40 -41 78 c-46 88 -50 115 -26 161 23 45 20 60 -12 77 -51 26 -57 41 -43 98 12 46 12 52 -7 77 -12 14 -37 53 -58 86 -31 51 -35 66 -30 101 5 36 1 48 -28 89 -21 29 -37 65 -41 94 -7 53 -42 110 -97 161 -31 29 -38 43 -40 79 -3 41 -6 47 -48 71 -43 25 -45 28 -50 81 -5 53 -6 54 -55 79 -43 22 -55 35 -92 105 -43 79 -64 123 -76 158 -4 10 -26 26 -49 36 -49 21 -122 94 -133 131 -11 38 -34 59 -76 70 -25 7 -46 22 -60 43 -45 65 -113 127 -152 138 -32 9 -42 18 -58 55 -29 65 -107 124 -164 124 -36 0 -47 5 -64 28 -71 95 -92 117 -141 146 -55 33 -108 51 -188 65 -30 6 -55 19 -80 44 -30 29 -48 38 -87 43 -50 7 -118 39 -185 89 -29 21 -41 25 -76 19 -44 -6 -71 3 -108 38 -17 15 -30 17 -76 12 -49 -5 -59 -3 -89 20 -26 20 -47 26 -84 26 -34 0 -61 8 -93 26 -43 25 -51 26 -142 21 -133 -7 -278 9 -320 35 -35 21 -62 21 -119 -3 -28 -11 -37 -11 -68 4 -36 17 -61 18 -195 8z m762 -412 c29 -6 90 -28 135 -50 208 -99 331 -304 319 -531 -5 -90 -35 -195 -70 -248 -14 -22 -26 -43 -26 -48 0 -4 -12 -19 -27 -34 -16 -15 -39 -38 -53 -53 -35 -37 -92 -73 -175 -108 -64 -28 -80 -30 -185 -31 -63 0 -135 4 -160 8 -55 10 -179 69 -214 101 -14 13 -32 28 -40 32 -18 10 -85 97 -115 147 -51 89 -75 210 -61 321 12 106 23 140 65 209 19 32 35 61 35 64 0 3 30 35 68 71 87 86 193 139 301 150 112 12 144 12 203 0z m-1054 -44 c8 -22 20 -69 28 -104 16 -73 8 -97 -34 -107 -15 -3 -52 -13 -82 -21 -30 -8 -73 -20 -95 -26 -22 -6 -53 -17 -68 -25 -38 -18 -37 -25 29 -262 14 -47 31 -107 39 -135 40 -133 86 -329 83 -352 -3 -28 -8 -29 -166 -68 -116 -28 -121 -24 -146 87 -15 65 -23 96 -51 188 -19 63 -38 142 -60 250 -9 41 -22 91 -30 110 -13 30 -41 133 -76 270 -15 60 -11 78 19 94 16 8 118 37 228 65 109 28 219 57 244 65 25 8 63 14 85 13 37 -2 41 -5 53 -42z m-1123 -573 c90 -28 133 -50 208 -110 129 -102 207 -261 207 -425 1 -268 -193 -505 -462 -567 -64 -14 -244 -8 -262 10 -5 5 -18 10 -27 10 -41 0 -146 68 -218 141 -57 57 -82 91 -100 135 -12 32 -27 68 -32 79 -12 30 -29 133 -29 182 0 42 11 104 32 173 27 88 147 252 208 284 14 7 41 22 60 33 125 70 291 92 415 55z m3455 -15 c82 -34 116 -57 220 -151 35 -32 104 -114 127 -151 36 -58 46 -94 47 -175 1 -72 -3 -92 -23 -130 -26 -51 -130 -190 -141 -190 -4 0 -11 -8 -16 -19 -9 -18 -134 -158 -206 -230 -21 -21 -38 -42 -38 -47 0 -19 -135 -144 -156 -144 -20 0 -137 96 -186 152 -32 36 -22 68 40 133 31 33 102 109 157 169 55 60 124 132 153 162 28 29 52 57 52 60 0 4 7 15 16 25 8 9 21 37 28 61 12 38 11 48 -4 84 -21 49 -68 87 -127 105 -40 11 -45 10 -85 -16 -59 -39 -244 -227 -421 -427 -31 -36 -66 -68 -77 -71 -12 -3 -34 6 -57 24 -53 39 -152 140 -159 162 -6 19 33 65 251 302 207 225 258 272 332 306 104 48 169 49 273 6z m-4506 -1103 c175 -56 186 -70 107 -128 -100 -74 -124 -120 -125 -241 -1 -47 31 -113 77 -158 78 -78 233 -106 333 -59 57 27 110 97 126 164 10 49 3 125 -19 175 -11 27 -11 38 -2 49 17 20 29 18 159 -28 147 -53 151 -58 140 -178 -9 -100 -49 -228 -89 -281 -38 -52 -120 -139 -131 -139 -4 0 -10 -3 -12 -8 -4 -10 -147 -78 -183 -87 -42 -10 -218 -7 -246 3 -13 5 -42 15 -64 21 -230 69 -389 276 -388 506 1 85 24 197 53 255 49 98 109 168 144 170 5 0 59 -16 120 -36z m5393 14 c21 -24 78 -190 76 -221 -3 -39 -11 -43 -168 -81 -54 -13 -61 -13 -72 2 -12 14 -13 14 -13 -5 0 -28 -20 -40 -34 -21 -14 18 -46 31 -46 18 0 -6 5 -10 10 -10 6 0 10 -11 10 -23 0 -25 34 -47 72 -47 39 0 252 -42 286 -56 35 -15 40 -24 98 -181 32 -89 36 -106 25 -129 -10 -24 -15 -25 -54 -19 -41 7 -140 38 -282 89 -79 29 -120 33 -128 12 -3 -7 -9 -35 -13 -62 -8 -58 -36 -108 -83 -151 -32 -29 -56 -40 -152 -71 -96 -31 -232 0 -299 69 -43 45 -102 161 -119 239 -7 30 -34 117 -59 193 l-47 138 24 19 c23 16 115 50 221 81 25 7 52 18 60 24 8 7 22 12 30 13 20 0 489 155 520 172 25 14 72 27 101 29 8 1 25 -9 36 -21z m-3517 -12 c143 -36 270 -97 284 -138 8 -23 4 -35 -33 -87 -23 -33 -51 -82 -63 -108 -11 -26 -30 -70 -43 -98 -28 -63 -42 -128 -50 -231 -6 -85 10 -252 26 -269 5 -5 9 -20 9 -35 0 -14 9 -44 20 -68 18 -40 22 -43 52 -38 18 3 78 12 133 20 55 8 127 22 160 30 32 9 68 16 79 16 35 0 310 72 348 91 20 11 63 29 95 40 72 27 76 30 123 99 47 68 136 159 208 212 84 62 147 80 282 82 112 1 117 0 180 -32 164 -84 269 -203 374 -422 86 -180 141 -477 139 -755 -1 -179 -19 -315 -59 -450 -14 -50 -30 -103 -34 -120 -4 -16 -15 -46 -25 -65 -103 -203 -255 -351 -408 -396 -90 -26 -275 -23 -363 6 -35 12 -66 26 -70 31 -3 5 -22 18 -43 28 -56 29 -132 113 -190 211 l-53 88 -161 45 c-206 57 -357 92 -477 111 -52 9 -133 22 -180 30 -265 43 -350 52 -642 66 -114 5 -225 14 -247 20 -144 39 -235 231 -232 495 1 122 14 191 52 271 60 127 153 185 309 192 52 2 98 7 102 11 3 3 0 35 -8 71 -50 233 -69 579 -42 750 21 139 87 242 183 286 59 28 176 32 265 10z m3300 -1375 c14 -27 13 -107 -2 -118 -7 -6 -114 -16 -237 -23 -217 -13 -224 -13 -238 6 -9 12 -13 38 -11 69 3 49 3 50 43 56 22 4 105 10 185 14 80 4 147 9 149 11 2 2 26 4 52 4 38 0 51 -4 59 -19z m-4845 -1 c110 -6 210 -15 223 -20 18 -8 22 -17 22 -54 0 -75 -1 -76 -104 -76 -151 0 -380 20 -388 33 -11 18 -10 85 2 108 13 23 -5 22 245 9z m264 -427 c5 -10 12 -39 16 -64 8 -57 0 -64 -85 -73 -36 -3 -101 -13 -145 -21 -44 -8 -145 -24 -225 -36 -80 -11 -182 -27 -228 -35 -113 -21 -134 -17 -148 25 -6 19 -8 48 -5 65 6 25 13 32 41 38 52 10 481 75 588 88 51 7 105 15 120 20 43 13 61 11 71 -7z m4266 -8 c44 -7 105 -16 135 -20 30 -3 132 -19 225 -35 94 -15 191 -31 217 -35 26 -3 49 -12 52 -21 7 -19 -9 -103 -22 -116 -8 -8 -63 -3 -184 16 -95 14 -236 35 -313 46 -77 12 -178 28 -225 38 l-85 17 -3 55 c-5 84 10 88 203 55z m-157 -389 c48 -19 116 -44 151 -56 82 -27 186 -74 195 -88 3 -6 -2 -32 -12 -59 -17 -46 -20 -48 -56 -47 -21 1 -47 6 -59 12 -22 11 -179 71 -296 114 -35 13 -66 29 -68 36 -11 28 30 122 53 122 2 0 43 -15 92 -34z m-4014 -30 c13 -33 16 -53 10 -63 -5 -9 -41 -27 -79 -40 -149 -52 -212 -76 -278 -106 -80 -36 -91 -33 -117 35 -27 70 -40 61 260 175 52 19 104 39 115 44 44 18 68 6 89 -45z m343 -460 c15 -13 42 -30 58 -39 41 -21 125 -107 125 -128 0 -19 -54 -95 -103 -144 -33 -34 -107 -141 -107 -156 0 -14 45 -11 82 5 18 8 78 28 133 44 55 17 132 40 172 52 l72 21 40 -20 c22 -12 42 -25 46 -31 3 -6 49 -44 101 -85 114 -91 119 -113 34 -130 -71 -13 -287 -68 -370 -92 -47 -14 -107 -31 -135 -37 -49 -12 -50 -13 -56 -57 -3 -24 -7 -156 -7 -293 -1 -167 -6 -253 -13 -262 -17 -20 -37 -17 -62 9 -12 13 -56 48 -97 79 -101 76 -112 89 -113 140 -2 72 12 353 18 369 3 9 1 28 -5 43 l-10 27 -27 -21 c-14 -11 -31 -29 -37 -39 -65 -107 -155 -219 -184 -227 -17 -5 -34 2 -65 25 -23 17 -59 43 -80 57 -56 37 -77 61 -77 90 0 17 36 72 108 165 121 160 137 181 208 282 132 187 289 377 312 377 6 0 23 -11 39 -24z m3266 -88 c77 -28 162 -106 206 -188 61 -113 44 -210 -62 -355 -24 -33 -52 -81 -61 -107 -18 -47 -18 -47 5 -77 13 -16 31 -30 39 -30 31 -1 100 39 109 61 5 13 16 30 25 37 8 7 18 29 22 50 8 42 30 71 55 71 9 0 54 -19 98 -41 l81 -42 0 -43 c0 -54 -41 -126 -114 -202 -112 -117 -228 -168 -342 -150 -107 17 -183 66 -241 156 -69 108 -55 206 54 385 77 127 82 179 20 217 -42 26 -68 25 -110 -2 -61 -40 -82 -86 -113 -245 -4 -19 -11 -23 -39 -23 -60 0 -178 37 -201 64 -20 22 -21 29 -10 74 6 28 14 54 19 58 4 4 7 17 7 28 1 42 78 144 156 205 149 118 266 147 397 99z m-2170 -529 c162 -41 172 -48 155 -124 -5 -22 -18 -76 -28 -120 -25 -107 -74 -319 -75 -325 0 -3 -6 -25 -12 -50 -11 -38 -42 -175 -72 -310 -29 -129 -41 -144 -107 -130 -142 30 -201 45 -211 53 -20 15 -16 58 21 211 19 77 40 164 46 191 6 28 20 88 31 135 11 47 31 137 44 200 34 165 55 251 66 272 13 23 41 23 142 -3z m1172 -58 c195 -83 302 -277 291 -533 -5 -113 -25 -182 -73 -251 -38 -54 -152 -155 -200 -176 -66 -30 -280 -82 -492 -121 -55 -10 -66 -9 -79 4 -15 15 -35 76 -47 141 -3 17 -10 53 -15 80 -10 51 -38 220 -45 265 -9 60 -12 78 -19 88 -4 7 -9 33 -12 59 -8 80 -41 279 -60 355 -8 36 7 43 173 74 257 48 296 53 403 49 89 -3 116 -9 175 -34z"/>
 <path d="M3983 6299 c-111 -21 -189 -132 -200 -281 -5 -77 -3 -90 18 -133 36 -73 98 -131 145 -138 21 -4 56 -9 77 -13 25 -4 48 -1 71 10 19 9 39 16 44 16 18 0 101 93 123 138 13 27 23 71 26 121 5 69 3 85 -17 123 -37 71 -76 113 -132 141 -55 28 -83 31 -155 16z"/>
 <path d="M3690 6239 c0 -5 5 -7 10 -4 6 3 10 8 10 11 0 2 -4 4 -10 4 -5 0 -10 -5 -10 -11z"/>
 <path d="M4420 6150 c0 -7 3 -10 7 -7 3 4 3 10 0 14 -4 3 -7 0 -7 -7z"/>
 <path d="M4403 6093 c4 -3 10 -3 14 0 3 4 0 7 -7 7 -7 0 -10 -3 -7 -7z"/>
 <path d="M3645 6040 c3 -5 8 -10 11 -10 2 0 4 5 4 10 0 6 -5 10 -11 10 -5 0 -7 -4 -4 -10z"/>
 <path d="M3803 5673 c4 -3 10 -3 14 0 3 4 0 7 -7 7 -7 0 -10 -3 -7 -7z"/>
 <path d="M3883 5653 c4 -3 10 -3 14 0 3 4 0 7 -7 7 -7 0 -10 -3 -7 -7z"/>
 <path d="M4003 5633 c4 -3 10 -3 14 0 3 4 0 7 -7 7 -7 0 -10 -3 -7 -7z"/>
 <path d="M4080 5620 c0 -5 5 -10 10 -10 6 0 10 5 10 10 0 6 -4 10 -10 10 -5 0 -10 -4 -10 -10z"/>
 <path d="M2730 6340 c0 -5 5 -10 10 -10 6 0 10 5 10 10 0 6 -4 10 -10 10 -5 0 -10 -4 -10 -10z"/>
 <path d="M2688 6333 c6 -2 18 -2 25 0 6 3 1 5 -13 5 -14 0 -19 -2 -12 -5z"/>
 <path d="M2658 6263 c7 -3 16 -2 19 1 4 3 -2 6 -13 5 -11 0 -14 -3 -6 -6z"/>
 <path d="M2678 6163 c7 -3 16 -2 19 1 4 3 -2 6 -13 5 -11 0 -14 -3 -6 -6z"/>
 <path d="M1671 5648 c-83 -42 -122 -102 -129 -195 -6 -89 25 -153 124 -255 51 -52 199 -83 265 -55 18 8 56 34 82 58 37 35 51 56 62 99 26 96 -1 201 -73 277 -62 65 -115 92 -200 99 -62 5 -72 3 -131 -28z"/>
 <path d="M1433 5263 c4 -3 10 -3 14 0 3 4 0 7 -7 7 -7 0 -10 -3 -7 -7z"/>
 <path d="M2165 5220 c-3 -5 -1 -10 4 -10 6 0 11 5 11 10 0 6 -2 10 -4 10 -3 0 -8 -4 -11 -10z"/>
 <path d="M1950 5019 c0 -5 5 -7 10 -4 6 3 10 8 10 11 0 2 -4 4 -10 4 -5 0 -10 -5 -10 -11z"/>
 <path d="M5610 5450 c0 -5 5 -10 11 -10 5 0 7 5 4 10 -3 6 -8 10 -11 10 -2 0 -4 -4 -4 -10z"/>
 <path d="M5570 5411 c0 -5 5 -13 10 -16 6 -3 10 -2 10 4 0 5 -4 13 -10 16 -5 3 -10 2 -10 -4z"/>
 <path d="M4840 5370 c0 -5 5 -10 11 -10 5 0 7 5 4 10 -3 6 -8 10 -11 10 -2 0 -4 -4 -4 -10z"/>
 <path d="M5480 5130 c0 -5 5 -10 11 -10 5 0 7 5 4 10 -3 6 -8 10 -11 10 -2 0 -4 -4 -4 -10z"/>
 <path d="M740 4380 c0 -5 5 -10 10 -10 6 0 10 5 10 10 0 6 -4 10 -10 10 -5 0 -10 -4 -10 -10z"/>
 <path d="M820 4319 c0 -5 5 -7 10 -4 6 3 10 8 10 11 0 2 -4 4 -10 4 -5 0 -10 -5 -10 -11z"/>
 <path d="M710 4310 c0 -7 3 -10 7 -7 3 4 3 10 0 14 -4 3 -7 0 -7 -7z"/>
 <path d="M1493 4233 c4 -3 10 -3 14 0 3 4 0 7 -7 7 -7 0 -10 -3 -7 -7z"/>
 <path d="M920 4170 c0 -7 3 -10 7 -7 3 4 3 10 0 14 -4 3 -7 0 -7 -7z"/>
 <path d="M6090 4650 c0 -7 3 -10 7 -7 3 4 3 10 0 14 -4 3 -7 0 -7 -7z"/>
 <path d="M6053 4603 c4 -3 10 -3 14 0 3 4 0 7 -7 7 -7 0 -10 -3 -7 -7z"/>
 <path d="M5905 4590 c3 -5 8 -10 11 -10 2 0 4 5 4 10 0 6 -5 10 -11 10 -5 0 -7 -4 -4 -10z"/>
 <path d="M5958 4562 c-6 -24 -3 -37 10 -51 9 -10 22 -26 29 -37 11 -18 12 -18 12 3 1 12 -8 30 -18 40 -11 10 -21 32 -23 48 l-3 30 -7 -33z"/>
 <path d="M5710 4550 c0 -19 3 -21 12 -12 9 9 9 15 0 24 -9 9 -12 7 -12 -12z"/>
 <path d="M5630 4490 c0 -7 3 -10 7 -7 3 4 3 10 0 14 -4 3 -7 0 -7 -7z"/>
 <path d="M5930 4488 c0 -7 5 -20 10 -28 8 -12 10 -11 10 7 0 12 -4 25 -10 28 -5 3 -10 0 -10 -7z"/>
 <path d="M5740 4481 c0 -5 5 -13 10 -16 6 -3 10 -2 10 4 0 5 -4 13 -10 16 -5 3 -10 2 -10 -4z"/>
 <path d="M5840 4450 c0 -5 5 -10 11 -10 5 0 7 5 4 10 -3 6 -8 10 -11 10 -2 0 -4 -4 -4 -10z"/>
 <path d="M6110 4440 c0 -7 3 -10 7 -7 3 4 3 10 0 14 -4 3 -7 0 -7 -7z"/>
 <path d="M5995 4420 c10 -11 23 -20 28 -20 6 0 2 9 -8 20 -10 11 -23 20 -28 20 -6 0 -2 -9 8 -20z"/>
 <path d="M5725 4389 c-44 -15 -84 -34 -89 -42 -16 -25 4 -89 38 -123 41 -41 88 -51 139 -29 70 29 94 102 61 185 -20 49 -33 50 -149 9z"/>
 <path d="M6070 4400 c0 -7 3 -10 7 -7 3 4 3 10 0 14 -4 3 -7 0 -7 -7z"/>
 <path d="M5980 4370 c0 -12 29 -45 35 -39 2 2 -5 15 -16 28 -10 13 -19 18 -19 11z"/>
 <path d="M6035 4370 c3 -5 8 -10 11 -10 2 0 4 5 4 10 0 6 -5 10 -11 10 -5 0 -7 -4 -4 -10z"/>
 <path d="M5995 4280 c3 -5 11 -10 16 -10 6 0 7 5 4 10 -3 6 -11 10 -16 10 -6 0 -7 -4 -4 -10z"/>
 <path d="M5930 4211 c0 -5 5 -13 10 -16 6 -3 10 -2 10 4 0 5 -4 13 -10 16 -5 3 -10 2 -10 -4z"/>
 <path d="M5695 4140 c3 -5 8 -10 11 -10 2 0 4 5 4 10 0 6 -5 10 -11 10 -5 0 -7 -4 -4 -10z"/>
 <path d="M3719 3653 c-15 -17 -24 -301 -24 -723 l0 -195 75 -7 c41 -3 125 -6 185 -6 143 -1 149 -1 225 -6 89 -6 97 2 99 107 0 45 -3 89 -9 97 -7 12 -37 16 -137 18 -179 4 -173 1 -173 66 0 77 8 81 154 78 67 -1 127 2 135 7 10 6 16 35 18 88 7 115 4 117 -149 121 -71 2 -129 8 -137 15 -10 9 -11 30 -6 95 4 46 7 118 7 160 -1 99 -4 102 -143 102 -87 0 -109 -3 -120 -17z m108 -290 c-4 -3 -10 -3 -14 0 -3 4 0 7 7 7 7 0 10 -3 7 -7z m106 -110 c-7 -2 -19 -2 -25 0 -7 3 -2 5 12 5 14 0 19 -2 13 -5z m-56 -19 c-3 -3 -12 -4 -19 -1 -8 3 -5 6 6 6 11 1 17 -2 13 -5z m53 -114 c0 -5 -4 -10 -10 -10 -5 0 -10 5 -10 10 0 6 5 10 10 10 6 0 10 -4 10 -10z m-3 -46 c-3 -3 -12 -4 -19 -1 -8 3 -5 6 6 6 11 1 17 -2 13 -5z m-100 -50 c-3 -3 -12 -4 -19 -1 -8 3 -5 6 6 6 11 1 17 -2 13 -5z"/>
 <path d="M3086 3578 c-83 -24 -159 -77 -208 -145 -44 -62 -55 -90 -68 -167 -29 -180 78 -352 255 -411 185 -61 380 18 470 191 28 53 30 65 30 163 0 93 -3 113 -26 161 -48 102 -131 174 -238 206 -82 24 -137 25 -215 2z m184 -193 c81 -42 114 -162 72 -258 -30 -67 -89 -107 -159 -107 -48 0 -57 4 -97 40 -104 96 -83 280 39 336 35 17 101 11 145 -11z"/>
 <path d="M1835 1770 c3 -5 8 -10 11 -10 2 0 4 5 4 10 0 6 -5 10 -11 10 -5 0 -7 -4 -4 -10z"/>
 <path d="M1809 1710 c-1 -11 -2 -25 -3 -32 -1 -6 4 -13 11 -15 7 -3 11 9 10 31 -1 38 -16 50 -18 16z"/>
 <path d="M1865 1687 c-5 -11 -1 -25 9 -36 15 -17 22 -41 11 -41 -4 0 -20 7 -36 16 -24 12 -34 13 -45 3 -9 -7 -29 -9 -55 -5 l-41 7 34 -47 c34 -45 37 -47 94 -51 43 -3 64 -9 76 -23 19 -23 40 -26 32 -5 -10 26 -67 53 -100 48 -36 -6 -74 11 -74 32 0 18 13 19 54 4 44 -15 86 2 86 35 0 14 -5 28 -11 31 -6 4 -14 17 -19 29 -7 19 -9 19 -15 3z"/>
 <path d="M1720 1670 c0 -5 5 -10 11 -10 5 0 7 5 4 10 -3 6 -8 10 -11 10 -2 0 -4 -4 -4 -10z"/>
 <path d="M1755 1670 c-7 -12 2 -30 16 -30 5 0 9 9 9 20 0 21 -15 27 -25 10z"/>
 <path d="M2005 1550 c3 -5 8 -10 11 -10 2 0 4 5 4 10 0 6 -5 10 -11 10 -5 0 -7 -4 -4 -10z"/>
 <path d="M1660 1530 c8 -5 20 -10 25 -10 6 0 3 5 -5 10 -8 5 -19 10 -25 10 -5 0 -3 -5 5 -10z"/>
 <path d="M1720 1525 c0 -8 7 -15 15 -15 9 0 12 6 9 15 -4 8 -10 15 -15 15 -5 0 -9 -7 -9 -15z"/>
 <path d="M1970 1521 c0 -5 5 -13 10 -16 6 -3 10 -2 10 4 0 5 -4 13 -10 16 -5 3 -10 2 -10 -4z"/>
 <path d="M1780 1513 c0 -19 25 -33 57 -33 23 0 35 -5 39 -17 10 -31 20 -47 35 -51 10 -4 9 0 -3 15 -10 11 -18 32 -18 48 0 26 -2 27 -34 22 -22 -3 -41 0 -55 9 -12 8 -21 11 -21 7z"/>
 <path d="M1550 1482 c0 -10 60 -36 67 -28 4 3 -1 6 -9 6 -9 0 -21 7 -28 15 -13 16 -30 20 -30 7z"/>
 <path d="M1700 1470 c20 -13 33 -13 25 0 -3 6 -14 10 -23 10 -15 0 -15 -2 -2 -10z"/>
 <path d="M1930 1460 c0 -5 5 -10 11 -10 5 0 7 5 4 10 -3 6 -8 10 -11 10 -2 0 -4 -4 -4 -10z"/>
 <path d="M1802 1425 c2 -13 12 -21 28 -22 14 -1 18 0 10 3 -8 4 -21 14 -28 23 -13 14 -13 14 -10 -4z"/>
 <path d="M1823 1353 c4 -3 10 -3 14 0 3 4 0 7 -7 7 -7 0 -10 -3 -7 -7z"/>
 <path d="M5130 1850 c0 -7 3 -10 7 -7 3 4 3 10 0 14 -4 3 -7 0 -7 -7z"/>
 <path d="M5163 1803 c4 -3 10 -3 14 0 3 4 0 7 -7 7 -7 0 -10 -3 -7 -7z"/>
 <path d="M5225 1740 c-3 -5 -1 -10 4 -10 6 0 11 5 11 10 0 6 -2 10 -4 10 -3 0 -8 -4 -11 -10z"/>
 <path d="M5273 1453 c4 -3 10 -3 14 0 3 4 0 7 -7 7 -7 0 -10 -3 -7 -7z"/>
 <path d="M5180 1359 c0 -5 5 -7 10 -4 6 3 10 8 10 11 0 2 -4 4 -10 4 -5 0 -10 -5 -10 -11z"/>
 <path d="M5221 1323 c-13 -13 -20 -23 -14 -23 11 0 49 38 42 43 -2 2 -15 -7 -28 -20z"/>
 <path d="M5280 1280 c0 -5 4 -10 9 -10 6 0 13 5 16 10 3 6 -1 10 -9 10 -9 0 -16 -4 -16 -10z"/>
 <path d="M2985 1280 c3 -5 11 -10 16 -10 6 0 7 5 4 10 -3 6 -11 10 -16 10 -6 0 -7 -4 -4 -10z"/>
 <path d="M2858 723 c7 -3 16 -2 19 1 4 3 -2 6 -13 5 -11 0 -14 -3 -6 -6z"/>
 <path d="M2940 700 c0 -7 3 -10 7 -7 3 4 3 10 0 14 -4 3 -7 0 -7 -7z"/>
 <path d="M3985 1360 c-3 -5 -1 -10 4 -10 6 0 11 5 11 10 0 6 -2 10 -4 10 -3 0 -8 -4 -11 -10z"/>
 <path d="M3788 1323 c7 -3 16 -2 19 1 4 3 -2 6 -13 5 -11 0 -14 -3 -6 -6z"/>
 <path d="M3700 1300 c19 -13 30 -13 30 0 0 6 -10 10 -22 10 -19 0 -20 -2 -8 -10z"/>
 <path d="M3867 1240 c-20 -4 -40 -10 -44 -13 -12 -13 -5 -94 11 -125 9 -17 16 -41 16 -54 1 -13 10 -66 21 -118 11 -52 26 -122 32 -155 l12 -60 41 1 c70 1 154 52 204 124 20 28 25 47 26 110 2 157 -64 261 -185 287 -63 13 -80 14 -134 3z"/>
 <path d="M3750 1220 c-13 -8 -12 -10 3 -10 9 0 17 5 17 10 0 12 -1 12 -20 0z"/>
 <path d="M4373 1163 c4 -3 10 -3 14 0 3 4 0 7 -7 7 -7 0 -10 -3 -7 -7z"/>
 <path d="M3655 1150 c-30 -8 -30 -8 8 -9 23 -1 36 3 32 9 -3 6 -7 9 -8 9 -1 -1 -15 -5 -32 -9z"/>
 <path d="M4280 1030 c0 -7 3 -10 7 -7 3 4 3 10 0 14 -4 3 -7 0 -7 -7z"/>
 <path d="M4303 883 c4 -3 10 -3 14 0 3 4 0 7 -7 7 -7 0 -10 -3 -7 -7z"/>
 <path d="M4320 830 c0 -7 3 -10 7 -7 3 4 3 10 0 14 -4 3 -7 0 -7 -7z"/>
 <path d="M3783 653 c4 -3 10 -3 14 0 3 4 0 7 -7 7 -7 0 -10 -3 -7 -7z"/>
 <path d="M3853 643 c4 -3 10 -3 14 0 3 4 0 7 -7 7 -7 0 -10 -3 -7 -7z"/>
 <path d="M3880 599 c0 -5 5 -7 10 -4 6 3 10 8 10 11 0 2 -4 4 -10 4 -5 0 -10 -5 -10 -11z"/>
 <path d="M3800 560 c0 -7 3 -10 7 -7 3 4 3 10 0 14 -4 3 -7 0 -7 -7z"/>
 </g>

</svg>
