<?xml version="1.0" encoding="UTF-8" standalone="no"?>
<!DOCTYPE svg PUBLIC "-//W3C//DTD SVG 1.1//EN" "http://www.w3.org/Graphics/SVG/1.1/DTD/svg11.dtd">
<svg width="100%" height="100%" viewBox="0 0 1080 950" version="1.1" xmlns="http://www.w3.org/2000/svg" xmlns:xlink="http://www.w3.org/1999/xlink" xml:space="preserve" xmlns:serif="http://www.serif.com/" style="fill-rule:evenodd;clip-rule:evenodd;stroke-linejoin:round;stroke-miterlimit:2;">
    <rect id="Background" x="0" y="0" width="1080" height="950"/>
    <g id="border">
        <g transform="matrix(1,0,0,0.997361,0,0)">
            <rect x="0" y="0" width="50" height="952.514" style="fill: #575757;"/>
        </g>
        <g transform="matrix(1,0,0,0.997361,1030,0)">
            <rect x="0" y="0" width="50" height="952.514" style="fill: #575757;"/>
        </g>
        <g transform="matrix(6.12323e-17,-1,1.05642,6.46872e-17,33.7432,50)">
            <rect x="0" y="0" width="50" height="952.514" style="fill: #575757;"/>
        </g>
    </g>
    <g id="Description" transform="matrix(1,0,0,1,12.5938,-178.875)">
        <g transform="matrix(96,0,0,96,108.64,730)">
            <path d="M0.272,-0.26L0.201,-0.26L0.201,0L0.058,0L0.058,-0.711L0.287,-0.711C0.359,-0.711 0.414,-0.692 0.453,-0.655C0.493,-0.618 0.512,-0.565 0.512,-0.496C0.512,-0.402 0.478,-0.336 0.409,-0.298L0.534,-0.007L0.534,0L0.379,0L0.272,-0.26ZM0.201,-0.379L0.283,-0.379C0.311,-0.379 0.333,-0.389 0.347,-0.408C0.361,-0.427 0.369,-0.452 0.369,-0.484C0.369,-0.556 0.341,-0.591 0.285,-0.591L0.201,-0.591L0.201,-0.379Z" style="fill-rule:nonzero; fill: #575757;"/>
        </g>
        <g transform="matrix(96,0,0,96,179.076,730)">
            <path d="M0.396,-0.146L0.201,-0.146L0.163,0L0.011,0L0.233,-0.711L0.364,-0.711L0.588,0L0.435,0L0.396,-0.146ZM0.232,-0.265L0.365,-0.265L0.298,-0.519L0.232,-0.265Z" style="fill-rule:nonzero; fill: #575757;"/>
        </g>
        <g transform="matrix(96,0,0,96,252.7,730)">
            <path d="M0.539,-0.237C0.535,-0.156 0.513,-0.094 0.471,-0.053C0.429,-0.011 0.369,0.01 0.293,0.01C0.213,0.01 0.151,-0.017 0.108,-0.07C0.065,-0.122 0.044,-0.198 0.044,-0.296L0.044,-0.416C0.044,-0.513 0.066,-0.588 0.11,-0.641C0.155,-0.694 0.216,-0.721 0.295,-0.721C0.372,-0.721 0.431,-0.699 0.471,-0.656C0.512,-0.612 0.535,-0.55 0.54,-0.469L0.396,-0.469C0.395,-0.519 0.387,-0.554 0.373,-0.573C0.359,-0.592 0.333,-0.602 0.295,-0.602C0.257,-0.602 0.229,-0.588 0.213,-0.561C0.197,-0.534 0.189,-0.49 0.188,-0.429L0.188,-0.294C0.188,-0.224 0.196,-0.175 0.212,-0.149C0.227,-0.123 0.255,-0.109 0.293,-0.109C0.331,-0.109 0.357,-0.119 0.371,-0.137C0.385,-0.155 0.394,-0.189 0.396,-0.237L0.539,-0.237Z" style="fill-rule:nonzero; fill: #575757;"/>
        </g>
        <g transform="matrix(96,0,0,96,324.73,730)">
            <path d="M0.424,-0.308L0.201,-0.308L0.201,-0.119L0.465,-0.119L0.465,0L0.057,0L0.057,-0.711L0.464,-0.711L0.464,-0.591L0.201,-0.591L0.201,-0.423L0.424,-0.423L0.424,-0.308Z" style="fill-rule:nonzero; fill: #575757;"/>
        </g>
        <g transform="matrix(96,0,0,96,389.119,730)">
            <path d="M0.091,0.179L0.018,0.141L0.036,0.106C0.057,0.068 0.068,0.029 0.068,-0.01L0.068,-0.12L0.188,-0.12L0.188,-0.022C0.188,0.013 0.179,0.048 0.162,0.085C0.144,0.123 0.121,0.154 0.091,0.179Z" style="fill-rule:nonzero; fill: #575757;"/>
        </g>
        <g transform="matrix(96,0,0,96,469.382,730)">
            <path d="M0.272,-0.26L0.201,-0.26L0.201,0L0.058,0L0.058,-0.711L0.287,-0.711C0.359,-0.711 0.414,-0.692 0.453,-0.655C0.493,-0.618 0.512,-0.565 0.512,-0.496C0.512,-0.402 0.478,-0.336 0.409,-0.298L0.534,-0.007L0.534,0L0.379,0L0.272,-0.26ZM0.201,-0.379L0.283,-0.379C0.311,-0.379 0.333,-0.389 0.347,-0.408C0.361,-0.427 0.369,-0.452 0.369,-0.484C0.369,-0.556 0.341,-0.591 0.285,-0.591L0.201,-0.591L0.201,-0.379Z" style="fill-rule:nonzero; fill: #575757;"/>
        </g>
        <g transform="matrix(96,0,0,96,539.819,730)">
            <path d="M0.558,-0.292C0.558,-0.196 0.535,-0.122 0.49,-0.069C0.445,-0.017 0.382,0.01 0.302,0.01C0.222,0.01 0.16,-0.016 0.114,-0.069C0.069,-0.121 0.046,-0.194 0.045,-0.288L0.045,-0.41C0.045,-0.507 0.068,-0.584 0.113,-0.638C0.158,-0.693 0.221,-0.721 0.301,-0.721C0.38,-0.721 0.443,-0.694 0.488,-0.64C0.534,-0.586 0.557,-0.51 0.558,-0.413L0.558,-0.292ZM0.414,-0.411C0.414,-0.475 0.404,-0.522 0.386,-0.554C0.368,-0.585 0.34,-0.601 0.301,-0.601C0.263,-0.601 0.235,-0.586 0.217,-0.555C0.199,-0.525 0.189,-0.479 0.188,-0.418L0.188,-0.292C0.188,-0.229 0.198,-0.184 0.216,-0.154C0.235,-0.125 0.264,-0.11 0.302,-0.11C0.34,-0.11 0.368,-0.124 0.386,-0.153C0.404,-0.182 0.413,-0.227 0.414,-0.287L0.414,-0.411Z" style="fill-rule:nonzero; fill: #575757;"/>
        </g>
        <g transform="matrix(96,0,0,96,615.036,730)">
            <path d="M0.558,-0.292C0.558,-0.196 0.535,-0.122 0.49,-0.069C0.445,-0.017 0.382,0.01 0.302,0.01C0.222,0.01 0.16,-0.016 0.114,-0.069C0.069,-0.121 0.046,-0.194 0.045,-0.288L0.045,-0.41C0.045,-0.507 0.068,-0.584 0.113,-0.638C0.158,-0.693 0.221,-0.721 0.301,-0.721C0.38,-0.721 0.443,-0.694 0.488,-0.64C0.534,-0.586 0.557,-0.51 0.558,-0.413L0.558,-0.292ZM0.414,-0.411C0.414,-0.475 0.404,-0.522 0.386,-0.554C0.368,-0.585 0.34,-0.601 0.301,-0.601C0.263,-0.601 0.235,-0.586 0.217,-0.555C0.199,-0.525 0.189,-0.479 0.188,-0.418L0.188,-0.292C0.188,-0.229 0.198,-0.184 0.216,-0.154C0.235,-0.125 0.264,-0.11 0.302,-0.11C0.34,-0.11 0.368,-0.124 0.386,-0.153C0.404,-0.182 0.413,-0.227 0.414,-0.287L0.414,-0.411Z" style="fill-rule:nonzero; fill: #575757;"/>
        </g>
        <g transform="matrix(96,0,0,96,686.269,730)">
            <path d="M0.518,-0.591L0.342,-0.591L0.342,0L0.198,0L0.198,-0.591L0.025,-0.591L0.025,-0.711L0.518,-0.711L0.518,-0.591Z" style="fill-rule:nonzero; fill: #575757;"/>
        </g>
        <g transform="matrix(96,0,0,96,754.924,730)">
            <path d="M0.357,-0.187C0.357,-0.215 0.35,-0.237 0.335,-0.252C0.32,-0.267 0.293,-0.282 0.254,-0.298C0.183,-0.325 0.132,-0.357 0.101,-0.393C0.069,-0.43 0.054,-0.472 0.054,-0.522C0.054,-0.582 0.075,-0.63 0.117,-0.666C0.16,-0.703 0.214,-0.721 0.279,-0.721C0.323,-0.721 0.362,-0.712 0.396,-0.693C0.43,-0.675 0.456,-0.649 0.475,-0.615C0.493,-0.582 0.502,-0.544 0.502,-0.501L0.359,-0.501C0.359,-0.534 0.352,-0.559 0.338,-0.577C0.324,-0.594 0.304,-0.603 0.277,-0.603C0.252,-0.603 0.232,-0.596 0.218,-0.581C0.204,-0.566 0.197,-0.546 0.197,-0.521C0.197,-0.501 0.205,-0.484 0.221,-0.468C0.236,-0.452 0.264,-0.436 0.304,-0.419C0.373,-0.394 0.423,-0.363 0.455,-0.327C0.486,-0.29 0.502,-0.244 0.502,-0.188C0.502,-0.126 0.482,-0.077 0.443,-0.042C0.403,-0.008 0.35,0.01 0.282,0.01C0.236,0.01 0.194,0 0.157,-0.019C0.119,-0.037 0.089,-0.064 0.068,-0.1C0.047,-0.135 0.036,-0.176 0.036,-0.224L0.18,-0.224C0.18,-0.183 0.188,-0.153 0.204,-0.135C0.22,-0.116 0.246,-0.107 0.282,-0.107C0.332,-0.107 0.357,-0.133 0.357,-0.187Z" style="fill-rule:nonzero; fill: #575757;"/>
        </g>
        <g transform="matrix(96,0,0,96,863.453,730)">
            <path d="M0.035,-0.191C0.035,-0.225 0.043,-0.255 0.058,-0.282C0.073,-0.31 0.101,-0.34 0.143,-0.375C0.125,-0.403 0.111,-0.43 0.101,-0.455C0.09,-0.48 0.085,-0.506 0.085,-0.533C0.085,-0.589 0.1,-0.634 0.131,-0.669C0.162,-0.703 0.204,-0.721 0.255,-0.721C0.302,-0.721 0.34,-0.705 0.37,-0.673C0.4,-0.641 0.416,-0.601 0.416,-0.555C0.416,-0.493 0.39,-0.441 0.338,-0.4L0.299,-0.368L0.39,-0.241C0.402,-0.274 0.407,-0.31 0.407,-0.349L0.524,-0.349C0.524,-0.258 0.506,-0.184 0.47,-0.128L0.562,0L0.405,0L0.379,-0.037C0.337,-0.006 0.288,0.01 0.233,0.01C0.174,0.01 0.125,-0.009 0.089,-0.045C0.053,-0.082 0.035,-0.131 0.035,-0.191ZM0.241,-0.104C0.266,-0.104 0.291,-0.113 0.313,-0.13L0.201,-0.289L0.198,-0.286C0.182,-0.261 0.174,-0.232 0.174,-0.2C0.174,-0.172 0.18,-0.15 0.193,-0.132C0.206,-0.114 0.222,-0.104 0.241,-0.104ZM0.208,-0.536C0.208,-0.513 0.219,-0.484 0.241,-0.451L0.264,-0.468C0.278,-0.479 0.288,-0.49 0.293,-0.501C0.299,-0.512 0.302,-0.527 0.302,-0.546C0.302,-0.563 0.298,-0.577 0.288,-0.589C0.279,-0.6 0.268,-0.606 0.255,-0.606C0.241,-0.606 0.229,-0.6 0.221,-0.587C0.212,-0.574 0.208,-0.557 0.208,-0.536Z" style="fill-rule:nonzero; fill: #575757;"/>
        </g>
        <g transform="matrix(96,0,0,96,188.888,858)">
            <path d="M0.272,-0.26L0.201,-0.26L0.201,0L0.058,0L0.058,-0.711L0.287,-0.711C0.359,-0.711 0.414,-0.692 0.453,-0.655C0.493,-0.618 0.512,-0.565 0.512,-0.496C0.512,-0.402 0.478,-0.336 0.409,-0.298L0.534,-0.007L0.534,0L0.379,0L0.272,-0.26ZM0.201,-0.379L0.283,-0.379C0.311,-0.379 0.333,-0.389 0.347,-0.408C0.361,-0.427 0.369,-0.452 0.369,-0.484C0.369,-0.556 0.341,-0.591 0.285,-0.591L0.201,-0.591L0.201,-0.379Z" style="fill-rule:nonzero; fill: #575757;"/>
        </g>
        <g transform="matrix(96,0,0,96,259.324,858)">
            <path d="M0.424,-0.308L0.201,-0.308L0.201,-0.119L0.465,-0.119L0.465,0L0.057,0L0.057,-0.711L0.464,-0.711L0.464,-0.591L0.201,-0.591L0.201,-0.423L0.424,-0.423L0.424,-0.308Z" style="fill-rule:nonzero; fill: #575757;"/>
        </g>
        <g transform="matrix(96,0,0,96,323.714,858)">
            <path d="M0.357,-0.187C0.357,-0.215 0.35,-0.237 0.335,-0.252C0.32,-0.267 0.293,-0.282 0.254,-0.298C0.183,-0.325 0.132,-0.357 0.101,-0.393C0.069,-0.43 0.054,-0.472 0.054,-0.522C0.054,-0.582 0.075,-0.63 0.117,-0.666C0.16,-0.703 0.214,-0.721 0.279,-0.721C0.323,-0.721 0.362,-0.712 0.396,-0.693C0.43,-0.675 0.456,-0.649 0.475,-0.615C0.493,-0.582 0.502,-0.544 0.502,-0.501L0.359,-0.501C0.359,-0.534 0.352,-0.559 0.338,-0.577C0.324,-0.594 0.304,-0.603 0.277,-0.603C0.252,-0.603 0.232,-0.596 0.218,-0.581C0.204,-0.566 0.197,-0.546 0.197,-0.521C0.197,-0.501 0.205,-0.484 0.221,-0.468C0.236,-0.452 0.264,-0.436 0.304,-0.419C0.373,-0.394 0.423,-0.363 0.455,-0.327C0.486,-0.29 0.502,-0.244 0.502,-0.188C0.502,-0.126 0.482,-0.077 0.443,-0.042C0.403,-0.008 0.35,0.01 0.282,0.01C0.236,0.01 0.194,0 0.157,-0.019C0.119,-0.037 0.089,-0.064 0.068,-0.1C0.047,-0.135 0.036,-0.176 0.036,-0.224L0.18,-0.224C0.18,-0.183 0.188,-0.153 0.204,-0.135C0.22,-0.116 0.246,-0.107 0.282,-0.107C0.332,-0.107 0.357,-0.133 0.357,-0.187Z" style="fill-rule:nonzero; fill: #575757;"/>
        </g>
        <g transform="matrix(96,0,0,96,392.837,858)">
            <rect x="0.063" y="-0.711" width="0.144" height="0.711" style="fill-rule:nonzero; fill: #575757;"/>
        </g>
        <g transform="matrix(96,0,0,96,436.086,858)">
            <path d="M0.357,-0.187C0.357,-0.215 0.35,-0.237 0.335,-0.252C0.32,-0.267 0.293,-0.282 0.254,-0.298C0.183,-0.325 0.132,-0.357 0.101,-0.393C0.069,-0.43 0.054,-0.472 0.054,-0.522C0.054,-0.582 0.075,-0.63 0.117,-0.666C0.16,-0.703 0.214,-0.721 0.279,-0.721C0.323,-0.721 0.362,-0.712 0.396,-0.693C0.43,-0.675 0.456,-0.649 0.475,-0.615C0.493,-0.582 0.502,-0.544 0.502,-0.501L0.359,-0.501C0.359,-0.534 0.352,-0.559 0.338,-0.577C0.324,-0.594 0.304,-0.603 0.277,-0.603C0.252,-0.603 0.232,-0.596 0.218,-0.581C0.204,-0.566 0.197,-0.546 0.197,-0.521C0.197,-0.501 0.205,-0.484 0.221,-0.468C0.236,-0.452 0.264,-0.436 0.304,-0.419C0.373,-0.394 0.423,-0.363 0.455,-0.327C0.486,-0.29 0.502,-0.244 0.502,-0.188C0.502,-0.126 0.482,-0.077 0.443,-0.042C0.403,-0.008 0.35,0.01 0.282,0.01C0.236,0.01 0.194,0 0.157,-0.019C0.119,-0.037 0.089,-0.064 0.068,-0.1C0.047,-0.135 0.036,-0.176 0.036,-0.224L0.18,-0.224C0.18,-0.183 0.188,-0.153 0.204,-0.135C0.22,-0.116 0.246,-0.107 0.282,-0.107C0.332,-0.107 0.357,-0.133 0.357,-0.187Z" style="fill-rule:nonzero; fill: #575757;"/>
        </g>
        <g transform="matrix(96,0,0,96,505.21,858)">
            <path d="M0.518,-0.591L0.342,-0.591L0.342,0L0.198,0L0.198,-0.591L0.025,-0.591L0.025,-0.711L0.518,-0.711L0.518,-0.591Z" style="fill-rule:nonzero; fill: #575757;"/>
        </g>
        <g transform="matrix(96,0,0,96,568.99,858)">
            <path d="M0.396,-0.146L0.201,-0.146L0.163,0L0.011,0L0.233,-0.711L0.364,-0.711L0.588,0L0.435,0L0.396,-0.146ZM0.232,-0.265L0.365,-0.265L0.298,-0.519L0.232,-0.265Z" style="fill-rule:nonzero; fill: #575757;"/>
        </g>
        <g transform="matrix(96,0,0,96,643.598,858)">
            <path d="M0.554,0L0.411,0L0.201,-0.466L0.201,0L0.057,0L0.057,-0.711L0.201,-0.711L0.411,-0.244L0.411,-0.711L0.554,-0.711L0.554,0Z" style="fill-rule:nonzero; fill: #575757;"/>
        </g>
        <g transform="matrix(96,0,0,96,719.659,858)">
            <path d="M0.539,-0.237C0.535,-0.156 0.513,-0.094 0.471,-0.053C0.429,-0.011 0.369,0.01 0.293,0.01C0.213,0.01 0.151,-0.017 0.108,-0.07C0.065,-0.122 0.044,-0.198 0.044,-0.296L0.044,-0.416C0.044,-0.513 0.066,-0.588 0.11,-0.641C0.155,-0.694 0.216,-0.721 0.295,-0.721C0.372,-0.721 0.431,-0.699 0.471,-0.656C0.512,-0.612 0.535,-0.55 0.54,-0.469L0.396,-0.469C0.395,-0.519 0.387,-0.554 0.373,-0.573C0.359,-0.592 0.333,-0.602 0.295,-0.602C0.257,-0.602 0.229,-0.588 0.213,-0.561C0.197,-0.534 0.189,-0.49 0.188,-0.429L0.188,-0.294C0.188,-0.224 0.196,-0.175 0.212,-0.149C0.227,-0.123 0.255,-0.109 0.293,-0.109C0.331,-0.109 0.357,-0.119 0.371,-0.137C0.385,-0.155 0.394,-0.189 0.396,-0.237L0.539,-0.237Z" style="fill-rule:nonzero; fill: #575757;"/>
        </g>
        <g transform="matrix(96,0,0,96,791.689,858)">
            <path d="M0.424,-0.308L0.201,-0.308L0.201,-0.119L0.465,-0.119L0.465,0L0.057,0L0.057,-0.711L0.464,-0.711L0.464,-0.591L0.201,-0.591L0.201,-0.423L0.424,-0.423L0.424,-0.308Z" style="fill-rule:nonzero; fill: #575757;"/>
        </g>
        <g transform="matrix(96,0,0,96,193.201,986)">
            <path d="M0.539,-0.237C0.535,-0.156 0.513,-0.094 0.471,-0.053C0.429,-0.011 0.369,0.01 0.293,0.01C0.213,0.01 0.151,-0.017 0.108,-0.07C0.065,-0.122 0.044,-0.198 0.044,-0.296L0.044,-0.416C0.044,-0.513 0.066,-0.588 0.11,-0.641C0.155,-0.694 0.216,-0.721 0.295,-0.721C0.372,-0.721 0.431,-0.699 0.471,-0.656C0.512,-0.612 0.535,-0.55 0.54,-0.469L0.396,-0.469C0.395,-0.519 0.387,-0.554 0.373,-0.573C0.359,-0.592 0.333,-0.602 0.295,-0.602C0.257,-0.602 0.229,-0.588 0.213,-0.561C0.197,-0.534 0.189,-0.49 0.188,-0.429L0.188,-0.294C0.188,-0.224 0.196,-0.175 0.212,-0.149C0.227,-0.123 0.255,-0.109 0.293,-0.109C0.331,-0.109 0.357,-0.119 0.371,-0.137C0.385,-0.155 0.394,-0.189 0.396,-0.237L0.539,-0.237Z" style="fill-rule:nonzero; fill: #575757;"/>
        </g>
        <g transform="matrix(96,0,0,96,265.231,986)">
            <path d="M0.558,-0.292C0.558,-0.196 0.535,-0.122 0.49,-0.069C0.445,-0.017 0.382,0.01 0.302,0.01C0.222,0.01 0.16,-0.016 0.114,-0.069C0.069,-0.121 0.046,-0.194 0.045,-0.288L0.045,-0.41C0.045,-0.507 0.068,-0.584 0.113,-0.638C0.158,-0.693 0.221,-0.721 0.301,-0.721C0.38,-0.721 0.443,-0.694 0.488,-0.64C0.534,-0.586 0.557,-0.51 0.558,-0.413L0.558,-0.292ZM0.414,-0.411C0.414,-0.475 0.404,-0.522 0.386,-0.554C0.368,-0.585 0.34,-0.601 0.301,-0.601C0.263,-0.601 0.235,-0.586 0.217,-0.555C0.199,-0.525 0.189,-0.479 0.188,-0.418L0.188,-0.292C0.188,-0.229 0.198,-0.184 0.216,-0.154C0.235,-0.125 0.264,-0.11 0.302,-0.11C0.34,-0.11 0.368,-0.124 0.386,-0.153C0.404,-0.182 0.413,-0.227 0.414,-0.287L0.414,-0.411Z" style="fill-rule:nonzero; fill: #575757;"/>
        </g>
        <g transform="matrix(96,0,0,96,340.448,986)">
            <path d="M0.201,-0.119L0.453,-0.119L0.453,0L0.057,0L0.057,-0.711L0.201,-0.711L0.201,-0.119Z" style="fill-rule:nonzero; fill: #575757;"/>
        </g>
        <g transform="matrix(96,0,0,96,403.666,986)">
            <path d="M0.201,-0.119L0.453,-0.119L0.453,0L0.057,0L0.057,-0.711L0.201,-0.711L0.201,-0.119Z" style="fill-rule:nonzero; fill: #575757;"/>
        </g>
        <g transform="matrix(96,0,0,96,466.883,986)">
            <path d="M0.424,-0.308L0.201,-0.308L0.201,-0.119L0.465,-0.119L0.465,0L0.057,0L0.057,-0.711L0.464,-0.711L0.464,-0.591L0.201,-0.591L0.201,-0.423L0.424,-0.423L0.424,-0.308Z" style="fill-rule:nonzero; fill: #575757;"/>
        </g>
        <g transform="matrix(96,0,0,96,531.272,986)">
            <path d="M0.539,-0.237C0.535,-0.156 0.513,-0.094 0.471,-0.053C0.429,-0.011 0.369,0.01 0.293,0.01C0.213,0.01 0.151,-0.017 0.108,-0.07C0.065,-0.122 0.044,-0.198 0.044,-0.296L0.044,-0.416C0.044,-0.513 0.066,-0.588 0.11,-0.641C0.155,-0.694 0.216,-0.721 0.295,-0.721C0.372,-0.721 0.431,-0.699 0.471,-0.656C0.512,-0.612 0.535,-0.55 0.54,-0.469L0.396,-0.469C0.395,-0.519 0.387,-0.554 0.373,-0.573C0.359,-0.592 0.333,-0.602 0.295,-0.602C0.257,-0.602 0.229,-0.588 0.213,-0.561C0.197,-0.534 0.189,-0.49 0.188,-0.429L0.188,-0.294C0.188,-0.224 0.196,-0.175 0.212,-0.149C0.227,-0.123 0.255,-0.109 0.293,-0.109C0.331,-0.109 0.357,-0.119 0.371,-0.137C0.385,-0.155 0.394,-0.189 0.396,-0.237L0.539,-0.237Z" style="fill-rule:nonzero; fill: #575757;"/>
        </g>
        <g transform="matrix(96,0,0,96,601.943,986)">
            <path d="M0.518,-0.591L0.342,-0.591L0.342,0L0.198,0L0.198,-0.591L0.025,-0.591L0.025,-0.711L0.518,-0.711L0.518,-0.591Z" style="fill-rule:nonzero; fill: #575757;"/>
        </g>
        <g transform="matrix(96,0,0,96,671.348,986)">
            <rect x="0.063" y="-0.711" width="0.144" height="0.711" style="fill-rule:nonzero; fill: #575757;"/>
        </g>
        <g transform="matrix(96,0,0,96,714.597,986)">
            <path d="M0.289,-0.195L0.408,-0.711L0.568,-0.711L0.363,0L0.214,0L0.01,-0.711L0.169,-0.711L0.289,-0.195Z" style="fill-rule:nonzero; fill: #575757;"/>
        </g>
        <g transform="matrix(96,0,0,96,787.377,986)">
            <path d="M0.424,-0.308L0.201,-0.308L0.201,-0.119L0.465,-0.119L0.465,0L0.057,0L0.057,-0.711L0.464,-0.711L0.464,-0.591L0.201,-0.591L0.201,-0.423L0.424,-0.423L0.424,-0.308Z" style="fill-rule:nonzero; fill: #575757;"/>
        </g>
    </g>
    <g id="R3" transform="matrix(1.0713,0,0,1.0713,-25.9401,-95.9747)">
        <g transform="matrix(192,0,0,192,423.867,400.649)">
            <path d="M0.272,-0.26L0.201,-0.26L0.201,0L0.058,0L0.058,-0.711L0.287,-0.711C0.359,-0.711 0.414,-0.692 0.453,-0.655C0.493,-0.618 0.512,-0.565 0.512,-0.496C0.512,-0.402 0.478,-0.336 0.409,-0.298L0.534,-0.007L0.534,0L0.379,0L0.272,-0.26ZM0.201,-0.379L0.283,-0.379C0.311,-0.379 0.333,-0.389 0.347,-0.408C0.361,-0.427 0.369,-0.452 0.369,-0.484C0.369,-0.556 0.341,-0.591 0.285,-0.591L0.201,-0.591L0.201,-0.379Z" style="fill-rule:nonzero; fill: #575757;"/>
        </g>
        <g transform="matrix(192,0,0,192,530.179,400.649)">
            <path d="M0.169,-0.418L0.236,-0.418C0.262,-0.418 0.28,-0.427 0.292,-0.445C0.304,-0.463 0.31,-0.486 0.31,-0.516C0.31,-0.544 0.304,-0.566 0.292,-0.582C0.28,-0.598 0.263,-0.606 0.243,-0.606C0.223,-0.606 0.208,-0.598 0.196,-0.583C0.183,-0.569 0.177,-0.55 0.177,-0.527L0.039,-0.527C0.039,-0.564 0.048,-0.597 0.065,-0.627C0.082,-0.656 0.106,-0.679 0.136,-0.696C0.167,-0.712 0.201,-0.721 0.239,-0.721C0.304,-0.721 0.355,-0.703 0.393,-0.667C0.43,-0.63 0.448,-0.581 0.448,-0.518C0.448,-0.486 0.44,-0.456 0.423,-0.428C0.406,-0.401 0.384,-0.38 0.357,-0.365C0.39,-0.351 0.415,-0.329 0.432,-0.301C0.448,-0.272 0.457,-0.238 0.457,-0.199C0.457,-0.136 0.436,-0.085 0.396,-0.047C0.356,-0.009 0.303,0.01 0.238,0.01C0.177,0.01 0.128,-0.009 0.09,-0.047C0.052,-0.084 0.033,-0.134 0.033,-0.195L0.171,-0.195C0.171,-0.169 0.178,-0.148 0.191,-0.131C0.204,-0.114 0.221,-0.105 0.242,-0.105C0.265,-0.105 0.284,-0.114 0.298,-0.131C0.312,-0.149 0.319,-0.172 0.319,-0.202C0.319,-0.272 0.292,-0.307 0.237,-0.307L0.169,-0.307L0.169,-0.418Z" style="fill-rule:nonzero; fill: #575757;"/>
        </g>
    </g>
</svg>
