<?xml version="1.0" encoding="UTF-8" standalone="no"?>
<!DOCTYPE svg PUBLIC "-//W3C//DTD SVG 1.1//EN" "http://www.w3.org/Graphics/SVG/1.1/DTD/svg11.dtd">
<svg width="100%" height="100%" viewBox="0 0 1080 660" version="1.1" xmlns="http://www.w3.org/2000/svg" xmlns:xlink="http://www.w3.org/1999/xlink" xml:space="preserve" xmlns:serif="http://www.serif.com/" style="fill-rule:evenodd;clip-rule:evenodd;stroke-linejoin:round;stroke-miterlimit:2;">
  <style>
    rect, path {
    fill: #575757
    }
  </style>
    <g transform="matrix(1,0,0,1,0,-1.08646)">
        <g id="border">
            <rect x="70" y="120" width="940" height="30"/>
            <g transform="matrix(0.479167,0,0,1,-73.75,0)">
                <rect x="300" y="480" width="480" height="30"/>
            </g>
            <g transform="matrix(0.479167,0,0,1,636.25,0)">
                <rect x="300" y="480" width="480" height="30"/>
            </g>
            <g transform="matrix(2.54049e-17,0.414894,-1,6.12323e-17,1130,90.9574)">
                <rect x="70" y="120" width="940" height="30"/>
            </g>
            <g transform="matrix(2.54049e-17,0.414894,-1,6.12323e-17,220,90.9574)">
                <rect x="70" y="120" width="940" height="30"/>
            </g>
        </g>
        <g id="project" transform="matrix(1.21642,0,0,1.21642,12.1667,29.6522)">
            <g transform="matrix(85.4255,0,0,85.4255,300.115,403.107)">
                <path d="M0.523,-0.259C0.523,-0.177 0.505,-0.112 0.468,-0.063C0.431,-0.015 0.381,0.01 0.318,0.01C0.26,0.01 0.214,-0.009 0.179,-0.047L0.179,0.203L0.061,0.203L0.061,-0.528L0.17,-0.528L0.175,-0.475C0.21,-0.517 0.257,-0.538 0.317,-0.538C0.381,-0.538 0.432,-0.514 0.469,-0.466C0.505,-0.418 0.523,-0.351 0.523,-0.266L0.523,-0.259ZM0.405,-0.269C0.405,-0.322 0.395,-0.364 0.374,-0.395C0.353,-0.425 0.323,-0.441 0.284,-0.441C0.235,-0.441 0.2,-0.421 0.179,-0.381L0.179,-0.146C0.201,-0.105 0.236,-0.085 0.285,-0.085C0.322,-0.085 0.352,-0.1 0.373,-0.131C0.395,-0.161 0.405,-0.207 0.405,-0.269Z" style="fill-rule:nonzero;"/>
            </g>
            <g transform="matrix(85.4255,0,0,85.4255,348.379,403.107)">
                <path d="M0.337,-0.42C0.322,-0.423 0.306,-0.424 0.289,-0.424C0.235,-0.424 0.198,-0.403 0.179,-0.361L0.179,0L0.061,0L0.061,-0.528L0.174,-0.528L0.177,-0.469C0.205,-0.515 0.245,-0.538 0.296,-0.538C0.313,-0.538 0.327,-0.536 0.338,-0.531L0.337,-0.42Z" style="fill-rule:nonzero;"/>
            </g>
            <g transform="matrix(85.4255,0,0,85.4255,377.081,403.107)">
                <path d="M0.039,-0.269C0.039,-0.321 0.049,-0.367 0.069,-0.409C0.09,-0.45 0.119,-0.482 0.156,-0.505C0.193,-0.527 0.236,-0.538 0.284,-0.538C0.355,-0.538 0.413,-0.515 0.457,-0.469C0.502,-0.423 0.526,-0.362 0.529,-0.287L0.53,-0.259C0.53,-0.207 0.52,-0.16 0.5,-0.119C0.48,-0.078 0.451,-0.046 0.414,-0.024C0.377,-0.001 0.333,0.01 0.285,0.01C0.21,0.01 0.15,-0.015 0.106,-0.065C0.061,-0.114 0.039,-0.181 0.039,-0.263L0.039,-0.269ZM0.157,-0.259C0.157,-0.204 0.168,-0.162 0.191,-0.131C0.213,-0.1 0.245,-0.085 0.285,-0.085C0.325,-0.085 0.356,-0.101 0.378,-0.132C0.4,-0.163 0.412,-0.209 0.412,-0.269C0.412,-0.322 0.4,-0.365 0.377,-0.396C0.354,-0.427 0.323,-0.443 0.284,-0.443C0.245,-0.443 0.214,-0.427 0.191,-0.397C0.169,-0.366 0.157,-0.32 0.157,-0.259Z" style="fill-rule:nonzero;"/>
            </g>
            <g transform="matrix(85.4255,0,0,85.4255,425.887,403.107)">
                <path d="M0.185,-0.528L0.185,0.047C0.185,0.101 0.171,0.142 0.144,0.171C0.117,0.199 0.078,0.213 0.026,0.213C0.005,0.213 -0.016,0.211 -0.037,0.205L-0.037,0.111C-0.024,0.114 -0.01,0.116 0.005,0.116C0.045,0.116 0.065,0.094 0.066,0.051L0.066,-0.528L0.185,-0.528ZM0.056,-0.666C0.056,-0.684 0.061,-0.699 0.073,-0.711C0.085,-0.723 0.101,-0.729 0.123,-0.729C0.144,-0.729 0.161,-0.723 0.172,-0.711C0.184,-0.699 0.19,-0.684 0.19,-0.666C0.19,-0.648 0.184,-0.633 0.172,-0.621C0.161,-0.609 0.144,-0.603 0.123,-0.603C0.101,-0.603 0.085,-0.609 0.073,-0.621C0.061,-0.633 0.056,-0.648 0.056,-0.666Z" style="fill-rule:nonzero;"/>
            </g>
            <g transform="matrix(85.4255,0,0,85.4255,447.456,403.107)">
                <path d="M0.293,0.01C0.218,0.01 0.157,-0.014 0.111,-0.061C0.064,-0.109 0.041,-0.172 0.041,-0.25L0.041,-0.265C0.041,-0.318 0.051,-0.365 0.071,-0.406C0.091,-0.448 0.12,-0.48 0.157,-0.503C0.194,-0.527 0.235,-0.538 0.28,-0.538C0.352,-0.538 0.407,-0.515 0.447,-0.469C0.486,-0.423 0.505,-0.358 0.505,-0.274L0.505,-0.227L0.16,-0.227C0.164,-0.183 0.178,-0.148 0.204,-0.123C0.229,-0.098 0.262,-0.085 0.3,-0.085C0.355,-0.085 0.399,-0.107 0.433,-0.151L0.497,-0.09C0.476,-0.058 0.448,-0.034 0.412,-0.016C0.377,0.001 0.337,0.01 0.293,0.01ZM0.279,-0.443C0.247,-0.443 0.22,-0.431 0.2,-0.409C0.18,-0.386 0.168,-0.354 0.162,-0.313L0.388,-0.313L0.388,-0.322C0.386,-0.362 0.375,-0.392 0.356,-0.412C0.338,-0.433 0.312,-0.443 0.279,-0.443Z" style="fill-rule:nonzero;"/>
            </g>
            <g transform="matrix(85.4255,0,0,85.4255,493.468,403.107)">
                <path d="M0.278,-0.085C0.307,-0.085 0.332,-0.094 0.352,-0.111C0.371,-0.128 0.382,-0.149 0.383,-0.175L0.495,-0.175C0.493,-0.142 0.483,-0.111 0.464,-0.083C0.445,-0.054 0.419,-0.032 0.386,-0.015C0.353,0.001 0.317,0.01 0.279,0.01C0.205,0.01 0.147,-0.014 0.104,-0.062C0.06,-0.11 0.039,-0.176 0.039,-0.26L0.039,-0.272C0.039,-0.353 0.06,-0.417 0.103,-0.466C0.146,-0.514 0.205,-0.538 0.279,-0.538C0.342,-0.538 0.393,-0.52 0.432,-0.483C0.472,-0.447 0.493,-0.398 0.495,-0.339L0.383,-0.339C0.382,-0.369 0.371,-0.394 0.352,-0.414C0.332,-0.433 0.308,-0.443 0.278,-0.443C0.239,-0.443 0.21,-0.429 0.189,-0.401C0.168,-0.373 0.158,-0.331 0.157,-0.274L0.157,-0.255C0.157,-0.198 0.168,-0.155 0.188,-0.127C0.209,-0.099 0.239,-0.085 0.278,-0.085Z" style="fill-rule:nonzero;"/>
            </g>
            <g transform="matrix(85.4255,0,0,85.4255,538.354,403.107)">
                <path d="M0.209,-0.657L0.209,-0.528L0.303,-0.528L0.303,-0.44L0.209,-0.44L0.209,-0.146C0.209,-0.125 0.213,-0.111 0.221,-0.102C0.229,-0.093 0.244,-0.088 0.264,-0.088C0.278,-0.088 0.292,-0.09 0.306,-0.093L0.306,-0.001C0.279,0.006 0.253,0.01 0.228,0.01C0.136,0.01 0.091,-0.041 0.091,-0.141L0.091,-0.44L0.004,-0.44L0.004,-0.528L0.091,-0.528L0.091,-0.657L0.209,-0.657Z" style="fill-rule:nonzero;"/>
            </g>
        </g>
        <g id="tap" transform="matrix(1.26426,0,0,1.26426,1.70771,-114.477)">
            <g transform="matrix(206,0,0,206,121.594,403.107)">
                <path d="M0.599,-0.592L0.381,-0.592L0.381,0L0.234,0L0.234,-0.592L0.02,-0.592L0.02,-0.711L0.599,-0.711L0.599,-0.592Z" style="fill-rule:nonzero;"/>
            </g>
            <g transform="matrix(206,0,0,206,255.839,403.107)">
                <path d="M0.062,-0.069C0.062,-0.092 0.069,-0.11 0.084,-0.124C0.099,-0.138 0.118,-0.145 0.141,-0.145C0.164,-0.145 0.183,-0.138 0.198,-0.124C0.214,-0.11 0.221,-0.092 0.221,-0.069C0.221,-0.047 0.214,-0.029 0.199,-0.015C0.184,-0.002 0.165,0.005 0.141,0.005C0.118,0.005 0.099,-0.002 0.084,-0.015C0.069,-0.029 0.062,-0.047 0.062,-0.069Z" style="fill-rule:nonzero;"/>
            </g>
            <g transform="matrix(206,0,0,206,348.442,403.107)">
                <path d="M0.465,-0.146L0.208,-0.146L0.159,0L0.003,0L0.268,-0.711L0.404,-0.711L0.67,0L0.514,0L0.465,-0.146ZM0.248,-0.265L0.425,-0.265L0.336,-0.531L0.248,-0.265Z" style="fill-rule:nonzero;"/>
            </g>
            <g transform="matrix(206,0,0,206,519.803,403.107)">
                <path d="M0.062,-0.069C0.062,-0.092 0.069,-0.11 0.084,-0.124C0.099,-0.138 0.118,-0.145 0.141,-0.145C0.164,-0.145 0.183,-0.138 0.198,-0.124C0.214,-0.11 0.221,-0.092 0.221,-0.069C0.221,-0.047 0.214,-0.029 0.199,-0.015C0.184,-0.002 0.165,0.005 0.141,0.005C0.118,0.005 0.099,-0.002 0.084,-0.015C0.069,-0.029 0.062,-0.047 0.062,-0.069Z" style="fill-rule:nonzero;"/>
            </g>
            <g transform="matrix(206,0,0,206,612.406,403.107)">
                <path d="M0.21,-0.25L0.21,0L0.063,0L0.063,-0.711L0.341,-0.711C0.394,-0.711 0.441,-0.701 0.482,-0.682C0.522,-0.662 0.553,-0.634 0.575,-0.598C0.597,-0.562 0.608,-0.521 0.608,-0.476C0.608,-0.406 0.584,-0.351 0.536,-0.311C0.489,-0.271 0.423,-0.25 0.338,-0.25L0.21,-0.25ZM0.21,-0.369L0.341,-0.369C0.38,-0.369 0.409,-0.378 0.429,-0.396C0.45,-0.415 0.46,-0.441 0.46,-0.475C0.46,-0.509 0.45,-0.538 0.429,-0.559C0.409,-0.581 0.38,-0.592 0.344,-0.592L0.21,-0.592L0.21,-0.369Z" style="fill-rule:nonzero;"/>
            </g>
        </g>
    </g>
</svg>
