<svg version="1.1" id="Layer_1" xmlns="http://www.w3.org/2000/svg" xmlns:xlink="http://www.w3.org/1999/xlink" x="0px" y="0px"
	 viewBox="0 0 473.6 473.6" style="enable-background:new 0 0 473.6 473.6;" xml:space="preserve">
<style type="text/css">
	.st0{fill: #575757;}
	.st1{fill: transparent;}
</style>
<g>
	<g>
		<path class="st0" d="M67.2,299.4c0.6-0.9,0.9-2.4,0.3-4s-1.7-2.6-2.7-2.9c-1.3-0.4-2.7-0.5-9.1,1.7c-6.5,2.2-7.4,3.1-8.2,4.3
			c-0.6,0.9-0.9,2.4-0.4,4s1.7,2.6,2.8,2.9c1.3,0.4,2.6,0.5,9.1-1.7C65.4,301.4,66.4,300.5,67.2,299.4z"/>
		<path class="st0" d="M141.2,388.2c-1.4-0.9-2.9-1-4-0.6c-1.3,0.5-2.4,1.3-6.1,7c-3.7,5.8-3.9,7.1-3.7,8.5c0.1,1.1,0.8,2.5,2.2,3.4
			c1.4,0.9,3,0.9,4,0.5c1.3-0.5,2.4-1.2,6-7c3.7-5.8,3.9-7.1,3.8-8.5C143.3,390.5,142.6,389.1,141.2,388.2z"/>
		<path class="st0" d="M308.6,401.3l-4.8,2l3,7l4.8-2c2.3-1,3-3.3,2.2-5C313,401.4,311,400.3,308.6,401.3z"/>
		<path class="st0" d="M173,404.6l-4.8-1.9l-2.7,7.1l4.8,1.9c2.4,0.9,4.4-0.3,5.1-2.1C176,407.7,175.3,405.5,173,404.6z"/>
		<path class="st0" d="M69.1,149c6,3.3,7.3,3.5,8.6,3.3c1.1-0.2,2.4-0.9,3.3-2.4s0.8-3,0.3-4c-0.6-1.3-1.4-2.3-7.3-5.7
			c-6-3.3-7.3-3.5-8.7-3.3c-1.1,0.2-2.4,0.9-3.2,2.4s-0.8,3-0.4,4C62.3,144.6,63.1,145.7,69.1,149z"/>
		<path class="st0" d="M339.5,90.9c1.4,1,2.9,1.1,4,0.7c1.3-0.4,2.4-1.1,6.4-6.7c3.9-5.6,4.2-6.9,4.2-8.3c0-1.1-0.7-2.5-2.1-3.5
			c-1.4-1-2.9-1.1-3.9-0.8c-1.3,0.4-2.5,1.1-6.4,6.7c-3.9,5.6-4.2,6.9-4.2,8.3C337.5,88.6,338.2,90,339.5,90.9z"/>
		<path class="st0" d="M321.3,59.9c0.8-1.8,0.2-4.1-2.1-5.1l-4.8-2.1l-3.1,6.9l4.8,2.1C318.4,62.8,320.5,61.7,321.3,59.9z"/>
		<path class="st0" d="M223.4,45.2c2.5-0.2,3.8-2.1,3.7-4.1c-0.1-1.9-1.7-3.7-4.3-3.5l-5.2,0.4l0.6,7.5L223.4,45.2z"/>
		<path class="st0" d="M86,105.9l-3.4,3.9l5.7,4.9l3.4-3.9c1.6-1.9,1.2-4.2-0.3-5.5C90,104.1,87.7,104,86,105.9z"/>
		<path class="st0" d="M375.1,367.1c-4.8-4.8-6.1-5.3-7.5-5.5c-1.1-0.1-2.6,0.3-3.7,1.5c-1.2,1.2-1.6,2.6-1.4,3.8
			c0.2,1.4,0.7,2.6,5.6,7.4c4.8,4.8,6.1,5.3,7.4,5.5c1.1,0.1,2.6-0.2,3.8-1.4c1.2-1.2,1.6-2.7,1.4-3.8
			C380.4,373.1,379.9,371.9,375.1,367.1z"/>
		<path class="st0" d="M338.2,384.9l-4.3,2.9l4.2,6.3l4.3-2.9c2.1-1.4,2.3-3.8,1.2-5.4C342.5,384.2,340.3,383.5,338.2,384.9z"/>
		<path class="st0" d="M236.8,0C106,0,0,106,0,236.8s106,236.8,236.8,236.8s236.8-106,236.8-236.8S367.6,0,236.8,0z M440,190.5
			l-7.9,2.3l-4.6-15.6l-6,1.8l3.9,13.3l-7.9,2.3l-3.9-13.3l-6.3,1.9l4.6,15.6l-7.9,2.3l-7.2-24.4l35.9-10.6L440,190.5z M379.2,236.8
			c0,78.6-63.7,142.4-142.4,142.4S94.4,315.4,94.4,236.8S158.2,94.4,236.8,94.4S379.2,158.2,379.2,236.8z M413.6,134.4
			c3.7,1.2,6.5,3.4,8.5,7.3c3.3,6.3,2.4,13.2-4.3,18.2l-4.3-8.3c1.6-1.5,2.7-3.4,1.3-6.1c-0.8-1.5-2-2.3-3.1-2.5
			c-1.4-0.2-2.8-0.1-8.9,3c-6.1,3.1-7,4.3-7.6,5.5c-0.5,1-0.5,2.5,0.3,3.9c1.4,2.7,3.6,2.9,5.7,2.4l4.3,8.3c-8,2.6-14.1-0.7-17.4-7
			c-2-3.9-2.2-7.5-1.1-11.2c1.7-5.3,6.4-7.6,11.4-10.2S408.3,132.8,413.6,134.4z M408.1,118.9l-30.3,21.9l-5.4-7.5l30.3-21.9
			L408.1,118.9z M384.9,90.9l-21,20.3l10.9,11.3l-5.9,5.7l-17.3-17.9l26.9-26L384.9,90.9z M345.8,64c3.8-0.7,7.2,0,11,2.6
			c3.7,2.6,5.5,5.7,6.1,9.5c0.9,5.5-2.2,9.7-5.5,14.3s-6.1,9-11.6,9.9c-3.8,0.7-7.2,0-11-2.6c-3.7-2.6-5.5-5.7-6.1-9.5
			c-0.9-5.5,2.2-9.7,5.5-14.3C337.4,69.3,340.3,64.9,345.8,64z M309.3,41.5l13.5,6c7.6,3.4,9.3,10.5,6.8,16.2
			c-2.5,5.6-9,9.2-16.5,5.8l-5.1-2.3l-5.4,12.2l-8.4-3.7L309.3,41.5z M250.1,28.8l8,1.1l9.4,20.2l2.5-18.6l9.1,1.2l-5,37.1l-8-1.1
			l-9.4-20.2l-2.5,18.6l-9.1-1.2L250.1,28.8z M222.6,29.4c8.3-0.6,13.2,4.9,13.6,11c0.4,5.1-2.5,8.5-5.3,10.2l9.2,15l-10.6,0.8
			L221.8,53l-3.1,0.2l1,13.9l-9.2,0.7l-2.8-37.3L222.6,29.4z M193.8,32.9l2.2,7.9l-15.6,4.3l1.7,6l13.4-3.7l2.2,7.9l-13.4,3.7
			l1.8,6.3l15.6-4.3l2.2,7.9l-24.5,6.8l-10-36L193.8,32.9z M137.9,53.8l6.6,12.8l8.7-4.4l-6.6-12.8l8.2-4.2l17,33.3l-8.2,4.2
			l-6.7-13.2l-8.7,4.4l6.7,13.2l-8.2,4.2l-17-33.3L137.9,53.8z M118.7,65.1l5.1,6.4l-7.2,5.7l18.1,22.9l-7.2,5.7l-18.1-22.9
			l-7.2,5.7l-5.1-6.4L118.7,65.1z M80,100.2c5.4-6.3,12.8-5.8,17.4-1.8c3.9,3.3,4.2,7.8,3.4,11l17.1,4l-7,8.1l-14.9-4.1l-2,2.4
			l10.6,9.1l-6,7l-28.4-24.4L80,100.2z M54.9,135.3c2.2-4,5.1-6,8.8-7.1c5.4-1.5,9.9,1.2,14.8,3.9c4.9,2.7,9.6,5.2,11.1,10.5
			c1.1,3.7,0.8,7.2-1.4,11.2c-2.2,4-5.1,6-8.8,7.1c-5.4,1.5-9.9-1.2-14.8-3.9c-4.9-2.7-9.6-5.2-11.1-10.5
			C52.5,142.8,52.7,139.3,54.9,135.3z M36.3,181.4l21.5-5.9l-18-5.6l2.7-8.8l35.7,11.1l-2.4,7.7l-21.5,5.9l18,5.6l-2.7,8.8L33.9,189
			L36.3,181.4z M30.5,269.3l17.8-2.1l-9.8-4.2l-0.7-5.8l8.6-6.3l-17.8,2.1l-1.1-9.1l37.2-4.3l1,9l-15.4,10.2l17.4,6.5l1,9l-37.2,4.3
			L30.5,269.3z M39.3,305.1c-1.5-4.3-1.1-7.8,0.6-11.3c2.4-5,7.5-6.6,12.8-8.4c5.3-1.8,10.2-3.7,15.2-1.3c3.5,1.7,5.9,4.2,7.4,8.5
			c1.5,4.3,1.1,7.8-0.6,11.3c-2.4,5-7.5,6.6-12.8,8.4c-5.3,1.8-10.2,3.7-15.2,1.3C43.2,311.9,40.8,309.4,39.3,305.1z M64.6,355.5
			l-4.1-6.9l10.1-19.9l-16.2,9.6l-4.7-7.9l32.2-19.1l4.1,6.9L76,338.2l16.2-9.6l4.7,7.9L64.6,355.5z M72.9,365.9l28.8-23.8l5.9,7.1
			L78.7,373L72.9,365.9z M92.4,387.4l19.8-21.5l-6.8-6.2l5.5-6l20.3,18.6l-5.5,6l-6.8-6.2l-19.8,21.5L92.4,387.4z M136.3,415.5
			c-3.8,0.8-7.2,0.4-11.1-2c-3.9-2.4-5.7-5.4-6.6-9.1c-1.2-5.4,1.7-9.8,4.7-14.5c3-4.7,5.7-9.3,11.1-10.5c3.8-0.8,7.2-0.4,11.1,2
			s5.7,5.4,6.6,9.1c1.2,5.4-1.7,9.8-4.7,14.5S141.7,414.3,136.3,415.5z M183.9,412.9c-1.8,4.8-5.9,6.6-9.2,6.9l1.9,17.5l-9.9-3.9
			l-1.1-15.4l-2.9-1.1l-5,13l-8.6-3.3l13.5-34.9l13.8,5.4C184.1,400,186.1,407.1,183.9,412.9z M195.6,441.4l-9-2l8.1-36.5l9,2
			L195.6,441.4z M237.8,445.9l-8-0.5L219,425.9l-1.2,18.8l-9.2-0.6l2.4-37.3l8,0.5l10.8,19.5L231,408l9.2,0.6L237.8,445.9z
			 M275.2,438.2c-2.7,3.7-6.1,5.1-10.2,5.6c-4.3,0.6-7.8-0.4-10.9-2.8c-4.4-3.4-5-8.6-5.7-14.2c-0.8-5.6-1.6-10.8,1.8-15.2
			c2.3-3.1,5.3-5,9.7-5.6c9.5-1.3,14.4,4.3,16.1,10.3l-9.2,1.2c-1.1-2.7-2.8-3.9-5.9-3.4c-1.7,0.2-2.8,1.1-3.4,2.1
			c-0.7,1.2-1,2.5-0.1,9.3c0.9,6.8,1.6,8,2.6,9c0.8,0.8,2.1,1.3,3.8,1.1c1.9-0.3,3.2-1,3.9-2c0.9-1.2,1.1-2.7,0.9-4.1l-0.1-0.5
			l-5.5,0.7l-1-7.6l14.5-2l0.7,5.2C278.1,431.3,277.6,435,275.2,438.2z M315.2,415.7l-5.2,2.2l5.2,12.3l-8.5,3.6l-14.7-34.4
			l13.6-5.8c7.6-3.3,14,0.4,16.5,6.1C324.7,405.3,322.9,412.4,315.2,415.7z M358.3,406.5l-13.3-7.8l-2.6,1.7l7.8,11.5l-7.6,5.2
			l-21-31l12.3-8.3c6.9-4.7,13.9-2.3,17.3,2.8c2.9,4.2,2,8.6,0.4,11.5l15.4,8.4L358.3,406.5z M385,384.1c-3.2,3.2-6.5,4.4-10.4,4.5
			c-5.6,0-9.2-3.8-13.2-7.8c-4-4-7.8-7.6-7.8-13.1c0-3.9,1.2-7.1,4.4-10.4s6.5-4.4,10.4-4.5c5.6,0,9.2,3.8,13.2,7.8
			s7.8,7.6,7.8,13.1C389.4,377.5,388.2,380.8,385,384.1z M405.1,360.6c-2.5,3.6-5,5.2-9.2,5.9l-1.4-8.4c1.6-0.3,2.8-0.6,3.9-2.3
			c1.6-2.3,1.5-4.9-1.4-7l-19.9-14.1l5.3-7.5l20.1,14.2C409.8,346.7,409.2,354.9,405.1,360.6z M419.8,337.7l-33.7-16.1l11-22.9
			l7.4,3.5l-7,14.6l5.6,2.7l6-12.5l7.4,3.5l-6,12.5l5.9,2.8l7-14.6l7.4,3.5L419.8,337.7z M438.8,290.2c-1.1,4.2-3.4,7-6.7,9
			c-4.8,2.8-9.9,1.3-15.3-0.2c-5.4-1.5-10.5-2.7-13.3-7.5c-1.9-3.3-2.5-6.9-1.4-11.1c1.8-6.9,7.1-11.4,15.4-10.6l-2.4,9
			c-2.2,0-4.3,0.6-5.1,3.6c-0.4,1.6-0.1,3,0.6,3.9c0.8,1.1,2,2,8.6,3.8c6.6,1.8,8,1.5,9.3,1c1-0.4,2-1.5,2.5-3.1
			c0.8-2.9-0.7-4.5-2.6-5.7l2.4-9C438.3,276.8,440.7,283.4,438.8,290.2z M415.1,257.1l-0.8,9.2l-8.2-0.7l2.4-27.5l8.2,0.7l-0.8,9.2
			l29.1,2.5l-0.8,9.2L415.1,257.1z"/>
		<path class="st0" d="M100.3,236.8c0,0,52.8,84.1,136.5,84.1s136.5-84.1,136.5-84.1s-52.8-84.1-136.5-84.1
			C153.1,152.7,100.3,236.8,100.3,236.8z M292.5,191c32.2,18.6,52.8,45.8,52.8,45.8c0,0-46.6,62.3-108.4,62.3l0,0
			c-61.8,0-108-62.3-108-62.3s23.1-30.9,58.5-49.1c-7,10.3-11.1,22.3-11.1,35.9c0,35,28,63.1,62.7,63.1s62.7-28.5,62.7-63.1
			C301.5,211.6,298.2,200.5,292.5,191z M238.7,188.5l29,10.2c0.1,0,0.3,0.1,0.4,0.2c0.7,0.4,1.2,1.1,1.3,1.9
			c0.1,0.8-0.1,1.6-0.5,2.2c-0.4,0.6-1,1.1-1.5,1.5h0c-5.7,4.3-6.2,11.5-0.5,19.4h0c2.2,3.1,3.5,6.7,3.6,10.5
			c0,14-10.3,18.8-18.5,21.8c-5.4,2-10.1,5.6-13.4,10.4c-0.4,0.4-1,0.4-1.4,0c-3.3-4.8-8-8.4-13.4-10.4c-8.2-3-18.5-7.8-18.5-21.8
			c0.1-3.8,1.4-7.4,3.6-10.5h0c5.7-7.9,5.2-15.1-0.5-19.4c-0.6-0.4-1.1-1-1.5-1.5c-0.5-0.6-0.7-1.4-0.5-2.2c0.1-0.8,0.6-1.5,1.3-1.9
			c0.1-0.1,0.3-0.1,0.4-0.2l29-10.2C237.4,188.3,238.1,188.3,238.7,188.5z"/>
	</g>
	<polygon class="st1" points="72.3,191.4 54.4,185.8 75.9,179.9 78.3,172.2 42.5,161.1 39.8,169.9 57.8,175.5 36.3,181.4 33.9,189
		69.6,200.1 	"/>
	<path class="st1" d="M64.6,157c4.9,2.7,9.4,5.4,14.8,3.9c3.7-1.1,6.5-3.1,8.8-7.1c2.2-4,2.5-7.5,1.4-11.2
		c-1.5-5.4-6.2-7.8-11.1-10.5c-4.9-2.7-9.4-5.4-14.8-3.9c-3.7,1.1-6.5,3.1-8.8,7.1c-2.2,4-2.5,7.5-1.4,11.2
		C55,151.8,59.7,154.3,64.6,157z M62.1,139.3c0.8-1.5,2.1-2.3,3.2-2.4c1.4-0.2,2.7,0,8.7,3.3c6,3.3,6.8,4.4,7.3,5.7
		c0.4,1,0.5,2.6-0.3,4s-2.1,2.2-3.3,2.4c-1.4,0.2-2.7,0.1-8.6-3.3c-6-3.3-6.8-4.4-7.4-5.7C61.3,142.3,61.3,140.8,62.1,139.3z"/>
	<path class="st1" d="M104.7,128.8l-10.6-9.1l2-2.4l14.9,4.1l7-8.1l-17.1-4c0.8-3.2,0.4-7.7-3.4-11c-4.7-4-12-4.5-17.4,1.8
		l-9.7,11.2l28.4,24.4L104.7,128.8z M91.8,110.8l-3.4,3.9l-5.7-4.9l3.4-3.9c1.6-1.9,4-1.8,5.5-0.6C93,106.6,93.4,108.9,91.8,110.8z"
		/>
	<polygon class="st1" points="109.4,82.9 127.5,105.8 134.7,100.1 116.6,77.2 123.8,71.5 118.7,65.1 97.1,82.2 102.2,88.6 	"/>
	<polygon class="st1" points="155,87.1 148.2,73.9 156.9,69.4 163.7,82.6 171.9,78.5 154.8,45.1 146.6,49.3 153.2,62.1 144.5,66.6
		137.9,53.8 129.8,58 146.8,91.3 	"/>
	<polygon class="st1" points="203.8,68.9 201.6,61.1 186,65.4 184.2,59.1 197.6,55.4 195.4,47.5 182,51.2 180.3,45.2 196,40.8
		193.8,32.9 169.3,39.7 179.3,75.8 	"/>
	<path class="st1" d="M219.8,67.1l-1-13.9l3.1-0.2l7.6,13.4l10.6-0.8l-9.2-15c2.8-1.7,5.7-5.1,5.3-10.2c-0.5-6.1-5.3-11.7-13.6-11
		l-14.8,1.1l2.8,37.3L219.8,67.1z M222.8,37.6c2.5-0.2,4.1,1.5,4.3,3.5c0.1,1.9-1.2,3.9-3.7,4.1l-5.2,0.4l-0.6-7.5L222.8,37.6z"/>
	<polygon class="st1" points="256.7,48.4 266.1,68.7 274.1,69.7 279,32.6 269.9,31.4 267.4,50.1 258,29.8 250.1,28.8 245.1,65.9
		254.2,67.1 	"/>
	<path class="st1" d="M308,67.2l5.1,2.3c7.6,3.4,14.1-0.2,16.5-5.8c2.5-5.6,0.8-12.8-6.8-16.2l-13.5-6l-15.1,34.2l8.4,3.7L308,67.2z
		 M314.4,52.7l4.8,2.1c2.3,1,2.9,3.3,2.1,5.1c-0.8,1.8-2.9,2.9-5.2,1.8l-4.8-2.1L314.4,52.7z"/>
	<path class="st1" d="M328.7,88.2c0.7,3.8,2.4,6.8,6.1,9.5c3.7,2.6,7.2,3.3,11,2.6c5.5-0.9,8.4-5.3,11.6-9.9s6.4-8.8,5.5-14.3
		c-0.7-3.8-2.4-6.8-6.1-9.5c-3.7-2.6-7.2-3.3-11-2.6c-5.5,0.9-8.4,5.3-11.6,9.9C330.9,78.5,327.7,82.7,328.7,88.2z M341.6,79.2
		c3.9-5.6,5.1-6.3,6.4-6.7c1.1-0.3,2.6-0.2,3.9,0.8c1.4,1,2,2.3,2.1,3.5c0.1,1.4-0.2,2.7-4.2,8.3c-3.9,5.6-5.1,6.3-6.4,6.7
		c-1.1,0.3-2.6,0.2-4-0.7c-1.4-1-2-2.4-2-3.5C337.4,86.1,337.7,84.8,341.6,79.2z"/>
	<polygon class="st1" points="368.9,128.1 374.8,122.5 363.9,111.1 384.9,90.9 378.5,84.3 351.6,110.2 	"/>

		<rect x="371.6" y="121.5" transform="matrix(0.8106 -0.5855 0.5855 0.8106 6.592920e-02 252.3959)" class="st1" width="37.4" height="9.2"/>
	<path class="st1" d="M387.3,148.1c-1.2,3.7-1,7.3,1.1,11.2c3.3,6.3,9.4,9.6,17.4,7l-4.3-8.3c-2.1,0.5-4.3,0.3-5.7-2.4
		c-0.8-1.5-0.7-2.9-0.3-3.9c0.6-1.3,1.5-2.4,7.6-5.5c6.1-3.1,7.5-3.2,8.9-3c1.1,0.2,2.3,1,3.1,2.5c1.4,2.7,0.3,4.6-1.3,6.1l4.3,8.3
		c6.7-5,7.6-11.9,4.3-18.2c-2-3.9-4.8-6.1-8.5-7.3c-5.3-1.7-9.9,0.9-14.9,3.5S389,142.8,387.3,148.1z"/>
	<polygon class="st1" points="404.1,201.1 412,198.8 407.4,183.2 413.7,181.3 417.6,194.6 425.4,192.3 421.5,179 427.5,177.2
		432.1,192.8 440,190.5 432.8,166.1 396.9,176.7 	"/>
	<polygon class="st1" points="67.7,265.1 50.4,258.7 65.8,248.4 64.7,239.5 27.6,243.8 28.6,252.9 46.4,250.8 37.9,257.2 38.5,263
		48.3,267.2 30.5,269.3 31.6,278.4 68.7,274.1 	"/>
	<path class="st1" d="M61.9,312.3c5.3-1.8,10.3-3.4,12.8-8.4c1.7-3.5,2-6.9,0.6-11.3c-1.5-4.3-3.9-6.8-7.4-8.5
		c-5-2.4-9.9-0.6-15.2,1.3c-5.3,1.8-10.3,3.4-12.8,8.4c-1.7,3.5-2,6.9-0.6,11.3c1.5,4.3,3.9,6.8,7.4,8.5
		C51.7,316,56.6,314.2,61.9,312.3z M49.8,305.3c-1.1-0.4-2.2-1.3-2.8-2.9s-0.2-3.1,0.4-4c0.8-1.2,1.7-2,8.2-4.3
		c6.5-2.2,7.8-2.1,9.1-1.7c1.1,0.4,2.2,1.4,2.7,2.9s0.3,3.1-0.3,4c-0.8,1.2-1.8,2.1-8.2,4.3C52.5,305.9,51.1,305.8,49.8,305.3z"/>
	<polygon class="st1" points="92.1,328.6 76,338.2 86,318.3 81.9,311.3 49.8,330.4 54.4,338.3 70.6,328.7 60.5,348.6 64.6,355.5
		96.8,336.5 	"/>

		<rect x="71.5" y="353" transform="matrix(0.7713 -0.6365 0.6365 0.7713 -206.9641 139.2301)" class="st1" width="37.4" height="9.2"/>
	<polygon class="st1" points="125.7,378.3 131.2,372.3 110.9,353.6 105.4,359.7 112.1,365.9 92.4,387.4 99.2,393.6 118.9,372.1 	"/>
	<path class="st1" d="M152.1,390.5c-0.8-3.8-2.7-6.7-6.6-9.1s-7.3-2.9-11.1-2c-5.4,1.2-8.1,5.7-11.1,10.5c-3,4.7-6,9.1-4.7,14.5
		c0.8,3.8,2.7,6.7,6.6,9.1c3.9,2.4,7.3,2.9,11.1,2c5.4-1.2,8.1-5.7,11.1-10.5S153.3,395.9,152.1,390.5z M139.6,400.1
		c-3.7,5.8-4.7,6.5-6,7c-1.1,0.4-2.6,0.4-4-0.5c-1.4-0.9-2.1-2.3-2.2-3.4c-0.1-1.4,0.1-2.7,3.7-8.5c3.7-5.8,4.8-6.6,6.1-7
		c1.1-0.4,2.6-0.3,4,0.6c1.4,0.9,2.1,2.2,2.2,3.3C143.5,393,143.3,394.3,139.6,400.1z"/>
	<path class="st1" d="M176.3,397l-13.8-5.4L149,426.6l8.6,3.3l5-13l2.9,1.1l1.1,15.4l9.9,3.9l-1.9-17.5c3.3-0.3,7.4-2.2,9.2-6.9
		C186.1,407.1,184.1,400,176.3,397z M175.3,409.6c-0.7,1.8-2.7,3-5.1,2.1l-4.8-1.9l2.7-7.1l4.8,1.9
		C175.3,405.5,176,407.7,175.3,409.6z"/>

		<rect x="176.5" y="417.5" transform="matrix(0.2178 -0.976 0.976 0.2178 -259.3105 520.7293)" class="st1" width="37.4" height="9.2"/>
	<polygon class="st1" points="229.8,426.8 219.1,407.2 211,406.7 208.7,444 217.8,444.6 219,425.9 229.8,445.4 237.8,445.9
		240.2,408.6 231,408 	"/>
	<path class="st1" d="M276.6,420.2l-14.5,2l1,7.6l5.5-0.7l0.1,0.5c0.2,1.4,0,3-0.9,4.1c-0.7,1-1.9,1.7-3.9,2c-1.7,0.2-3-0.3-3.8-1.1
		c-1-1-1.7-2.2-2.6-9c-0.9-6.8-0.6-8.1,0.1-9.3c0.6-1,1.7-1.9,3.4-2.1c3.1-0.4,4.8,0.7,5.9,3.4l9.2-1.2c-1.7-6-6.6-11.6-16.1-10.3
		c-4.5,0.6-7.4,2.5-9.7,5.6c-3.4,4.4-2.5,9.6-1.8,15.2c0.8,5.6,1.3,10.8,5.7,14.2c3.1,2.3,6.6,3.4,10.9,2.8
		c4.1-0.6,7.5-1.9,10.2-5.6c2.4-3.2,2.9-6.9,2.1-12.8L276.6,420.2z"/>
	<path class="st1" d="M305.8,393.6l-13.6,5.8l14.7,34.4l8.5-3.6l-5.2-12.3l5.2-2.2c7.6-3.3,9.4-10.4,7-16.1
		C319.8,394,313.4,390.3,305.8,393.6z M311.6,408.3l-4.8,2l-3-7l4.8-2c2.3-1,4.4,0.1,5.2,1.9C314.6,405,313.9,407.3,311.6,408.3z"/>
	<path class="st1" d="M351.2,380.6c-3.4-5.1-10.4-7.5-17.3-2.8l-12.3,8.3l21,31l7.6-5.2l-7.8-11.5l2.6-1.7l13.3,7.8l8.8-6l-15.4-8.4
		C353.3,389.3,354.1,384.9,351.2,380.6z M342.4,391.2l-4.3,2.9l-4.2-6.3l4.3-2.9c2.1-1.4,4.3-0.7,5.4,0.9
		C344.7,387.4,344.5,389.7,342.4,391.2z"/>
	<path class="st1" d="M381.5,360.6c-4-4-7.6-7.8-13.2-7.8c-3.9,0-7.1,1.2-10.4,4.5s-4.4,6.5-4.4,10.4c0,5.6,3.9,9.2,7.8,13.1
		c4,4,7.6,7.8,13.2,7.8c3.9,0,7.1-1.2,10.4-4.5s4.4-6.5,4.4-10.4C389.4,368.1,385.5,364.5,381.5,360.6z M379.2,378.3
		c-1.2,1.2-2.7,1.6-3.8,1.4c-1.4-0.2-2.6-0.7-7.4-5.5c-4.8-4.8-5.4-6.1-5.6-7.4c-0.2-1.1,0.3-2.6,1.4-3.8c1.2-1.2,2.6-1.6,3.7-1.5
		c1.4,0.2,2.6,0.7,7.5,5.5c4.8,4.8,5.3,6,5.5,7.4C380.7,375.6,380.4,377.1,379.2,378.3z"/>
	<path class="st1" d="M402.6,341.5l-20.1-14.2l-5.3,7.5l19.9,14.1c2.9,2.1,3,4.6,1.4,7c-1.2,1.7-2.3,2-3.9,2.3l1.4,8.4
		c4.2-0.7,6.7-2.4,9.2-5.9C409.2,354.9,409.8,346.7,402.6,341.5z"/>
	<polygon class="st1" points="416.4,325.9 410.5,323.1 416.4,310.6 409.1,307 403.1,319.5 397.4,316.8 404.4,302.2 397,298.6
		386.1,321.6 419.8,337.7 430.8,314.8 423.4,311.3 	"/>
	<path class="st1" d="M430.7,273.4l-2.4,9c1.9,1.1,3.4,2.7,2.6,5.7c-0.4,1.6-1.4,2.7-2.5,3.1c-1.3,0.5-2.7,0.7-9.3-1
		c-6.6-1.8-7.7-2.7-8.6-3.8c-0.7-0.9-1-2.3-0.6-3.9c0.8-2.9,2.9-3.6,5.1-3.6l2.4-9c-8.3-0.8-13.6,3.7-15.4,10.6
		c-1.1,4.2-0.6,7.8,1.4,11.1c2.8,4.8,7.9,6,13.3,7.5c5.4,1.5,10.5,3,15.3,0.2c3.3-1.9,5.6-4.7,6.7-9
		C440.7,283.4,438.3,276.8,430.7,273.4z"/>
	<polygon class="st1" points="415.9,247.9 416.7,238.8 408.5,238.1 406.2,265.6 414.3,266.3 415.1,257.1 444.2,259.6 445,250.5 	"/>
</g>
</svg>
