<?xml version="1.0" encoding="UTF-8" standalone="no"?>
<!DOCTYPE svg PUBLIC "-//W3C//DTD SVG 1.1//EN" "http://www.w3.org/Graphics/SVG/1.1/DTD/svg11.dtd">
<svg width="100%" height="100%" viewBox="0 0 1080 1080" version="1.1" xmlns="http://www.w3.org/2000/svg" xmlns:xlink="http://www.w3.org/1999/xlink" xml:space="preserve" xmlns:serif="http://www.serif.com/" style="fill-rule:evenodd;clip-rule:evenodd;">
    <style type="text/css">
      path, rect {
        fill: #575757;
      }
    </style>
    <g transform="matrix(1,0,0,1,2.27374e-13,673.87)">
        <g transform="matrix(162,0,0,162,193.725,166.13)">
            <path d="M0.494,-0.502C0.492,-0.505 0.485,-0.51 0.473,-0.517C0.461,-0.524 0.446,-0.532 0.428,-0.54C0.41,-0.548 0.39,-0.555 0.369,-0.561C0.348,-0.567 0.326,-0.57 0.305,-0.57C0.246,-0.57 0.217,-0.55 0.217,-0.511C0.217,-0.499 0.22,-0.489 0.227,-0.481C0.233,-0.473 0.242,-0.466 0.255,-0.46C0.267,-0.453 0.282,-0.447 0.301,-0.442C0.32,-0.437 0.341,-0.431 0.366,-0.424C0.4,-0.415 0.431,-0.405 0.458,-0.394C0.485,-0.383 0.509,-0.369 0.528,-0.353C0.547,-0.336 0.561,-0.316 0.572,-0.293C0.582,-0.27 0.587,-0.242 0.587,-0.209C0.587,-0.169 0.58,-0.135 0.565,-0.108C0.55,-0.08 0.53,-0.058 0.505,-0.041C0.48,-0.024 0.452,-0.011 0.42,-0.004C0.388,0.004 0.355,0.008 0.321,0.008C0.295,0.008 0.268,0.006 0.241,0.002C0.214,-0.002 0.187,-0.008 0.161,-0.016C0.135,-0.023 0.11,-0.032 0.086,-0.043C0.061,-0.054 0.039,-0.066 0.018,-0.08L0.09,-0.223C0.093,-0.22 0.101,-0.213 0.116,-0.204C0.131,-0.195 0.149,-0.185 0.171,-0.176C0.192,-0.167 0.216,-0.158 0.243,-0.151C0.27,-0.144 0.297,-0.14 0.324,-0.14C0.382,-0.14 0.411,-0.158 0.411,-0.193C0.411,-0.206 0.407,-0.217 0.398,-0.226C0.389,-0.235 0.377,-0.243 0.362,-0.25C0.347,-0.257 0.329,-0.263 0.308,-0.269C0.287,-0.275 0.264,-0.282 0.239,-0.289C0.206,-0.299 0.178,-0.31 0.154,-0.322C0.13,-0.333 0.11,-0.347 0.095,-0.362C0.079,-0.377 0.067,-0.395 0.06,-0.415C0.052,-0.435 0.048,-0.458 0.048,-0.485C0.048,-0.522 0.055,-0.555 0.069,-0.584C0.083,-0.613 0.102,-0.637 0.126,-0.657C0.15,-0.676 0.178,-0.691 0.21,-0.701C0.241,-0.711 0.275,-0.716 0.31,-0.716C0.335,-0.716 0.359,-0.714 0.383,-0.709C0.407,-0.704 0.43,-0.698 0.452,-0.691C0.474,-0.684 0.494,-0.675 0.514,-0.666C0.533,-0.657 0.55,-0.647 0.566,-0.638L0.494,-0.502Z" style="fill-rule:nonzero;"/>
        </g>
        <g transform="matrix(162,0,0,162,293.355,166.13)">
            <rect x="0.068" y="-0.71" width="0.164" height="0.71" style="fill-rule:nonzero;"/>
        </g>
        <g transform="matrix(162,0,0,162,341.955,166.13)">
            <path d="M0.609,-0.566L0.393,-0.566L0.393,0L0.229,0L0.229,-0.566L0.012,-0.566L0.012,-0.71L0.609,-0.71L0.609,-0.566Z" style="fill-rule:nonzero;"/>
        </g>
        <g transform="matrix(162,0,0,162,442.557,166.13)">
            <path d="M0.567,-0.144L0.567,0L0.068,0L0.068,-0.71L0.558,-0.71L0.558,-0.566L0.232,-0.566L0.232,-0.428L0.512,-0.428L0.512,-0.295L0.232,-0.295L0.232,-0.144L0.567,-0.144Z" style="fill-rule:nonzero;"/>
        </g>
        <g transform="matrix(162,0,0,162,537.165,166.13)">
            <path d="M0.494,-0.502C0.492,-0.505 0.485,-0.51 0.473,-0.517C0.461,-0.524 0.446,-0.532 0.428,-0.54C0.41,-0.548 0.39,-0.555 0.369,-0.561C0.348,-0.567 0.326,-0.57 0.305,-0.57C0.246,-0.57 0.217,-0.55 0.217,-0.511C0.217,-0.499 0.22,-0.489 0.227,-0.481C0.233,-0.473 0.242,-0.466 0.255,-0.46C0.267,-0.453 0.282,-0.447 0.301,-0.442C0.32,-0.437 0.341,-0.431 0.366,-0.424C0.4,-0.415 0.431,-0.405 0.458,-0.394C0.485,-0.383 0.509,-0.369 0.528,-0.353C0.547,-0.336 0.561,-0.316 0.572,-0.293C0.582,-0.27 0.587,-0.242 0.587,-0.209C0.587,-0.169 0.58,-0.135 0.565,-0.108C0.55,-0.08 0.53,-0.058 0.505,-0.041C0.48,-0.024 0.452,-0.011 0.42,-0.004C0.388,0.004 0.355,0.008 0.321,0.008C0.295,0.008 0.268,0.006 0.241,0.002C0.214,-0.002 0.187,-0.008 0.161,-0.016C0.135,-0.023 0.11,-0.032 0.086,-0.043C0.061,-0.054 0.039,-0.066 0.018,-0.08L0.09,-0.223C0.093,-0.22 0.101,-0.213 0.116,-0.204C0.131,-0.195 0.149,-0.185 0.171,-0.176C0.192,-0.167 0.216,-0.158 0.243,-0.151C0.27,-0.144 0.297,-0.14 0.324,-0.14C0.382,-0.14 0.411,-0.158 0.411,-0.193C0.411,-0.206 0.407,-0.217 0.398,-0.226C0.389,-0.235 0.377,-0.243 0.362,-0.25C0.347,-0.257 0.329,-0.263 0.308,-0.269C0.287,-0.275 0.264,-0.282 0.239,-0.289C0.206,-0.299 0.178,-0.31 0.154,-0.322C0.13,-0.333 0.11,-0.347 0.095,-0.362C0.079,-0.377 0.067,-0.395 0.06,-0.415C0.052,-0.435 0.048,-0.458 0.048,-0.485C0.048,-0.522 0.055,-0.555 0.069,-0.584C0.083,-0.613 0.102,-0.637 0.126,-0.657C0.15,-0.676 0.178,-0.691 0.21,-0.701C0.241,-0.711 0.275,-0.716 0.31,-0.716C0.335,-0.716 0.359,-0.714 0.383,-0.709C0.407,-0.704 0.43,-0.698 0.452,-0.691C0.474,-0.684 0.494,-0.675 0.514,-0.666C0.533,-0.657 0.55,-0.647 0.566,-0.638L0.494,-0.502Z" style="fill-rule:nonzero;"/>
        </g>
        <g transform="matrix(162,0,0,162,674.541,166.13)">
            <path d="M0.379,0.006C0.326,0.006 0.278,-0.004 0.235,-0.025C0.192,-0.046 0.155,-0.073 0.124,-0.107C0.093,-0.14 0.069,-0.179 0.053,-0.222C0.035,-0.265 0.027,-0.31 0.027,-0.356C0.027,-0.403 0.036,-0.448 0.054,-0.491C0.071,-0.534 0.096,-0.573 0.128,-0.606C0.159,-0.639 0.197,-0.665 0.24,-0.685C0.283,-0.704 0.331,-0.714 0.382,-0.714C0.435,-0.714 0.483,-0.704 0.526,-0.683C0.569,-0.662 0.606,-0.635 0.637,-0.601C0.668,-0.567 0.691,-0.528 0.708,-0.485C0.725,-0.442 0.733,-0.398 0.733,-0.353C0.733,-0.306 0.724,-0.261 0.707,-0.218C0.689,-0.175 0.664,-0.136 0.633,-0.104C0.602,-0.071 0.564,-0.044 0.521,-0.024C0.478,-0.004 0.43,0.006 0.379,0.006ZM0.194,-0.354C0.194,-0.327 0.198,-0.3 0.206,-0.275C0.214,-0.249 0.226,-0.226 0.242,-0.206C0.257,-0.186 0.277,-0.17 0.3,-0.158C0.323,-0.146 0.35,-0.14 0.38,-0.14C0.411,-0.14 0.439,-0.146 0.462,-0.159C0.485,-0.172 0.505,-0.188 0.52,-0.209C0.535,-0.229 0.547,-0.252 0.555,-0.278C0.562,-0.303 0.566,-0.329 0.566,-0.356C0.566,-0.383 0.562,-0.41 0.554,-0.436C0.546,-0.461 0.534,-0.484 0.518,-0.504C0.502,-0.523 0.483,-0.539 0.46,-0.551C0.436,-0.562 0.41,-0.568 0.38,-0.568C0.349,-0.568 0.322,-0.562 0.299,-0.55C0.276,-0.537 0.256,-0.521 0.241,-0.501C0.225,-0.481 0.213,-0.458 0.206,-0.433C0.198,-0.407 0.194,-0.381 0.194,-0.354Z" style="fill-rule:nonzero;"/>
        </g>
        <g transform="matrix(162,0,0,162,797.661,166.13)">
            <path d="M0.068,0L0.068,-0.71L0.55,-0.71L0.55,-0.566L0.232,-0.566L0.232,-0.413L0.494,-0.413L0.494,-0.28L0.232,-0.28L0.232,0L0.068,0Z" style="fill-rule:nonzero;"/>
        </g>
        <path d="M735.939,171.102C744.862,171.102 753.087,169.35 760.619,165.874C768.115,162.414 774.568,157.825 779.988,152.117C785.405,146.412 789.644,139.816 792.698,132.324C795.758,124.819 797.287,117.026 797.287,108.944C797.287,101.222 795.852,93.615 792.97,86.124C790.092,78.639 786.002,71.962 780.705,66.089C775.391,60.197 768.984,55.455 761.475,51.874C753.936,48.278 745.588,46.462 736.425,46.462C727.51,46.462 719.293,48.183 711.768,51.599C704.272,55.001 697.788,59.561 692.31,65.269C686.831,70.979 682.561,77.581 679.504,85.078C676.444,92.583 674.915,100.376 674.915,108.458C674.915,116.411 676.383,124.135 679.322,131.627C682.258,139.11 686.376,145.757 691.672,151.571C696.982,157.401 703.385,162.112 710.889,165.69C718.428,169.286 726.776,171.102 735.939,171.102ZM735.939,167.102C727.407,167.102 719.631,165.428 712.611,162.08C705.591,158.732 699.597,154.331 694.629,148.877C689.661,143.423 685.8,137.186 683.046,130.166C680.292,123.146 678.915,115.91 678.915,108.458C678.915,100.898 680.346,93.608 683.208,86.588C686.07,79.568 690.066,73.385 695.196,68.039C700.326,62.693 706.401,58.427 713.421,55.241C720.441,52.055 728.109,50.462 736.425,50.462C744.957,50.462 752.733,52.136 759.753,55.484C766.773,58.832 772.767,63.26 777.735,68.768C782.703,74.276 786.537,80.54 789.237,87.56C791.937,94.58 793.287,101.708 793.287,108.944C793.287,116.504 791.856,123.794 788.994,130.814C786.132,137.834 782.163,144.017 777.087,149.363C772.011,154.709 765.963,159.002 758.943,162.242C751.923,165.482 744.255,167.102 735.939,167.102ZM705.969,108.782C705.969,113.21 706.617,117.503 707.913,121.661C709.209,125.819 711.126,129.518 713.664,132.758C716.202,135.998 719.361,138.59 723.141,140.534C726.921,142.478 731.241,143.45 736.101,143.45C741.177,143.45 745.605,142.424 749.385,140.372C753.165,138.32 756.297,135.647 758.781,132.353C761.265,129.059 763.128,125.333 764.37,121.175C765.612,117.017 766.233,112.778 766.233,108.458C766.233,104.03 765.585,99.737 764.289,95.579C762.993,91.421 761.049,87.749 758.457,84.563C755.865,81.377 752.706,78.839 748.98,76.949C745.254,75.059 740.961,74.114 736.101,74.114C731.025,74.114 726.624,75.113 722.898,77.111C719.172,79.109 716.04,81.728 713.502,84.968C710.964,88.208 709.074,91.907 707.832,96.065C706.59,100.223 705.969,104.462 705.969,108.782ZM709.969,108.782C709.969,104.851 710.534,100.994 711.665,97.21C712.758,93.548 714.416,90.288 716.651,87.435C718.848,84.63 721.563,82.366 724.788,80.636C727.978,78.926 731.756,78.114 736.101,78.114C740.275,78.114 743.97,78.893 747.17,80.516C750.387,82.148 753.116,84.337 755.354,87.087C757.631,89.886 759.332,93.116 760.47,96.769C761.646,100.543 762.233,104.439 762.233,108.458C762.233,112.389 761.668,116.246 760.537,120.03C759.436,123.717 757.79,127.024 755.587,129.945C753.444,132.786 750.738,135.086 747.477,136.857C744.242,138.612 740.444,139.45 736.101,139.45C731.93,139.45 728.215,138.645 724.97,136.977C721.718,135.304 718.997,133.079 716.813,130.291C714.568,127.425 712.878,124.149 711.732,120.471C710.556,116.697 709.969,112.801 709.969,108.782Z" style="fill:transparent;"/>
        <path d="M839.245,124.77L839.245,166.13C839.245,168.339 837.454,170.13 835.245,170.13L808.677,170.13C806.468,170.13 804.677,168.339 804.677,166.13L804.677,51.11C804.677,48.901 806.468,47.11 808.677,47.11L886.761,47.11C888.97,47.11 890.761,48.901 890.761,51.11L890.761,74.438C890.761,76.647 888.97,78.438 886.761,78.438L839.245,78.438L839.245,95.224L877.689,95.224C879.898,95.224 881.689,97.015 881.689,99.224L881.689,120.77C881.689,122.979 879.898,124.77 877.689,124.77L839.245,124.77ZM808.677,166.13L808.677,51.11L886.761,51.11L886.761,74.438L835.245,74.438L835.245,99.224L877.689,99.224L877.689,120.77L835.245,120.77L835.245,166.13L808.677,166.13Z" style="fill:transparent;"/>
        <g transform="matrix(162,0,0,162,50.274,352.13)">
            <path d="M0.068,0L0.068,-0.71L0.388,-0.71C0.421,-0.71 0.452,-0.703 0.481,-0.689C0.509,-0.675 0.533,-0.657 0.554,-0.634C0.575,-0.611 0.591,-0.586 0.603,-0.557C0.614,-0.528 0.62,-0.499 0.62,-0.47C0.62,-0.448 0.617,-0.427 0.612,-0.407C0.607,-0.386 0.599,-0.367 0.589,-0.349C0.579,-0.331 0.567,-0.315 0.553,-0.301C0.538,-0.286 0.522,-0.274 0.504,-0.264L0.66,0L0.475,0L0.339,-0.229L0.232,-0.229L0.232,0L0.068,0ZM0.232,-0.372L0.382,-0.372C0.401,-0.372 0.418,-0.381 0.432,-0.4C0.446,-0.418 0.453,-0.441 0.453,-0.47C0.453,-0.499 0.445,-0.523 0.429,-0.54C0.413,-0.557 0.396,-0.566 0.377,-0.566L0.232,-0.566L0.232,-0.372Z" style="fill-rule:nonzero;"/>
        </g>
        <g transform="matrix(162,0,0,162,158.814,352.13)">
            <path d="M0.567,-0.144L0.567,0L0.068,0L0.068,-0.71L0.558,-0.71L0.558,-0.566L0.232,-0.566L0.232,-0.428L0.512,-0.428L0.512,-0.295L0.232,-0.295L0.232,-0.144L0.567,-0.144Z" style="fill-rule:nonzero;"/>
        </g>
        <g transform="matrix(162,0,0,162,253.422,352.13)">
            <path d="M0.494,-0.502C0.492,-0.505 0.485,-0.51 0.473,-0.517C0.461,-0.524 0.446,-0.532 0.428,-0.54C0.41,-0.548 0.39,-0.555 0.369,-0.561C0.348,-0.567 0.326,-0.57 0.305,-0.57C0.246,-0.57 0.217,-0.55 0.217,-0.511C0.217,-0.499 0.22,-0.489 0.227,-0.481C0.233,-0.473 0.242,-0.466 0.255,-0.46C0.267,-0.453 0.282,-0.447 0.301,-0.442C0.32,-0.437 0.341,-0.431 0.366,-0.424C0.4,-0.415 0.431,-0.405 0.458,-0.394C0.485,-0.383 0.509,-0.369 0.528,-0.353C0.547,-0.336 0.561,-0.316 0.572,-0.293C0.582,-0.27 0.587,-0.242 0.587,-0.209C0.587,-0.169 0.58,-0.135 0.565,-0.108C0.55,-0.08 0.53,-0.058 0.505,-0.041C0.48,-0.024 0.452,-0.011 0.42,-0.004C0.388,0.004 0.355,0.008 0.321,0.008C0.295,0.008 0.268,0.006 0.241,0.002C0.214,-0.002 0.187,-0.008 0.161,-0.016C0.135,-0.023 0.11,-0.032 0.086,-0.043C0.061,-0.054 0.039,-0.066 0.018,-0.08L0.09,-0.223C0.093,-0.22 0.101,-0.213 0.116,-0.204C0.131,-0.195 0.149,-0.185 0.171,-0.176C0.192,-0.167 0.216,-0.158 0.243,-0.151C0.27,-0.144 0.297,-0.14 0.324,-0.14C0.382,-0.14 0.411,-0.158 0.411,-0.193C0.411,-0.206 0.407,-0.217 0.398,-0.226C0.389,-0.235 0.377,-0.243 0.362,-0.25C0.347,-0.257 0.329,-0.263 0.308,-0.269C0.287,-0.275 0.264,-0.282 0.239,-0.289C0.206,-0.299 0.178,-0.31 0.154,-0.322C0.13,-0.333 0.11,-0.347 0.095,-0.362C0.079,-0.377 0.067,-0.395 0.06,-0.415C0.052,-0.435 0.048,-0.458 0.048,-0.485C0.048,-0.522 0.055,-0.555 0.069,-0.584C0.083,-0.613 0.102,-0.637 0.126,-0.657C0.15,-0.676 0.178,-0.691 0.21,-0.701C0.241,-0.711 0.275,-0.716 0.31,-0.716C0.335,-0.716 0.359,-0.714 0.383,-0.709C0.407,-0.704 0.43,-0.698 0.452,-0.691C0.474,-0.684 0.494,-0.675 0.514,-0.666C0.533,-0.657 0.55,-0.647 0.566,-0.638L0.494,-0.502Z" style="fill-rule:nonzero;"/>
        </g>
        <g transform="matrix(162,0,0,162,353.052,352.13)">
            <rect x="0.068" y="-0.71" width="0.164" height="0.71" style="fill-rule:nonzero;"/>
        </g>
        <g transform="matrix(162,0,0,162,401.652,352.13)">
            <path d="M0.494,-0.502C0.492,-0.505 0.485,-0.51 0.473,-0.517C0.461,-0.524 0.446,-0.532 0.428,-0.54C0.41,-0.548 0.39,-0.555 0.369,-0.561C0.348,-0.567 0.326,-0.57 0.305,-0.57C0.246,-0.57 0.217,-0.55 0.217,-0.511C0.217,-0.499 0.22,-0.489 0.227,-0.481C0.233,-0.473 0.242,-0.466 0.255,-0.46C0.267,-0.453 0.282,-0.447 0.301,-0.442C0.32,-0.437 0.341,-0.431 0.366,-0.424C0.4,-0.415 0.431,-0.405 0.458,-0.394C0.485,-0.383 0.509,-0.369 0.528,-0.353C0.547,-0.336 0.561,-0.316 0.572,-0.293C0.582,-0.27 0.587,-0.242 0.587,-0.209C0.587,-0.169 0.58,-0.135 0.565,-0.108C0.55,-0.08 0.53,-0.058 0.505,-0.041C0.48,-0.024 0.452,-0.011 0.42,-0.004C0.388,0.004 0.355,0.008 0.321,0.008C0.295,0.008 0.268,0.006 0.241,0.002C0.214,-0.002 0.187,-0.008 0.161,-0.016C0.135,-0.023 0.11,-0.032 0.086,-0.043C0.061,-0.054 0.039,-0.066 0.018,-0.08L0.09,-0.223C0.093,-0.22 0.101,-0.213 0.116,-0.204C0.131,-0.195 0.149,-0.185 0.171,-0.176C0.192,-0.167 0.216,-0.158 0.243,-0.151C0.27,-0.144 0.297,-0.14 0.324,-0.14C0.382,-0.14 0.411,-0.158 0.411,-0.193C0.411,-0.206 0.407,-0.217 0.398,-0.226C0.389,-0.235 0.377,-0.243 0.362,-0.25C0.347,-0.257 0.329,-0.263 0.308,-0.269C0.287,-0.275 0.264,-0.282 0.239,-0.289C0.206,-0.299 0.178,-0.31 0.154,-0.322C0.13,-0.333 0.11,-0.347 0.095,-0.362C0.079,-0.377 0.067,-0.395 0.06,-0.415C0.052,-0.435 0.048,-0.458 0.048,-0.485C0.048,-0.522 0.055,-0.555 0.069,-0.584C0.083,-0.613 0.102,-0.637 0.126,-0.657C0.15,-0.676 0.178,-0.691 0.21,-0.701C0.241,-0.711 0.275,-0.716 0.31,-0.716C0.335,-0.716 0.359,-0.714 0.383,-0.709C0.407,-0.704 0.43,-0.698 0.452,-0.691C0.474,-0.684 0.494,-0.675 0.514,-0.666C0.533,-0.657 0.55,-0.647 0.566,-0.638L0.494,-0.502Z" style="fill-rule:nonzero;"/>
        </g>
        <g transform="matrix(162,0,0,162,500.472,352.13)">
            <path d="M0.609,-0.566L0.393,-0.566L0.393,0L0.229,0L0.229,-0.566L0.012,-0.566L0.012,-0.71L0.609,-0.71L0.609,-0.566Z" style="fill-rule:nonzero;"/>
        </g>
        <g transform="matrix(162,0,0,162,589.734,352.13)">
            <path d="M0.261,-0.71L0.409,-0.71L0.668,0L0.5,0L0.445,-0.159L0.224,-0.159L0.17,0L0.002,0L0.261,-0.71ZM0.418,-0.272L0.335,-0.523L0.25,-0.272L0.418,-0.272Z" style="fill-rule:nonzero;"/>
        </g>
        <g transform="matrix(162,0,0,162,698.274,352.13)">
            <path d="M0.232,-0.406L0.232,0L0.068,0L0.068,-0.71L0.196,-0.71L0.527,-0.293L0.527,-0.71L0.691,-0.71L0.691,0L0.559,0L0.232,-0.406Z" style="fill-rule:nonzero;"/>
        </g>
        <g transform="matrix(162,0,0,162,821.232,352.13)">
            <path d="M0.027,-0.361C0.027,-0.404 0.035,-0.446 0.051,-0.489C0.067,-0.531 0.09,-0.569 0.121,-0.602C0.152,-0.635 0.189,-0.662 0.233,-0.683C0.277,-0.704 0.327,-0.714 0.383,-0.714C0.45,-0.714 0.507,-0.7 0.557,-0.671C0.606,-0.642 0.642,-0.605 0.666,-0.559L0.54,-0.471C0.532,-0.49 0.522,-0.505 0.51,-0.518C0.497,-0.53 0.484,-0.54 0.469,-0.548C0.454,-0.555 0.439,-0.561 0.424,-0.564C0.409,-0.567 0.394,-0.568 0.379,-0.568C0.348,-0.568 0.32,-0.562 0.297,-0.549C0.274,-0.536 0.254,-0.52 0.239,-0.5C0.224,-0.48 0.212,-0.457 0.205,-0.432C0.198,-0.407 0.194,-0.381 0.194,-0.355C0.194,-0.327 0.198,-0.3 0.207,-0.274C0.216,-0.248 0.228,-0.225 0.245,-0.205C0.261,-0.185 0.281,-0.169 0.304,-0.158C0.327,-0.146 0.352,-0.14 0.381,-0.14C0.396,-0.14 0.411,-0.142 0.427,-0.146C0.442,-0.149 0.457,-0.155 0.472,-0.163C0.486,-0.17 0.499,-0.18 0.511,-0.193C0.523,-0.205 0.533,-0.22 0.54,-0.238L0.674,-0.159C0.663,-0.133 0.648,-0.11 0.627,-0.089C0.606,-0.068 0.581,-0.051 0.554,-0.037C0.527,-0.023 0.498,-0.012 0.467,-0.005C0.436,0.002 0.406,0.006 0.377,0.006C0.326,0.006 0.279,-0.005 0.236,-0.026C0.193,-0.047 0.156,-0.074 0.125,-0.109C0.093,-0.144 0.069,-0.183 0.053,-0.227C0.035,-0.271 0.027,-0.316 0.027,-0.361Z" style="fill-rule:nonzero;"/>
        </g>
        <g transform="matrix(162,0,0,162,932.688,352.13)">
            <path d="M0.567,-0.144L0.567,0L0.068,0L0.068,-0.71L0.558,-0.71L0.558,-0.566L0.232,-0.566L0.232,-0.428L0.512,-0.428L0.512,-0.295L0.232,-0.295L0.232,-0.144L0.567,-0.144Z" style="fill-rule:nonzero;"/>
        </g>
        <path d="M91.858,319.032L91.858,352.13C91.858,354.339 90.067,356.13 87.858,356.13L61.29,356.13C59.081,356.13 57.29,354.339 57.29,352.13L57.29,237.11C57.29,234.901 59.081,233.11 61.29,233.11C61.29,233.11 113.13,233.11 113.13,233.11C119.169,233.11 124.753,234.389 129.887,236.926C134.934,239.42 139.296,242.689 142.978,246.727C146.645,250.749 149.514,255.302 151.584,260.388C153.676,265.528 154.714,270.73 154.714,275.99C154.714,279.906 154.236,283.673 153.287,287.292C152.337,290.914 150.97,294.328 149.189,297.535C147.386,300.78 145.191,303.693 142.607,306.277C140.985,307.9 139.232,309.369 137.349,310.684L160.638,350.095C161.368,351.332 161.38,352.865 160.668,354.112C159.956,355.36 158.63,356.13 157.194,356.13L127.224,356.13C125.813,356.13 124.506,355.386 123.785,354.173L102.915,319.032L91.858,319.032ZM61.29,352.13L61.29,237.11L113.13,237.11C118.53,237.11 123.525,238.244 128.115,240.512C132.705,242.78 136.674,245.75 140.022,249.422C143.37,253.094 145.989,257.252 147.879,261.896C149.769,266.54 150.714,271.238 150.714,275.99C150.714,279.554 150.282,282.983 149.418,286.277C148.554,289.571 147.312,292.676 145.692,295.592C144.072,298.508 142.101,301.127 139.779,303.449C137.457,305.771 134.838,307.742 131.922,309.362L157.194,352.13L127.224,352.13L105.192,315.032L87.858,315.032L87.858,352.13L61.29,352.13ZM87.858,291.866L112.158,291.866C115.29,291.866 117.99,290.381 120.258,287.411C122.526,284.441 123.66,280.634 123.66,275.99C123.66,271.238 122.364,267.458 119.772,264.65C117.18,261.842 114.372,260.438 111.348,260.438L87.858,260.438L87.858,291.866ZM91.858,287.866L112.158,287.866C114.09,287.866 115.68,286.816 117.079,284.983C118.86,282.651 119.66,279.636 119.66,275.99C119.66,272.391 118.796,269.49 116.833,267.363C115.122,265.51 113.344,264.438 111.348,264.438L91.858,264.438L91.858,287.866Z" style="fill:transparent;"/>
        <path d="M200.398,324.802L250.668,324.802C252.877,324.802 254.668,326.593 254.668,328.802L254.668,352.13C254.668,354.339 252.877,356.13 250.668,356.13L169.83,356.13C167.621,356.13 165.83,354.339 165.83,352.13L165.83,237.11C165.83,234.901 167.621,233.11 169.83,233.11L249.21,233.11C251.419,233.11 253.21,234.901 253.21,237.11L253.21,260.438C253.21,262.647 251.419,264.438 249.21,264.438L200.398,264.438L200.398,278.794L241.758,278.794C243.967,278.794 245.758,280.585 245.758,282.794L245.758,304.34C245.758,306.549 243.967,308.34 241.758,308.34L200.398,308.34L200.398,324.802ZM250.668,328.802L250.668,352.13L169.83,352.13L169.83,237.11L249.21,237.11L249.21,260.438L196.398,260.438L196.398,282.794L241.758,282.794L241.758,304.34L196.398,304.34L196.398,328.802L250.668,328.802Z" style="fill:transparent;"/>
        <path d="M271.02,313.381C271.131,313.466 272.676,314.634 274.362,315.707C276.584,317.122 279.342,318.53 282.625,319.944C285.979,321.389 289.721,322.676 293.849,323.811C297.819,324.903 301.84,325.45 305.91,325.45C309.037,325.45 311.549,325.132 313.425,324.37C315.095,323.692 316.004,322.559 316.004,320.864C316.004,319.855 315.726,319.003 315.07,318.346C313.952,317.229 312.382,316.253 310.405,315.35C308.08,314.288 305.323,313.308 302.138,312.398C298.724,311.423 295.011,310.339 290.969,309.137C285.454,307.449 280.673,305.614 276.621,303.644C272.305,301.547 268.75,299.102 265.933,296.345C262.974,293.449 260.774,290.109 259.326,286.332C257.927,282.681 257.198,278.427 257.198,273.56C257.198,266.847 258.489,260.921 261.006,255.767C263.533,250.592 266.967,246.233 271.299,242.683C275.571,239.183 280.52,236.534 286.156,234.754C291.666,233.014 297.494,232.138 303.642,232.138C307.896,232.138 312.092,232.541 316.231,233.346C320.294,234.135 324.187,235.152 327.911,236.393C331.654,237.641 335.14,239.06 338.373,240.648C341.542,242.205 344.461,243.762 347.129,245.319C348.982,246.4 349.653,248.75 348.649,250.646L336.985,272.678C336.344,273.888 335.128,274.687 333.763,274.794C332.505,274.892 331.281,274.392 330.455,273.455C330.262,273.316 329.105,272.488 327.962,271.789C326.142,270.677 323.864,269.519 321.133,268.305C318.383,267.083 315.377,266.015 312.117,265.099C309.022,264.228 305.927,263.79 302.832,263.79C296.373,263.79 292.576,265.017 292.576,269.348C292.576,270.29 292.754,271.097 293.251,271.725C293.973,272.638 295.072,273.41 296.478,274.133C298.282,275.059 300.553,275.9 303.283,276.68C306.291,277.539 309.783,278.506 313.773,279.585C319.442,281.141 324.554,282.838 329.111,284.672C333.981,286.632 338.1,289.082 341.485,291.992C345.015,295.026 347.743,298.709 349.662,303.044C351.537,307.276 352.516,312.347 352.516,318.272C352.516,325.508 351.101,331.616 348.387,336.621C345.645,341.679 342.011,345.755 337.502,348.863C333.116,351.885 328.084,354.09 322.394,355.453C316.909,356.767 311.252,357.426 305.424,357.426C301.024,357.426 296.511,357.089 291.885,356.412C287.268,355.736 282.764,354.751 278.373,353.456C273.997,352.165 269.762,350.623 265.667,348.827C261.495,346.999 257.638,344.882 254.095,342.482C252.43,341.354 251.861,339.167 252.765,337.371L264.429,314.205C265.042,312.989 266.231,312.167 267.586,312.026C268.887,311.89 270.168,312.398 271.02,313.381ZM333.45,270.806C333.126,270.374 331.992,269.564 330.048,268.376C328.104,267.188 325.674,265.946 322.758,264.65C319.842,263.354 316.656,262.22 313.2,261.248C309.744,260.276 306.288,259.79 302.832,259.79C293.328,259.79 288.576,262.976 288.576,269.348C288.576,271.292 289.089,272.912 290.115,274.208C291.141,275.504 292.653,276.665 294.651,277.691C296.649,278.717 299.16,279.662 302.184,280.526C305.208,281.39 308.718,282.362 312.714,283.442C318.222,284.954 323.19,286.601 327.618,288.383C332.046,290.165 335.799,292.379 338.877,295.025C341.955,297.671 344.331,300.884 346.005,304.664C347.679,308.444 348.516,312.98 348.516,318.272C348.516,324.752 347.301,330.233 344.871,334.715C342.441,339.197 339.228,342.815 335.232,345.569C331.236,348.323 326.646,350.321 321.462,351.563C316.278,352.805 310.932,353.426 305.424,353.426C301.212,353.426 296.892,353.102 292.464,352.454C288.036,351.806 283.716,350.861 279.504,349.619C275.292,348.377 271.215,346.892 267.273,345.164C263.331,343.436 259.686,341.438 256.338,339.17L268.002,316.004C268.434,316.544 269.838,317.57 272.214,319.082C274.59,320.594 277.533,322.106 281.043,323.618C284.553,325.13 288.468,326.48 292.788,327.668C297.108,328.856 301.482,329.45 305.91,329.45C315.306,329.45 320.004,326.588 320.004,320.864C320.004,318.704 319.302,316.922 317.898,315.518C316.494,314.114 314.55,312.845 312.066,311.711C309.582,310.577 306.639,309.524 303.237,308.552C299.835,307.58 296.136,306.5 292.14,305.312C286.848,303.692 282.258,301.937 278.37,300.047C274.482,298.157 271.269,295.97 268.731,293.486C266.193,291.002 264.303,288.14 263.061,284.9C261.819,281.66 261.198,277.88 261.198,273.56C261.198,267.512 262.332,262.166 264.6,257.522C266.868,252.878 269.946,248.963 273.834,245.777C277.722,242.591 282.231,240.188 287.361,238.568C292.491,236.948 297.918,236.138 303.642,236.138C307.638,236.138 311.58,236.516 315.468,237.272C319.356,238.028 323.082,239 326.646,240.188C330.21,241.376 333.531,242.726 336.609,244.238C339.687,245.75 342.522,247.262 345.114,248.774L333.45,270.806Z" style="fill:transparent;"/>
        <path d="M360.068,352.13C360.068,354.339 361.859,356.13 364.068,356.13L390.636,356.13C392.845,356.13 394.636,354.339 394.636,352.13L394.636,237.11C394.636,234.901 392.845,233.11 390.636,233.11L364.068,233.11C361.859,233.11 360.068,234.901 360.068,237.11L360.068,352.13ZM364.068,352.13L364.068,237.11L390.636,237.11L390.636,352.13L364.068,352.13Z" style="fill:transparent;"/>
        <path d="M419.25,313.381C419.361,313.466 420.906,314.634 422.592,315.707C424.814,317.122 427.572,318.53 430.855,319.944C434.209,321.389 437.951,322.676 442.079,323.811C446.049,324.903 450.07,325.45 454.14,325.45C457.267,325.45 459.779,325.132 461.655,324.37C463.325,323.692 464.234,322.559 464.234,320.864C464.234,319.855 463.956,319.003 463.3,318.346C462.182,317.229 460.612,316.253 458.635,315.35C456.31,314.288 453.553,313.308 450.368,312.398C446.954,311.423 443.241,310.339 439.199,309.137C433.684,307.449 428.903,305.614 424.851,303.644C420.535,301.547 416.98,299.102 414.163,296.345C411.204,293.449 409.004,290.109 407.556,286.332C406.157,282.681 405.428,278.427 405.428,273.56C405.428,266.847 406.719,260.921 409.236,255.767C411.763,250.592 415.197,246.233 419.529,242.683C423.801,239.183 428.75,236.534 434.386,234.754C439.896,233.014 445.724,232.138 451.872,232.138C456.126,232.138 460.322,232.541 464.461,233.346C468.524,234.135 472.417,235.152 476.141,236.393C479.884,237.641 483.37,239.06 486.603,240.648C489.772,242.205 492.691,243.762 495.359,245.319C497.212,246.4 497.883,248.75 496.879,250.646L485.215,272.678C484.574,273.888 483.358,274.687 481.993,274.794C480.735,274.892 479.511,274.392 478.685,273.455C478.492,273.316 477.335,272.488 476.192,271.789C474.372,270.677 472.094,269.519 469.363,268.305C466.613,267.083 463.607,266.015 460.347,265.099C457.252,264.228 454.157,263.79 451.062,263.79C444.603,263.79 440.806,265.017 440.806,269.348C440.806,270.29 440.984,271.097 441.481,271.725C442.203,272.638 443.302,273.41 444.708,274.133C446.512,275.059 448.783,275.9 451.513,276.68C454.521,277.539 458.013,278.506 462.003,279.585C467.672,281.141 472.784,282.838 477.341,284.672C482.211,286.632 486.33,289.082 489.715,291.992C493.245,295.026 495.973,298.709 497.892,303.044C499.767,307.276 500.746,312.347 500.746,318.272C500.746,325.508 499.331,331.616 496.617,336.621C493.875,341.679 490.241,345.755 485.732,348.863C481.346,351.885 476.314,354.09 470.624,355.453C465.139,356.767 459.482,357.426 453.654,357.426C449.254,357.426 444.741,357.089 440.115,356.412C435.498,355.736 430.994,354.751 426.603,353.456C422.227,352.165 417.992,350.623 413.897,348.827C409.725,346.999 405.868,344.882 402.325,342.482C400.66,341.354 400.091,339.167 400.995,337.371L412.659,314.205C413.272,312.989 414.461,312.167 415.816,312.026C417.117,311.89 418.398,312.398 419.25,313.381ZM481.68,270.806C481.356,270.374 480.222,269.564 478.278,268.376C476.334,267.188 473.904,265.946 470.988,264.65C468.072,263.354 464.886,262.22 461.43,261.248C457.974,260.276 454.518,259.79 451.062,259.79C441.558,259.79 436.806,262.976 436.806,269.348C436.806,271.292 437.319,272.912 438.345,274.208C439.371,275.504 440.883,276.665 442.881,277.691C444.879,278.717 447.39,279.662 450.414,280.526C453.438,281.39 456.948,282.362 460.944,283.442C466.452,284.954 471.42,286.601 475.848,288.383C480.276,290.165 484.029,292.379 487.107,295.025C490.185,297.671 492.561,300.884 494.235,304.664C495.909,308.444 496.746,312.98 496.746,318.272C496.746,324.752 495.531,330.233 493.101,334.715C490.671,339.197 487.458,342.815 483.462,345.569C479.466,348.323 474.876,350.321 469.692,351.563C464.508,352.805 459.162,353.426 453.654,353.426C449.442,353.426 445.122,353.102 440.694,352.454C436.266,351.806 431.946,350.861 427.734,349.619C423.522,348.377 419.445,346.892 415.503,345.164C411.561,343.436 407.916,341.438 404.568,339.17L416.232,316.004C416.664,316.544 418.068,317.57 420.444,319.082C422.82,320.594 425.763,322.106 429.273,323.618C432.783,325.13 436.698,326.48 441.018,327.668C445.338,328.856 449.712,329.45 454.14,329.45C463.536,329.45 468.234,326.588 468.234,320.864C468.234,318.704 467.532,316.922 466.128,315.518C464.724,314.114 462.78,312.845 460.296,311.711C457.812,310.577 454.869,309.524 451.467,308.552C448.065,307.58 444.366,306.5 440.37,305.312C435.078,303.692 430.488,301.937 426.6,300.047C422.712,298.157 419.499,295.97 416.961,293.486C414.423,291.002 412.533,288.14 411.291,284.9C410.049,281.66 409.428,277.88 409.428,273.56C409.428,267.512 410.562,262.166 412.83,257.522C415.098,252.878 418.176,248.963 422.064,245.777C425.952,242.591 430.461,240.188 435.591,238.568C440.721,236.948 446.148,236.138 451.872,236.138C455.868,236.138 459.81,236.516 463.698,237.272C467.586,238.028 471.312,239 474.876,240.188C478.44,241.376 481.761,242.726 484.839,244.238C487.917,245.75 490.752,247.262 493.344,248.774L481.68,270.806Z" style="fill:transparent;"/>
        <path d="M533.57,264.438L502.416,264.438C500.207,264.438 498.416,262.647 498.416,260.438L498.416,237.11C498.416,234.901 500.207,233.11 502.416,233.11L599.13,233.11C601.339,233.11 603.13,234.901 603.13,237.11L603.13,260.438C603.13,262.647 601.339,264.438 599.13,264.438L568.138,264.438L568.138,352.13C568.138,354.339 566.347,356.13 564.138,356.13L537.57,356.13C535.361,356.13 533.57,354.339 533.57,352.13L533.57,264.438ZM599.13,260.438L564.138,260.438L564.138,352.13L537.57,352.13L537.57,260.438L502.416,260.438L502.416,237.11L599.13,237.11L599.13,260.438Z" style="fill:transparent;"/>
        <path d="M628.888,330.372L621.062,353.416C620.511,355.039 618.987,356.13 617.274,356.13L590.058,356.13C588.752,356.13 587.529,355.493 586.781,354.423C586.032,353.353 585.853,351.986 586.3,350.759L628.258,235.739C628.834,234.16 630.335,233.11 632.016,233.11L655.992,233.11C657.673,233.11 659.174,234.16 659.75,235.739L701.708,350.759C702.155,351.986 701.976,353.353 701.227,354.423C700.479,355.493 699.256,356.13 697.95,356.13L670.734,356.13C669.029,356.13 667.511,355.049 666.954,353.438L658.975,330.372L628.888,330.372ZM632.016,237.11L655.992,237.11L697.95,352.13L670.734,352.13L661.824,326.372L626.022,326.372L617.274,352.13L590.058,352.13L632.016,237.11ZM657.45,308.066L644.004,267.404L630.234,308.066L657.45,308.066ZM635.812,304.066L651.914,304.066L643.959,280.008L635.812,304.066Z" style="fill:transparent;"/>
        <path d="M739.858,297.701L739.858,352.13C739.858,354.339 738.067,356.13 735.858,356.13L709.29,356.13C707.081,356.13 705.29,354.339 705.29,352.13L705.29,237.11C705.29,234.901 707.081,233.11 709.29,233.11L730.026,233.11C731.246,233.11 732.4,233.667 733.159,234.623L779.648,293.191L779.648,237.11C779.648,234.901 781.439,233.11 783.648,233.11L810.216,233.11C812.425,233.11 814.216,234.901 814.216,237.11L814.216,352.13C814.216,354.339 812.425,356.13 810.216,356.13L788.832,356.13C787.621,356.13 786.476,355.582 785.717,354.639L739.858,297.701ZM735.858,286.358L735.858,352.13L709.29,352.13L709.29,237.11L730.026,237.11L783.648,304.664L783.648,237.11L810.216,237.11L810.216,352.13L788.832,352.13L735.858,286.358Z" style="fill:transparent;"/>
        <path d="M821.606,293.648C821.606,301.479 823.069,309.197 826.006,316.798C828.936,324.383 833.075,331.162 838.419,337.138C843.785,343.138 850.186,347.959 857.628,351.593C865.128,355.256 873.352,357.102 882.306,357.102C887.361,357.102 892.531,356.474 897.816,355.21C903.099,353.947 908.095,352.108 912.804,349.696C917.603,347.238 921.844,344.192 925.531,340.563C929.331,336.823 932.19,332.596 934.121,327.89C934.875,326.051 934.164,323.936 932.451,322.926L910.743,310.128C909.742,309.538 908.534,309.412 907.432,309.784C906.331,310.156 905.446,310.988 905.008,312.065C904.028,314.471 902.751,316.507 901.147,318.156C899.5,319.849 897.696,321.225 895.728,322.278C893.717,323.354 891.612,324.15 889.413,324.664C887.189,325.185 885.036,325.45 882.954,325.45C878.981,325.45 875.396,324.665 872.209,323.048C868.985,321.412 866.228,319.193 863.939,316.39C861.594,313.518 859.805,310.211 858.561,306.477C857.292,302.671 856.66,298.719 856.66,294.62C856.66,290.784 857.202,286.996 858.284,283.258C859.329,279.648 860.939,276.414 863.124,273.564C865.272,270.762 867.986,268.482 871.254,266.707C874.489,264.952 878.287,264.114 882.63,264.114C884.756,264.114 886.93,264.334 889.152,264.769C891.267,265.182 893.334,265.922 895.357,266.98C897.381,268.038 899.241,269.422 900.943,271.123C902.605,272.786 903.957,274.887 905.035,277.404C905.51,278.51 906.457,279.344 907.614,279.674C908.771,280.005 910.016,279.797 911.002,279.107L931.414,264.851C933.063,263.7 933.6,261.504 932.67,259.722C928.443,251.62 922.035,245.024 913.405,239.975C904.893,234.996 894.858,232.462 883.278,232.462C873.569,232.462 864.906,234.28 857.277,237.863C849.659,241.442 843.2,246.126 837.89,251.898C832.573,257.678 828.527,264.238 825.752,271.579C822.983,278.906 821.606,286.263 821.606,293.648ZM825.606,293.648C825.606,286.736 826.902,279.851 829.494,272.993C832.086,266.135 835.866,260.006 840.834,254.606C845.802,249.206 851.85,244.832 858.978,241.484C866.106,238.136 874.206,236.462 883.278,236.462C894.078,236.462 903.447,238.784 911.385,243.428C919.323,248.072 925.236,254.12 929.124,261.572L908.712,275.828C907.416,272.804 905.769,270.293 903.771,268.295C901.773,266.297 899.586,264.677 897.21,263.435C894.834,262.193 892.404,261.329 889.92,260.843C887.436,260.357 885.006,260.114 882.63,260.114C877.554,260.114 873.126,261.14 869.346,263.192C865.566,265.244 862.434,267.89 859.95,271.13C857.466,274.37 855.63,278.042 854.442,282.146C853.254,286.25 852.66,290.408 852.66,294.62C852.66,299.156 853.362,303.53 854.766,307.742C856.17,311.954 858.195,315.68 860.841,318.92C863.487,322.16 866.673,324.725 870.399,326.615C874.125,328.505 878.31,329.45 882.954,329.45C885.33,329.45 887.787,329.153 890.325,328.559C892.863,327.965 895.293,327.047 897.615,325.805C899.937,324.563 902.07,322.943 904.014,320.945C905.958,318.947 907.524,316.49 908.712,313.574L930.42,326.372C928.692,330.584 926.127,334.364 922.725,337.712C919.323,341.06 915.408,343.868 910.98,346.136C906.552,348.404 901.854,350.132 896.886,351.32C891.918,352.508 887.058,353.102 882.306,353.102C873.99,353.102 866.349,351.401 859.383,347.999C852.417,344.597 846.423,340.088 841.401,334.472C836.379,328.856 832.491,322.484 829.737,315.356C826.983,308.228 825.606,300.992 825.606,293.648Z" style="fill:transparent;"/>
        <path d="M974.272,324.802L1024.54,324.802C1026.75,324.802 1028.54,326.593 1028.54,328.802L1028.54,352.13C1028.54,354.339 1026.75,356.13 1024.54,356.13L943.704,356.13C941.495,356.13 939.704,354.339 939.704,352.13L939.704,237.11C939.704,234.901 941.495,233.11 943.704,233.11L1023.08,233.11C1025.29,233.11 1027.08,234.901 1027.08,237.11L1027.08,260.438C1027.08,262.647 1025.29,264.438 1023.08,264.438L974.272,264.438L974.272,278.794L1015.63,278.794C1017.84,278.794 1019.63,280.585 1019.63,282.794L1019.63,304.34C1019.63,306.549 1017.84,308.34 1015.63,308.34L974.272,308.34L974.272,324.802ZM1024.54,328.802L1024.54,352.13L943.704,352.13L943.704,237.11L1023.08,237.11L1023.08,260.438L970.272,260.438L970.272,282.794L1015.63,282.794L1015.63,304.34L970.272,304.34L970.272,328.802L1024.54,328.802Z" style="fill:transparent;"/>
    </g>
    <g transform="matrix(1.74181,0,0,1.74181,530,361.638)">
        <g transform="matrix(1,0,0,1,-134.64,-200)">
            <path id="selection_to_path" d="M110.28,0.9C110.28,0.9 108.355,1.263 107.52,1.74C106.33,2.42 105.712,3.732 104.34,4.32C100.786,5.843 100.04,10.96 97.5,13.5C94.543,16.457 92.324,20.114 90.24,23.76C88.886,26.129 86.409,28.519 85.5,31.02C84.433,33.954 84.108,36.306 82.74,38.7C82.106,39.809 80.298,41.188 79.08,41.52C78.331,41.724 77.719,43.481 77.4,44.04C76,46.49 74.026,46.817 74.4,51.12C74.559,52.944 76.856,53.327 78.24,53.88C79.973,54.573 81.692,56.221 83.58,57.3C85.764,58.548 88.322,59.239 91.26,60.12C93.344,60.745 95.184,63.367 97.26,63.96C99.391,64.569 101.444,64.432 103.5,64.98C104.993,65.378 106.533,68.024 107.76,68.22C112.361,68.956 113.037,70.54 119.28,70.32C123.339,70.177 123.687,64.413 125.88,62.22C131.267,56.833 134.477,49.469 138.3,42.78C139.851,40.066 142.04,37.48 143.64,34.68C144.812,32.63 147.789,27.721 147.48,24.84C147.345,23.582 142.455,19.877 141.06,19.08C138.897,17.844 137.767,14.67 135.72,13.5C131.392,11.027 127.36,8.423 123.12,6C121.158,4.879 119.313,4.258 117.12,3.66C116.133,3.391 115.577,1.675 114.6,1.32C113.24,0.826 110.28,0.9 110.28,0.9ZM155.16,28.44C155.16,28.44 153.932,29.986 153.06,30.36C152.088,30.777 150.74,30.894 149.4,31.26C148.153,31.6 145.26,37.019 144.72,38.28C141.613,45.531 134.992,51.887 132.72,59.46C132.47,60.294 130.605,61.575 129.96,62.22C128.586,63.594 125.389,69.483 125.88,72.06C126.699,76.358 129.585,74.391 132.96,76.32C138.239,79.337 144.311,82.412 149.4,85.32C151.718,86.645 155.473,86.391 156.66,89.16C158.874,94.326 154.98,97.84 154.56,101.34C154.348,103.107 154.267,107.417 154.14,108.18C153.906,109.583 152.809,114.275 155.64,113.52C159.688,112.441 162.465,108.555 165.42,105.6C166.404,104.616 168.002,103.919 169.32,103.26C170.751,102.544 171.572,99.965 172.26,98.76C174.534,94.781 178.658,92.34 180,87.42C180.484,85.647 183.732,84.152 184.44,82.5C185.002,81.189 185.304,79.931 185.94,78.66C186.748,77.043 189.364,76.025 190.02,74.22C190.555,72.75 191.119,70.115 192.6,69.48C194.101,68.837 193.539,65.822 193.86,64.38C194.552,61.264 196.993,58.356 196.62,53.88C196.415,51.426 191.101,49.355 189.36,48.36C185.518,46.164 182.982,41.338 179.1,39.12C175.528,37.079 171.12,35.803 167.58,33.78C164.912,32.256 162.272,31.06 159.24,29.76C157.926,29.197 155.16,28.44 155.16,28.44ZM62.64,52.8C62.64,52.8 59.948,53.582 59.46,54.72C58.665,56.576 54.714,57.462 54.12,59.64C53.664,61.313 51.528,61.983 51.12,63.48C49.869,68.066 45.375,70.174 43.2,73.98C42.445,75.302 42.286,76.9 41.52,78.24C37.548,85.191 32.35,92.263 28.26,99.42C27.358,100.999 25.083,101.26 24.18,102.84C21.375,107.749 16.252,112.943 14.34,118.2C13.643,120.116 14.804,121.766 14.58,123.78C14.429,125.136 10.74,127.56 9.84,128.46C8.184,130.116 7.732,132.173 6.9,134.46C5.502,138.304 0.163,141.182 0.66,146.4C0.832,148.205 3.203,149.376 3.66,150.9C4.787,154.655 9.132,158.272 11.16,161.82C11.946,163.196 13.018,166.267 14.58,167.16C16.185,168.077 20.016,168.618 21,170.34C22.055,172.186 21.655,175.386 22.68,177.18C23.885,179.288 28.032,179.327 28.86,181.26C31.083,186.448 33.154,191.744 35.94,196.62C38.479,201.063 42.703,204.444 44.28,209.7C44.779,211.362 49.972,213.589 51.54,213.72C52.243,213.779 55.693,213.66 55.8,214.8C56.021,217.161 54.624,217.368 54.96,219.72C55.575,224.024 60.077,229.23 62.22,232.98C63.509,235.236 66.531,236.94 67.8,239.16C71.405,245.468 75.493,250.79 78.48,257.76C79.882,261.032 83.848,263.389 84.66,267.18C85.9,272.965 83.478,276.461 82.5,280.86C82.055,282.864 82.408,285.31 82.08,287.28C81.904,288.337 80.62,289.564 80.58,290.7C80.364,296.843 80.141,300.408 79.56,305.64C79.407,307.019 77.856,308.307 77.82,309.9C77.431,327.19 73.093,340.159 70.14,353.94C69.357,357.596 66.055,375.666 71.4,378.72C99.825,394.963 186.147,392.607 205.2,381.72C208.939,379.583 205.923,371.243 207.54,367.2C210.559,359.652 208.894,343.703 208.2,334.68C206.954,318.484 209.541,298.009 209.7,280.86C209.764,273.967 218.207,270.533 221.22,265.26C222.113,263.698 221.793,260.882 222.72,259.26C225.705,254.037 233.204,250.903 235.14,245.58C235.995,243.229 235.854,240.804 236.58,238.08C237.468,234.748 239.898,230.065 240.9,226.56C241.575,224.199 241.531,222.283 241.74,219.3C242.026,215.218 244.874,208.351 245.58,203.94C246.102,200.678 243.324,199.465 243.66,195.6C243.776,194.262 245.744,192.52 246.24,191.28C248.314,186.094 249.035,183.208 249.84,176.16C250.109,173.808 251.817,172.418 251.34,169.08C250.747,164.929 241.29,171.996 241.5,171.42C242.961,167.402 245.371,166.529 248.16,163.74C249.618,162.282 249.88,160.04 251.34,158.58C255.417,154.503 260.808,150.306 263.52,145.56C265.657,141.821 269.698,140.689 268.26,134.22C266.905,128.124 257.592,124.765 254.76,119.1C253.104,115.788 247.847,107.531 244.08,107.1C238.911,106.509 238.253,112.327 235.98,114.6C234.694,115.886 233.048,116.922 232.32,118.62C231.486,120.567 228.387,121.986 227.4,123.96C223.049,132.661 213.211,137.647 209.46,146.4C208.532,148.565 205.237,149.665 204.54,152.22C204.216,153.408 201.851,154.013 201.36,155.16C200.534,157.088 198.884,158.777 198.12,160.56C197.59,161.797 195.561,162.639 194.7,163.5C192.494,165.706 185.739,173.057 187.02,176.58C187.821,178.783 191.419,179.905 192.36,182.1C193.101,183.829 195.876,184.624 196.62,186.36C198.294,190.266 205.528,196.015 210.3,195.6C211.631,195.484 213.335,192.985 214.38,191.94C217.33,188.99 221.91,185.233 225.72,183.6C226.636,183.207 227.189,181.518 228.06,181.02C229.51,180.191 231.128,180.253 232.98,179.58C234.137,179.159 234.909,176.091 235.74,175.26C236.35,174.65 239.251,172.846 240.24,173.34C240.502,173.471 238.481,176.931 237.9,177.18C233.778,178.947 231.943,182.358 228.3,184.44C226.732,185.336 226.101,187.539 224.88,188.76C222.973,190.667 219.424,191.29 218.22,194.1C217.354,196.12 213.226,195.939 212.22,197.7C211.766,198.495 210.668,201.249 209.7,201.54C205.835,202.699 207.133,198.529 204.78,197.52C200.748,195.792 198.614,191.457 194.7,189.78C193.253,189.16 193.386,185.783 191.76,185.34C185.85,183.728 181.997,175.584 176.34,173.16C171.407,171.046 166.207,170.842 160.5,169.32C155.843,168.078 150.828,165.49 145.38,164.4C139.534,163.231 133.249,161.848 126.54,161.16C124.895,160.991 120.26,159.619 119.7,161.16C118.234,165.191 123.724,167.616 125.28,170.34C126.333,172.183 127.419,174.099 128.46,175.92C129.543,177.814 132.58,178.972 133.38,180.84C133.978,182.235 135.123,184.743 136.14,185.76C138.429,188.049 140.385,189.288 142.14,192.36C143.61,194.933 148.93,196.652 149.82,199.62C150.461,201.755 152.683,203.146 153.72,204.96C154.467,206.268 154.299,208.046 154.74,209.7C155.445,212.342 158.406,215.261 159.24,218.04C161.043,224.051 164.156,229.475 165.24,235.98C165.656,238.475 168.64,241.281 169.32,243.66C170.133,246.505 169.762,249.494 170.76,252.24C171.602,254.556 175.935,258.274 178.08,259.5C178.842,259.936 181.953,260.372 182.1,261.6C182.335,263.554 180.435,264.394 179.34,265.02C176.69,266.534 167.834,269.555 167.82,273.18C167.756,290.121 168.017,307.073 167.34,324C167.096,330.09 169.434,332.324 169.5,335.76C169.574,339.622 171.967,346.264 168.24,347.28C165.914,347.914 166.301,333.494 166.32,332.76C166.4,329.641 166.4,326.519 166.32,323.4C166.286,322.067 164.66,320.794 164.58,319.74C163.877,310.42 163.577,300.948 163.32,290.88C163.282,289.372 161.685,288.115 161.58,286.62C161.292,282.522 161.016,279.904 160.5,276.12C160.25,274.289 158.926,273.219 158.82,270.78C158.732,268.76 159.46,263.067 156.66,262.92C151.276,262.637 149.984,264.427 143.46,263.34C142.616,263.199 137.712,261.966 137.88,261.84C139.732,260.451 142.369,260.273 144.9,259.26C149.826,257.29 153.239,252.412 157.74,249.84C160.914,248.026 166.261,246.912 165.66,241.5C165.265,237.945 160.407,235.231 159.48,232.14C158.903,230.217 158.131,228.032 157.32,226.14C156.604,224.469 154.085,223.358 153.24,221.88C151.237,218.375 148.004,215.583 145.98,212.04C140.811,202.994 133.897,194.614 128.7,185.52C127.925,184.164 126.079,184.039 125.04,183C124.224,182.184 123.873,180.319 123.54,179.1C122.696,176.006 118.13,173.777 116.94,171C114.587,165.509 109.122,155.51 103.68,152.4C101.897,151.381 99.49,151.829 97.08,151.14C94.909,150.52 92.34,149.388 89.82,148.38C85.903,146.813 80.882,141.327 76.56,140.88C73.999,140.615 65.385,140.608 64.8,137.88C64.287,135.488 68.935,136.514 70.32,135.96C72.035,135.274 76.174,130.166 76.74,128.28C77.561,125.545 81.352,122.926 81.48,119.94C81.756,113.528 78.57,111.038 79.32,105.6C79.435,104.764 85.141,108.243 85.5,109.44C86.042,111.246 88.161,112.451 89.82,113.28C90.958,113.849 91.475,116.075 92.34,116.94C94.687,119.287 97.401,121.792 100.08,122.94C102.344,123.91 101.969,128.188 105.18,128.28C111.351,128.458 111.201,128.717 114.36,128.04C117.221,127.427 120.485,123.609 123.54,123.12C127.352,122.51 131.261,123.032 135.12,122.94C136.551,122.906 137.828,120.89 139.14,120.54C148.142,118.139 150.228,114.852 150.9,104.1C151.042,101.82 153.346,99.865 153.48,97.26C153.56,95.702 153.56,94.138 153.48,92.58C153.377,90.58 145.453,84.531 143.46,84C142.165,83.655 140.463,84.019 139.38,83.4C132.139,79.262 123.163,76.188 114.78,73.14C113.05,72.511 109.588,68.493 107.94,68.4C98.648,67.877 94.796,65.578 88.92,62.22C86.965,61.103 84.352,61.281 82.32,60.12C79.572,58.55 76.587,55.774 73.14,55.2C70.264,54.721 67.625,53.617 65.46,53.04C64.548,52.797 62.64,52.8 62.64,52.8ZM197.7,66.48C197.7,66.48 195.614,67.116 195.12,67.98C193.813,70.267 192.64,73.059 191.76,75.48C189.335,82.15 182.996,86.849 180.18,93.42C179.604,94.764 177.501,95.783 176.76,97.08C175.675,98.978 175.393,101.553 174.42,103.5C170.126,112.089 163.684,119.768 158.82,128.28C155.518,134.058 151.174,138.676 147.72,144.72C146.549,146.77 144.402,147.815 143.64,150.48C142.622,154.043 149.48,155.711 151.14,156.66C155.922,159.392 161.188,163.187 166.32,165.24C167.916,165.878 170.579,165.222 172.08,166.08C174.582,167.51 176.934,170.509 180,171C184.669,171.747 190.417,163.103 193.2,160.32C198.916,154.604 202.34,146.26 207.96,140.64C212.101,136.499 215.728,132.296 218.64,127.2C220.935,123.183 225.924,120.57 227.64,116.28C229.734,111.045 233.277,106.947 235.32,102.18C235.563,101.612 237.508,97.708 237.06,97.26C235.766,95.966 235.744,93.184 234.48,91.92C231.441,88.881 226.521,85.572 222.72,83.4C219.11,81.337 216.94,75.923 213.12,73.74C210.941,72.495 208.612,72.029 206.46,70.8C205.571,70.292 204.468,68.522 203.46,68.22C202.236,67.853 201.058,67.307 200.04,66.9C199.304,66.606 197.7,66.48 197.7,66.48ZM144.3,125.94C144.3,125.94 143.425,126.239 142.98,126.36C141.996,126.628 141.232,126.995 139.8,127.2C136.565,127.662 135.177,128.366 132.54,129.12C130.106,129.815 126.588,129.854 123.36,130.2C122.266,130.317 121.141,131.46 120.12,131.7C118.636,132.049 117.169,131.824 115.86,132.3C113.713,133.081 111.406,134.672 109.02,135.54C107,136.275 102.418,136.944 102.84,140.04C103.022,141.378 106.424,143.014 107.52,143.64C108.119,143.982 109.14,144.768 109.86,144.96C110.865,145.228 111.844,145.082 112.68,145.56C114.984,146.877 117.555,148.697 119.94,150.06C121.16,150.757 122.581,152.943 123.96,153.06C125.323,153.176 126.905,153.117 127.86,152.64C130.493,151.323 131.49,148.859 132.72,146.4C133.995,143.85 135.406,141.16 136.8,138.72C137.523,137.455 139.079,137.408 140.46,137.04C142.096,136.604 143.919,135.202 144.72,133.8C145.527,132.388 147.206,129.419 146.88,127.38C146.817,126.984 145.802,126.01 145.38,125.94C145.025,125.881 144.659,125.911 144.3,125.94Z" style="fill-rule:nonzero;"/>
        </g>
    </g>
</svg>
